<ttFont>
    <TTGlyph name="A" xMin="-17" yMin="-57" xMax="785" yMax="704">
      <contour>
        <pt x="107" y="252" on="1"/>
        <pt x="100" y="252" on="0"/>
        <pt x="98" y="261" on="1"/>
        <pt x="98" y="278" on="0"/>
        <pt x="146" y="322" on="0"/>
        <pt x="175" y="334" on="0"/>
        <pt x="257" y="336" on="1"/>
        <pt x="271" y="352" on="1"/>
        <pt x="575" y="703" on="0"/>
        <pt x="693" y="703" on="1"/>
        <pt x="703" y="704" on="0"/>
        <pt x="716" y="704" on="1"/>
        <pt x="785" y="704" on="0"/>
        <pt x="785" y="671" on="1"/>
        <pt x="785" y="665" on="0"/>
        <pt x="772" y="639" on="1"/>
        <pt x="727" y="549" on="1"/>
        <pt x="695" y="485" on="0"/>
        <pt x="665" y="419" on="1"/>
        <pt x="503" y="62" on="0"/>
        <pt x="477" y="-49" on="1"/>
        <pt x="477" y="-57" on="0"/>
        <pt x="436" y="-57" on="0"/>
        <pt x="378" y="-12" on="0"/>
        <pt x="378" y="5" on="1"/>
        <pt x="378" y="36" on="0"/>
        <pt x="476" y="208" on="0"/>
        <pt x="476" y="234" on="1"/>
        <pt x="476" y="269" on="0"/>
        <pt x="340" y="269" on="1"/>
        <pt x="320" y="269" on="0"/>
        <pt x="278" y="267" on="1"/>
        <pt x="240" y="217" on="1"/>
        <pt x="170" y="123" on="0"/>
        <pt x="106" y="-16" on="1"/>
        <pt x="95" y="-41" on="0"/>
        <pt x="-17" y="-41" on="0"/>
        <pt x="-17" y="-25" on="1"/>
        <pt x="-17" y="-14" on="0"/>
        <pt x="108" y="157" on="0"/>
        <pt x="194" y="261" on="1"/>
        <pt x="179" y="259" on="0"/>
        <pt x="133" y="255" on="0"/>
        <pt x="108" y="252" on="0"/>
      </contour>
      <contour>
        <pt x="561" y="428" on="0"/>
        <pt x="600" y="524" on="0"/>
        <pt x="600" y="558" on="0"/>
        <pt x="583" y="558" on="1"/>
        <pt x="553" y="558" on="0"/>
        <pt x="415" y="431" on="0"/>
        <pt x="334" y="336" on="1"/>
        <pt x="443" y="334" on="1"/>
        <pt x="483" y="334" on="0"/>
      </contour>
    </TTGlyph>
    <TTGlyph name="AE" xMin="-17" yMin="-46" xMax="1129" yMax="707">
      <contour>
        <pt x="195" y="260" on="1"/>
        <pt x="110" y="251" on="0"/>
        <pt x="100" y="251" on="0"/>
        <pt x="98" y="259" on="1"/>
        <pt x="98" y="277" on="0"/>
        <pt x="145" y="320" on="0"/>
        <pt x="167" y="329" on="1"/>
        <pt x="174" y="332" on="0"/>
        <pt x="257" y="334" on="1"/>
        <pt x="271" y="350" on="1"/>
        <pt x="395" y="493" on="0"/>
        <pt x="651" y="701" on="0"/>
        <pt x="719" y="701" on="1"/>
        <pt x="748" y="707" on="0"/>
        <pt x="774" y="707" on="1"/>
        <pt x="818" y="707" on="0"/>
        <pt x="818" y="686" on="1"/>
        <pt x="979" y="689" on="1"/>
        <pt x="1014" y="689" on="0"/>
        <pt x="1026" y="688" on="1"/>
        <pt x="1041" y="705" on="0"/>
        <pt x="1103" y="705" on="1"/>
        <pt x="1129" y="705" on="0"/>
        <pt x="1129" y="692" on="1"/>
        <pt x="1129" y="665" on="0"/>
        <pt x="1013" y="499" on="0"/>
        <pt x="985" y="496" on="1"/>
        <pt x="975" y="496" on="1"/>
        <pt x="959" y="496" on="0"/>
        <pt x="959" y="503" on="1"/>
        <pt x="959" y="506" on="0"/>
        <pt x="962" y="511" on="1"/>
        <pt x="978" y="542" on="0"/>
        <pt x="978" y="581" on="1"/>
        <pt x="978" y="636" on="0"/>
        <pt x="901" y="636" on="1"/>
        <pt x="852" y="636" on="0"/>
        <pt x="799" y="588" on="0"/>
        <pt x="748" y="501" on="0"/>
        <pt x="725" y="440" on="0"/>
        <pt x="725" y="432" on="1"/>
        <pt x="725" y="399" on="0"/>
        <pt x="775" y="399" on="1"/>
        <pt x="803" y="397" on="0"/>
        <pt x="843" y="397" on="1"/>
        <pt x="910" y="399" on="1"/>
        <pt x="913" y="400" on="0"/>
        <pt x="917" y="400" on="1"/>
        <pt x="927" y="400" on="0"/>
        <pt x="927" y="393" on="1"/>
        <pt x="914" y="355" on="0"/>
        <pt x="872" y="328" on="0"/>
        <pt x="827" y="328" on="1"/>
        <pt x="742" y="331" on="1"/>
        <pt x="679" y="331" on="0"/>
        <pt x="645" y="290" on="1"/>
        <pt x="621" y="260" on="0"/>
        <pt x="542" y="124" on="0"/>
        <pt x="542" y="84" on="1"/>
        <pt x="542" y="47" on="0"/>
        <pt x="615" y="47" on="1"/>
        <pt x="660" y="47" on="0"/>
        <pt x="711" y="64" on="1"/>
        <pt x="814" y="98" on="0"/>
        <pt x="874" y="194" on="1"/>
        <pt x="875" y="203" on="0"/>
        <pt x="915" y="203" on="0"/>
        <pt x="915" y="187" on="1"/>
        <pt x="915" y="163" on="0"/>
        <pt x="851" y="39" on="0"/>
        <pt x="825" y="9" on="1"/>
        <pt x="812" y="-7" on="0"/>
        <pt x="775" y="-9" on="1"/>
        <pt x="709" y="-11" on="0"/>
        <pt x="636" y="-11" on="1"/>
        <pt x="498" y="-8" on="1"/>
        <pt x="484" y="-8" on="0"/>
        <pt x="477" y="-17" on="1"/>
        <pt x="442" y="-46" on="0"/>
        <pt x="384" y="-46" on="1"/>
        <pt x="354" y="-46" on="0"/>
        <pt x="354" y="-30" on="1"/>
        <pt x="354" y="-9" on="0"/>
        <pt x="473" y="221" on="0"/>
        <pt x="473" y="228" on="1"/>
        <pt x="473" y="251" on="0"/>
        <pt x="408" y="267" on="0"/>
        <pt x="319" y="267" on="0"/>
        <pt x="279" y="265" on="1"/>
        <pt x="224" y="201" on="0"/>
        <pt x="183" y="128" on="1"/>
        <pt x="129" y="33" on="0"/>
        <pt x="107" y="-18" on="1"/>
        <pt x="102" y="-28" on="0"/>
        <pt x="65" y="-41" on="0"/>
        <pt x="49" y="-42" on="1"/>
        <pt x="33" y="-43" on="1"/>
        <pt x="29" y="-43" on="1"/>
        <pt x="-17" y="-43" on="0"/>
        <pt x="-17" y="-27" on="1"/>
        <pt x="-17" y="-16" on="0"/>
        <pt x="109" y="156" on="0"/>
      </contour>
      <contour>
        <pt x="649" y="559" on="1"/>
        <pt x="649" y="573" on="0"/>
        <pt x="596" y="573" on="0"/>
        <pt x="426" y="429" on="0"/>
        <pt x="339" y="334" on="1"/>
        <pt x="475" y="333" on="1"/>
        <pt x="515" y="333" on="0"/>
        <pt x="600" y="434" on="0"/>
        <pt x="648" y="538" on="0"/>
        <pt x="649" y="558" on="1"/>
      </contour>
    </TTGlyph>
    <TTGlyph name="Aacute" xMin="-17" yMin="-57" xMax="833" yMax="849">
      <contour>
        <pt x="477" y="-49" on="1"/>
        <pt x="475" y="-57" on="0"/>
        <pt x="436" y="-57" on="0"/>
        <pt x="378" y="-12" on="0"/>
        <pt x="378" y="5" on="1"/>
        <pt x="378" y="36" on="0"/>
        <pt x="476" y="208" on="0"/>
        <pt x="476" y="234" on="1"/>
        <pt x="476" y="269" on="0"/>
        <pt x="340" y="269" on="1"/>
        <pt x="320" y="269" on="0"/>
        <pt x="278" y="267" on="1"/>
        <pt x="240" y="217" on="1"/>
        <pt x="170" y="123" on="0"/>
        <pt x="106" y="-16" on="1"/>
        <pt x="95" y="-41" on="0"/>
        <pt x="-17" y="-41" on="0"/>
        <pt x="-17" y="-25" on="1"/>
        <pt x="-17" y="-14" on="0"/>
        <pt x="108" y="157" on="0"/>
        <pt x="194" y="261" on="1"/>
        <pt x="179" y="259" on="0"/>
        <pt x="133" y="255" on="0"/>
        <pt x="108" y="252" on="0"/>
        <pt x="107" y="252" on="1"/>
        <pt x="99" y="252" on="0"/>
        <pt x="98" y="278" on="0"/>
        <pt x="146" y="322" on="0"/>
        <pt x="175" y="334" on="0"/>
        <pt x="257" y="336" on="1"/>
        <pt x="271" y="352" on="1"/>
        <pt x="575" y="703" on="0"/>
        <pt x="693" y="703" on="1"/>
        <pt x="716" y="704" on="1"/>
        <pt x="785" y="704" on="0"/>
        <pt x="785" y="671" on="1"/>
        <pt x="785" y="665" on="0"/>
        <pt x="772" y="639" on="1"/>
        <pt x="727" y="549" on="1"/>
        <pt x="695" y="485" on="0"/>
        <pt x="665" y="419" on="1"/>
        <pt x="503" y="62" on="0"/>
      </contour>
      <contour>
        <pt x="583" y="558" on="1"/>
        <pt x="553" y="558" on="0"/>
        <pt x="415" y="431" on="0"/>
        <pt x="334" y="336" on="1"/>
        <pt x="392" y="335" on="0"/>
        <pt x="443" y="334" on="1"/>
        <pt x="483" y="334" on="0"/>
        <pt x="561" y="428" on="0"/>
        <pt x="600" y="524" on="0"/>
        <pt x="600" y="558" on="0"/>
      </contour>
      <contour>
        <pt x="833" y="818" on="0"/>
        <pt x="833" y="786" on="0"/>
        <pt x="726" y="737" on="0"/>
        <pt x="685" y="737" on="0"/>
        <pt x="685" y="745" on="1"/>
        <pt x="685" y="749" on="0"/>
        <pt x="745" y="809" on="0"/>
        <pt x="759" y="827" on="0"/>
        <pt x="766" y="837" on="0"/>
        <pt x="770" y="842" on="0"/>
        <pt x="772" y="844" on="1"/>
        <pt x="777" y="849" on="0"/>
        <pt x="794" y="849" on="0"/>
      </contour>
    </TTGlyph>
    <TTGlyph name="Acircumflex" xMin="-17" yMin="-57" xMax="843" yMax="838">
      <contour>
        <pt x="477" y="-49" on="1"/>
        <pt x="475" y="-57" on="0"/>
        <pt x="436" y="-57" on="0"/>
        <pt x="378" y="-12" on="0"/>
        <pt x="378" y="5" on="1"/>
        <pt x="378" y="36" on="0"/>
        <pt x="476" y="208" on="0"/>
        <pt x="476" y="234" on="1"/>
        <pt x="476" y="269" on="0"/>
        <pt x="340" y="269" on="1"/>
        <pt x="320" y="269" on="0"/>
        <pt x="278" y="267" on="1"/>
        <pt x="240" y="217" on="1"/>
        <pt x="170" y="123" on="0"/>
        <pt x="106" y="-16" on="1"/>
        <pt x="95" y="-41" on="0"/>
        <pt x="-17" y="-41" on="0"/>
        <pt x="-17" y="-25" on="1"/>
        <pt x="-17" y="-14" on="0"/>
        <pt x="108" y="157" on="0"/>
        <pt x="194" y="261" on="1"/>
        <pt x="179" y="259" on="0"/>
        <pt x="133" y="255" on="0"/>
        <pt x="108" y="252" on="0"/>
        <pt x="107" y="252" on="1"/>
        <pt x="99" y="252" on="0"/>
        <pt x="98" y="278" on="0"/>
        <pt x="146" y="322" on="0"/>
        <pt x="175" y="334" on="0"/>
        <pt x="257" y="336" on="1"/>
        <pt x="271" y="352" on="1"/>
        <pt x="575" y="703" on="0"/>
        <pt x="693" y="703" on="1"/>
        <pt x="716" y="704" on="1"/>
        <pt x="785" y="704" on="0"/>
        <pt x="785" y="671" on="1"/>
        <pt x="785" y="665" on="0"/>
        <pt x="772" y="639" on="1"/>
        <pt x="727" y="549" on="1"/>
        <pt x="695" y="485" on="0"/>
        <pt x="665" y="419" on="1"/>
        <pt x="503" y="62" on="0"/>
      </contour>
      <contour>
        <pt x="583" y="558" on="1"/>
        <pt x="553" y="558" on="0"/>
        <pt x="415" y="431" on="0"/>
        <pt x="334" y="336" on="1"/>
        <pt x="392" y="335" on="0"/>
        <pt x="443" y="334" on="1"/>
        <pt x="483" y="334" on="0"/>
        <pt x="561" y="428" on="0"/>
        <pt x="600" y="524" on="0"/>
        <pt x="600" y="558" on="0"/>
      </contour>
      <contour>
        <pt x="843" y="827" on="1"/>
        <pt x="820" y="737" on="1"/>
        <pt x="820" y="724" on="0"/>
        <pt x="811" y="724" on="1"/>
        <pt x="791" y="724" on="0"/>
        <pt x="770" y="765" on="1"/>
        <pt x="767" y="771" on="0"/>
        <pt x="757" y="771" on="0"/>
        <pt x="751" y="767" on="1"/>
        <pt x="697" y="731" on="0"/>
        <pt x="637" y="731" on="0"/>
        <pt x="637" y="739" on="1"/>
        <pt x="637" y="742" on="0"/>
        <pt x="648" y="752" on="1"/>
        <pt x="694" y="799" on="0"/>
        <pt x="716" y="830" on="0"/>
        <pt x="726" y="837" on="0"/>
        <pt x="751" y="837" on="0"/>
        <pt x="765" y="823" on="1"/>
        <pt x="770" y="819" on="0"/>
        <pt x="780" y="819" on="0"/>
        <pt x="811" y="838" on="0"/>
        <pt x="833" y="838" on="1"/>
        <pt x="843" y="837" on="0"/>
      </contour>
    </TTGlyph>
    <TTGlyph name="Adieresis" xMin="-17" yMin="-57" xMax="900" yMax="818">
      <contour>
        <pt x="107" y="252" on="1"/>
        <pt x="100" y="252" on="0"/>
        <pt x="98" y="261" on="1"/>
        <pt x="98" y="278" on="0"/>
        <pt x="146" y="322" on="0"/>
        <pt x="175" y="334" on="0"/>
        <pt x="257" y="336" on="1"/>
        <pt x="271" y="352" on="1"/>
        <pt x="575" y="703" on="0"/>
        <pt x="693" y="703" on="1"/>
        <pt x="703" y="704" on="0"/>
        <pt x="716" y="704" on="1"/>
        <pt x="785" y="704" on="0"/>
        <pt x="785" y="671" on="1"/>
        <pt x="785" y="665" on="0"/>
        <pt x="772" y="639" on="1"/>
        <pt x="727" y="549" on="1"/>
        <pt x="695" y="485" on="0"/>
        <pt x="665" y="419" on="1"/>
        <pt x="503" y="62" on="0"/>
        <pt x="477" y="-49" on="1"/>
        <pt x="477" y="-57" on="0"/>
        <pt x="436" y="-57" on="0"/>
        <pt x="378" y="-12" on="0"/>
        <pt x="378" y="5" on="1"/>
        <pt x="378" y="36" on="0"/>
        <pt x="476" y="208" on="0"/>
        <pt x="476" y="234" on="1"/>
        <pt x="476" y="269" on="0"/>
        <pt x="340" y="269" on="1"/>
        <pt x="320" y="269" on="0"/>
        <pt x="278" y="267" on="1"/>
        <pt x="240" y="217" on="1"/>
        <pt x="170" y="123" on="0"/>
        <pt x="106" y="-16" on="1"/>
        <pt x="95" y="-41" on="0"/>
        <pt x="-17" y="-41" on="0"/>
        <pt x="-17" y="-25" on="1"/>
        <pt x="-17" y="-14" on="0"/>
        <pt x="108" y="157" on="0"/>
        <pt x="194" y="261" on="1"/>
        <pt x="179" y="259" on="0"/>
        <pt x="133" y="255" on="0"/>
        <pt x="108" y="252" on="0"/>
      </contour>
      <contour>
        <pt x="561" y="428" on="0"/>
        <pt x="600" y="524" on="0"/>
        <pt x="600" y="558" on="0"/>
        <pt x="583" y="558" on="1"/>
        <pt x="553" y="558" on="0"/>
        <pt x="415" y="431" on="0"/>
        <pt x="334" y="336" on="1"/>
        <pt x="443" y="334" on="1"/>
        <pt x="483" y="334" on="0"/>
      </contour>
      <contour>
        <pt x="678" y="818" on="1"/>
        <pt x="715" y="818" on="0"/>
        <pt x="715" y="786" on="1"/>
        <pt x="715" y="770" on="0"/>
        <pt x="673" y="734" on="0"/>
        <pt x="651" y="734" on="1"/>
        <pt x="608" y="734" on="0"/>
        <pt x="608" y="763" on="1"/>
        <pt x="608" y="783" on="0"/>
        <pt x="651" y="818" on="0"/>
      </contour>
      <contour>
        <pt x="863" y="818" on="1"/>
        <pt x="900" y="818" on="0"/>
        <pt x="900" y="786" on="1"/>
        <pt x="900" y="770" on="0"/>
        <pt x="859" y="734" on="0"/>
        <pt x="836" y="734" on="1"/>
        <pt x="793" y="734" on="0"/>
        <pt x="793" y="763" on="1"/>
        <pt x="793" y="783" on="0"/>
        <pt x="836" y="818" on="0"/>
      </contour>
    </TTGlyph>
    <TTGlyph name="Agrave" xMin="-17" yMin="-57" xMax="798" yMax="852">
      <contour>
        <pt x="107" y="252" on="1"/>
        <pt x="100" y="252" on="0"/>
        <pt x="98" y="261" on="1"/>
        <pt x="98" y="278" on="0"/>
        <pt x="146" y="322" on="0"/>
        <pt x="175" y="334" on="0"/>
        <pt x="257" y="336" on="1"/>
        <pt x="271" y="352" on="1"/>
        <pt x="575" y="703" on="0"/>
        <pt x="693" y="703" on="1"/>
        <pt x="703" y="704" on="0"/>
        <pt x="716" y="704" on="1"/>
        <pt x="785" y="704" on="0"/>
        <pt x="785" y="671" on="1"/>
        <pt x="785" y="665" on="0"/>
        <pt x="772" y="639" on="1"/>
        <pt x="727" y="549" on="1"/>
        <pt x="695" y="485" on="0"/>
        <pt x="665" y="419" on="1"/>
        <pt x="503" y="62" on="0"/>
        <pt x="477" y="-49" on="1"/>
        <pt x="477" y="-57" on="0"/>
        <pt x="436" y="-57" on="0"/>
        <pt x="378" y="-12" on="0"/>
        <pt x="378" y="5" on="1"/>
        <pt x="378" y="36" on="0"/>
        <pt x="476" y="208" on="0"/>
        <pt x="476" y="234" on="1"/>
        <pt x="476" y="269" on="0"/>
        <pt x="340" y="269" on="1"/>
        <pt x="320" y="269" on="0"/>
        <pt x="278" y="267" on="1"/>
        <pt x="240" y="217" on="1"/>
        <pt x="170" y="123" on="0"/>
        <pt x="106" y="-16" on="1"/>
        <pt x="95" y="-41" on="0"/>
        <pt x="-17" y="-41" on="0"/>
        <pt x="-17" y="-25" on="1"/>
        <pt x="-17" y="-14" on="0"/>
        <pt x="108" y="157" on="0"/>
        <pt x="194" y="261" on="1"/>
        <pt x="179" y="259" on="0"/>
        <pt x="133" y="255" on="0"/>
        <pt x="108" y="252" on="0"/>
      </contour>
      <contour>
        <pt x="561" y="428" on="0"/>
        <pt x="600" y="524" on="0"/>
        <pt x="600" y="558" on="0"/>
        <pt x="583" y="558" on="1"/>
        <pt x="553" y="558" on="0"/>
        <pt x="415" y="431" on="0"/>
        <pt x="334" y="336" on="1"/>
        <pt x="443" y="334" on="1"/>
        <pt x="483" y="334" on="0"/>
      </contour>
      <contour>
        <pt x="662" y="828" on="0"/>
        <pt x="704" y="852" on="0"/>
        <pt x="721" y="852" on="0"/>
        <pt x="728" y="847" on="0"/>
        <pt x="731" y="842" on="0"/>
        <pt x="734" y="835" on="1"/>
        <pt x="740" y="824" on="1"/>
        <pt x="750" y="806" on="0"/>
        <pt x="765" y="784" on="1"/>
        <pt x="798" y="737" on="0"/>
        <pt x="798" y="729" on="0"/>
        <pt x="788" y="729" on="1"/>
        <pt x="781" y="729" on="1"/>
        <pt x="757" y="733" on="0"/>
        <pt x="662" y="796" on="0"/>
      </contour>
    </TTGlyph>
    <TTGlyph name="Aring" xMin="-17" yMin="-57" xMax="855" yMax="848">
      <contour>
        <pt x="477" y="-49" on="1"/>
        <pt x="475" y="-57" on="0"/>
        <pt x="436" y="-57" on="0"/>
        <pt x="378" y="-12" on="0"/>
        <pt x="378" y="5" on="1"/>
        <pt x="378" y="36" on="0"/>
        <pt x="476" y="208" on="0"/>
        <pt x="476" y="234" on="1"/>
        <pt x="476" y="269" on="0"/>
        <pt x="340" y="269" on="1"/>
        <pt x="320" y="269" on="0"/>
        <pt x="278" y="267" on="1"/>
        <pt x="240" y="217" on="1"/>
        <pt x="170" y="123" on="0"/>
        <pt x="106" y="-16" on="1"/>
        <pt x="95" y="-41" on="0"/>
        <pt x="-17" y="-41" on="0"/>
        <pt x="-17" y="-25" on="1"/>
        <pt x="-17" y="-14" on="0"/>
        <pt x="108" y="157" on="0"/>
        <pt x="194" y="261" on="1"/>
        <pt x="179" y="259" on="0"/>
        <pt x="133" y="255" on="0"/>
        <pt x="108" y="252" on="0"/>
        <pt x="107" y="252" on="1"/>
        <pt x="99" y="252" on="0"/>
        <pt x="98" y="278" on="0"/>
        <pt x="146" y="322" on="0"/>
        <pt x="175" y="334" on="0"/>
        <pt x="257" y="336" on="1"/>
        <pt x="271" y="352" on="1"/>
        <pt x="575" y="703" on="0"/>
        <pt x="693" y="703" on="1"/>
        <pt x="716" y="704" on="1"/>
        <pt x="785" y="704" on="0"/>
        <pt x="785" y="671" on="1"/>
        <pt x="785" y="665" on="0"/>
        <pt x="772" y="639" on="1"/>
        <pt x="727" y="549" on="1"/>
        <pt x="695" y="485" on="0"/>
        <pt x="665" y="419" on="1"/>
        <pt x="503" y="62" on="0"/>
      </contour>
      <contour>
        <pt x="583" y="558" on="1"/>
        <pt x="553" y="558" on="0"/>
        <pt x="415" y="431" on="0"/>
        <pt x="334" y="336" on="1"/>
        <pt x="392" y="335" on="0"/>
        <pt x="443" y="334" on="1"/>
        <pt x="483" y="334" on="0"/>
        <pt x="561" y="428" on="0"/>
        <pt x="600" y="524" on="0"/>
        <pt x="600" y="558" on="0"/>
      </contour>
      <contour>
        <pt x="813" y="799" on="1"/>
        <pt x="813" y="815" on="0"/>
        <pt x="775" y="815" on="0"/>
        <pt x="749" y="794" on="0"/>
        <pt x="749" y="782" on="1"/>
        <pt x="749" y="765" on="0"/>
        <pt x="789" y="765" on="0"/>
        <pt x="813" y="787" on="0"/>
      </contour>
      <contour>
        <pt x="708" y="771" on="1"/>
        <pt x="708" y="803" on="0"/>
        <pt x="769" y="848" on="0"/>
        <pt x="825" y="848" on="0"/>
        <pt x="855" y="827" on="0"/>
        <pt x="855" y="782" on="0"/>
        <pt x="797" y="733" on="0"/>
        <pt x="737" y="733" on="0"/>
        <pt x="708" y="754" on="0"/>
      </contour>
    </TTGlyph>
    <TTGlyph name="Atilde" xMin="-17" yMin="-57" xMax="856" yMax="822">
      <contour>
        <pt x="763" y="806" on="1"/>
        <pt x="849" y="812" on="1"/>
        <pt x="856" y="812" on="0"/>
        <pt x="856" y="801" on="0"/>
        <pt x="844" y="785" on="0"/>
        <pt x="815" y="767" on="0"/>
        <pt x="794" y="759" on="1"/>
        <pt x="746" y="740" on="0"/>
        <pt x="578" y="740" on="0"/>
        <pt x="578" y="761" on="1"/>
        <pt x="578" y="774" on="0"/>
        <pt x="635" y="822" on="0"/>
        <pt x="652" y="822" on="1"/>
        <pt x="688" y="806" on="0"/>
      </contour>
      <contour>
        <pt x="107" y="252" on="1"/>
        <pt x="100" y="252" on="0"/>
        <pt x="98" y="261" on="1"/>
        <pt x="98" y="278" on="0"/>
        <pt x="146" y="322" on="0"/>
        <pt x="175" y="334" on="0"/>
        <pt x="257" y="336" on="1"/>
        <pt x="271" y="352" on="1"/>
        <pt x="575" y="703" on="0"/>
        <pt x="693" y="703" on="1"/>
        <pt x="703" y="704" on="0"/>
        <pt x="716" y="704" on="1"/>
        <pt x="785" y="704" on="0"/>
        <pt x="785" y="671" on="1"/>
        <pt x="785" y="665" on="0"/>
        <pt x="772" y="639" on="1"/>
        <pt x="727" y="549" on="1"/>
        <pt x="695" y="485" on="0"/>
        <pt x="665" y="419" on="1"/>
        <pt x="503" y="62" on="0"/>
        <pt x="477" y="-49" on="1"/>
        <pt x="477" y="-57" on="0"/>
        <pt x="436" y="-57" on="0"/>
        <pt x="378" y="-12" on="0"/>
        <pt x="378" y="5" on="1"/>
        <pt x="378" y="36" on="0"/>
        <pt x="476" y="208" on="0"/>
        <pt x="476" y="234" on="1"/>
        <pt x="476" y="269" on="0"/>
        <pt x="340" y="269" on="1"/>
        <pt x="320" y="269" on="0"/>
        <pt x="278" y="267" on="1"/>
        <pt x="240" y="217" on="1"/>
        <pt x="170" y="123" on="0"/>
        <pt x="106" y="-16" on="1"/>
        <pt x="95" y="-41" on="0"/>
        <pt x="-17" y="-41" on="0"/>
        <pt x="-17" y="-25" on="1"/>
        <pt x="-17" y="-14" on="0"/>
        <pt x="108" y="157" on="0"/>
        <pt x="194" y="261" on="1"/>
        <pt x="179" y="259" on="0"/>
        <pt x="133" y="255" on="0"/>
        <pt x="108" y="252" on="0"/>
      </contour>
      <contour>
        <pt x="561" y="428" on="0"/>
        <pt x="600" y="524" on="0"/>
        <pt x="600" y="558" on="0"/>
        <pt x="583" y="558" on="1"/>
        <pt x="553" y="558" on="0"/>
        <pt x="415" y="431" on="0"/>
        <pt x="334" y="336" on="1"/>
        <pt x="443" y="334" on="1"/>
        <pt x="483" y="334" on="0"/>
      </contour>
    </TTGlyph>
    <TTGlyph name="B" xMin="-26" yMin="-44" xMax="741" yMax="702">
      <contour>
        <pt x="454" y="29" on="0"/>
        <pt x="312" y="-22" on="0"/>
        <pt x="178" y="-22" on="0"/>
        <pt x="121" y="-9" on="0"/>
        <pt x="116" y="-9" on="1"/>
        <pt x="106" y="-9" on="0"/>
        <pt x="96" y="-15" on="1"/>
        <pt x="64" y="-44" on="0"/>
        <pt x="-26" y="-44" on="0"/>
        <pt x="-26" y="-28" on="1"/>
        <pt x="-26" y="-17" on="0"/>
        <pt x="113" y="223" on="0"/>
        <pt x="282" y="517" on="0"/>
        <pt x="331" y="627" on="0"/>
        <pt x="331" y="667" on="1"/>
        <pt x="331" y="675" on="1"/>
        <pt x="331" y="702" on="0"/>
        <pt x="486" y="702" on="1"/>
        <pt x="628" y="702" on="0"/>
        <pt x="668" y="687" on="1"/>
        <pt x="720" y="667" on="0"/>
        <pt x="733" y="634" on="1"/>
        <pt x="741" y="614" on="0"/>
        <pt x="741" y="586" on="1"/>
        <pt x="741" y="541" on="0"/>
        <pt x="708" y="501" on="1"/>
        <pt x="647" y="429" on="0"/>
        <pt x="550" y="406" on="1"/>
        <pt x="513" y="397" on="0"/>
        <pt x="499" y="385" on="0"/>
        <pt x="499" y="372" on="0"/>
        <pt x="528" y="353" on="0"/>
        <pt x="563" y="331" on="0"/>
        <pt x="592" y="281" on="0"/>
        <pt x="592" y="204" on="0"/>
        <pt x="543" y="110" on="0"/>
      </contour>
      <contour>
        <pt x="440" y="159" on="0"/>
        <pt x="473" y="231" on="0"/>
        <pt x="473" y="280" on="0"/>
        <pt x="458" y="315" on="0"/>
        <pt x="438" y="333" on="0"/>
        <pt x="424" y="338" on="1"/>
        <pt x="403" y="346" on="0"/>
        <pt x="382" y="346" on="1"/>
        <pt x="372" y="346" on="1"/>
        <pt x="359" y="346" on="0"/>
        <pt x="359" y="355" on="1"/>
        <pt x="359" y="376" on="0"/>
        <pt x="390" y="423" on="0"/>
        <pt x="410" y="423" on="1"/>
        <pt x="491" y="423" on="0"/>
        <pt x="619" y="531" on="0"/>
        <pt x="619" y="592" on="1"/>
        <pt x="619" y="645" on="0"/>
        <pt x="549" y="645" on="1"/>
        <pt x="491" y="645" on="0"/>
        <pt x="468" y="617" on="1"/>
        <pt x="405" y="539" on="0"/>
        <pt x="167" y="114" on="0"/>
        <pt x="167" y="77" on="1"/>
        <pt x="167" y="62" on="0"/>
        <pt x="200" y="40" on="0"/>
        <pt x="287" y="40" on="0"/>
        <pt x="382" y="89" on="0"/>
      </contour>
    </TTGlyph>
    <TTGlyph name="C" xMin="69" yMin="-24" xMax="751" yMax="701">
      <contour>
        <pt x="234" y="-24" on="1"/>
        <pt x="69" y="-24" on="0"/>
        <pt x="69" y="144" on="1"/>
        <pt x="69" y="193" on="0"/>
        <pt x="116" y="333" on="0"/>
        <pt x="208" y="484" on="0"/>
        <pt x="324" y="614" on="0"/>
        <pt x="480" y="698" on="0"/>
        <pt x="559" y="698" on="1"/>
        <pt x="596" y="698" on="0"/>
        <pt x="636" y="681" on="0"/>
        <pt x="639" y="681" on="0"/>
        <pt x="686" y="701" on="0"/>
        <pt x="751" y="701" on="0"/>
        <pt x="751" y="664" on="0"/>
        <pt x="674" y="540" on="0"/>
        <pt x="566" y="426" on="0"/>
        <pt x="534" y="426" on="1"/>
        <pt x="530" y="425" on="0"/>
        <pt x="524" y="425" on="1"/>
        <pt x="505" y="425" on="0"/>
        <pt x="505" y="436" on="1"/>
        <pt x="505" y="438" on="0"/>
        <pt x="533" y="479" on="0"/>
        <pt x="561" y="548" on="0"/>
        <pt x="561" y="590" on="0"/>
        <pt x="557" y="608" on="0"/>
        <pt x="534" y="632" on="0"/>
        <pt x="514" y="632" on="1"/>
        <pt x="460" y="632" on="0"/>
        <pt x="311" y="468" on="0"/>
        <pt x="204" y="247" on="0"/>
        <pt x="204" y="170" on="1"/>
        <pt x="204" y="78" on="0"/>
        <pt x="288" y="78" on="1"/>
        <pt x="388" y="78" on="0"/>
        <pt x="482" y="207" on="1"/>
        <pt x="486" y="215" on="0"/>
        <pt x="495" y="215" on="0"/>
        <pt x="500" y="214" on="0"/>
        <pt x="509" y="203" on="0"/>
        <pt x="509" y="173" on="0"/>
        <pt x="468" y="103" on="0"/>
        <pt x="400" y="29" on="0"/>
        <pt x="292" y="-24" on="0"/>
      </contour>
    </TTGlyph>
    <TTGlyph name="Ccedilla" xMin="69" yMin="-157" xMax="751" yMax="701">
      <contour>
        <pt x="209" y="-57" on="1"/>
        <pt x="209" y="-68" on="0"/>
        <pt x="234" y="-90" on="0"/>
        <pt x="234" y="-125" on="0"/>
        <pt x="195" y="-157" on="0"/>
        <pt x="136" y="-157" on="0"/>
        <pt x="106" y="-134" on="0"/>
        <pt x="106" y="-115" on="0"/>
        <pt x="113" y="-115" on="1"/>
        <pt x="124" y="-120" on="1"/>
        <pt x="135" y="-125" on="0"/>
        <pt x="164" y="-125" on="0"/>
        <pt x="189" y="-109" on="0"/>
        <pt x="189" y="-86" on="0"/>
        <pt x="167" y="-67" on="0"/>
        <pt x="167" y="-60" on="1"/>
        <pt x="167" y="-45" on="0"/>
        <pt x="199" y="-29" on="1"/>
        <pt x="202" y="-28" on="0"/>
        <pt x="202" y="-24" on="0"/>
        <pt x="199" y="-21" on="1"/>
        <pt x="69" y="-4" on="0"/>
        <pt x="69" y="144" on="1"/>
        <pt x="69" y="193" on="0"/>
        <pt x="116" y="333" on="0"/>
        <pt x="208" y="484" on="0"/>
        <pt x="324" y="614" on="0"/>
        <pt x="480" y="698" on="0"/>
        <pt x="559" y="698" on="1"/>
        <pt x="596" y="698" on="0"/>
        <pt x="636" y="681" on="0"/>
        <pt x="639" y="681" on="0"/>
        <pt x="686" y="701" on="0"/>
        <pt x="751" y="701" on="0"/>
        <pt x="751" y="664" on="0"/>
        <pt x="674" y="540" on="0"/>
        <pt x="566" y="426" on="0"/>
        <pt x="534" y="426" on="1"/>
        <pt x="530" y="425" on="0"/>
        <pt x="524" y="425" on="1"/>
        <pt x="505" y="425" on="0"/>
        <pt x="505" y="436" on="1"/>
        <pt x="505" y="438" on="0"/>
        <pt x="533" y="479" on="0"/>
        <pt x="561" y="548" on="0"/>
        <pt x="561" y="590" on="0"/>
        <pt x="557" y="608" on="0"/>
        <pt x="534" y="632" on="0"/>
        <pt x="514" y="632" on="1"/>
        <pt x="460" y="632" on="0"/>
        <pt x="311" y="468" on="0"/>
        <pt x="204" y="247" on="0"/>
        <pt x="204" y="170" on="1"/>
        <pt x="204" y="78" on="0"/>
        <pt x="288" y="78" on="1"/>
        <pt x="388" y="78" on="0"/>
        <pt x="482" y="207" on="1"/>
        <pt x="486" y="215" on="0"/>
        <pt x="495" y="215" on="0"/>
        <pt x="500" y="214" on="0"/>
        <pt x="509" y="203" on="0"/>
        <pt x="509" y="193" on="1"/>
        <pt x="509" y="144" on="0"/>
        <pt x="354" y="-16" on="0"/>
        <pt x="250" y="-23" on="1"/>
        <pt x="209" y="-37" on="0"/>
      </contour>
    </TTGlyph>
    <TTGlyph name="D" xMin="-28" yMin="-44" xMax="744" yMax="704">
      <contour>
        <pt x="232" y="-23" on="1"/>
        <pt x="179" y="-23" on="0"/>
        <pt x="149" y="-16" on="0"/>
        <pt x="128" y="-11" on="0"/>
        <pt x="122" y="-9" on="0"/>
        <pt x="116" y="-9" on="1"/>
        <pt x="104" y="-9" on="0"/>
        <pt x="94" y="-15" on="1"/>
        <pt x="59" y="-44" on="0"/>
        <pt x="2" y="-44" on="1"/>
        <pt x="-28" y="-44" on="0"/>
        <pt x="-28" y="-17" on="0"/>
        <pt x="111" y="223" on="0"/>
        <pt x="280" y="517" on="0"/>
        <pt x="329" y="627" on="0"/>
        <pt x="329" y="667" on="1"/>
        <pt x="329" y="675" on="1"/>
        <pt x="329" y="704" on="0"/>
        <pt x="496" y="704" on="1"/>
        <pt x="744" y="704" on="0"/>
        <pt x="744" y="535" on="1"/>
        <pt x="744" y="413" on="0"/>
        <pt x="661" y="266" on="1"/>
        <pt x="618" y="189" on="0"/>
        <pt x="502" y="61" on="0"/>
        <pt x="329" y="-23" on="0"/>
      </contour>
      <contour>
        <pt x="598" y="391" on="0"/>
        <pt x="637" y="516" on="0"/>
        <pt x="637" y="601" on="0"/>
        <pt x="588" y="645" on="0"/>
        <pt x="530" y="645" on="1"/>
        <pt x="490" y="645" on="0"/>
        <pt x="466" y="617" on="1"/>
        <pt x="403" y="538" on="0"/>
        <pt x="165" y="113" on="0"/>
        <pt x="165" y="77" on="1"/>
        <pt x="165" y="37" on="0"/>
        <pt x="250" y="37" on="1"/>
        <pt x="310" y="37" on="0"/>
        <pt x="432" y="121" on="0"/>
        <pt x="524" y="248" on="0"/>
      </contour>
    </TTGlyph>
    <TTGlyph name="E" xMin="-27" yMin="-44" xMax="768" yMax="707">
      <contour>
        <pt x="466" y="330" on="1"/>
        <pt x="381" y="333" on="1"/>
        <pt x="318" y="333" on="0"/>
        <pt x="284" y="292" on="1"/>
        <pt x="260" y="262" on="0"/>
        <pt x="181" y="126" on="0"/>
        <pt x="181" y="86" on="1"/>
        <pt x="181" y="49" on="0"/>
        <pt x="254" y="49" on="1"/>
        <pt x="299" y="49" on="0"/>
        <pt x="350" y="66" on="1"/>
        <pt x="453" y="100" on="0"/>
        <pt x="513" y="196" on="1"/>
        <pt x="520" y="205" on="0"/>
        <pt x="554" y="205" on="0"/>
        <pt x="554" y="166" on="0"/>
        <pt x="490" y="42" on="0"/>
        <pt x="465" y="11" on="1"/>
        <pt x="452" y="-5" on="0"/>
        <pt x="377" y="-9" on="0"/>
        <pt x="300" y="-9" on="1"/>
        <pt x="202" y="-9" on="1"/>
        <pt x="145" y="-8" on="1"/>
        <pt x="118" y="-6" on="1"/>
        <pt x="117" y="-6" on="0"/>
        <pt x="105" y="-6" on="0"/>
        <pt x="96" y="-15" on="1"/>
        <pt x="63" y="-44" on="0"/>
        <pt x="2" y="-44" on="1"/>
        <pt x="-27" y="-44" on="0"/>
        <pt x="-27" y="-31" on="1"/>
        <pt x="-27" y="-28" on="1"/>
        <pt x="-27" y="-17" on="0"/>
        <pt x="112" y="222" on="0"/>
        <pt x="282" y="516" on="0"/>
        <pt x="330" y="625" on="0"/>
        <pt x="330" y="664" on="1"/>
        <pt x="330" y="675" on="1"/>
        <pt x="330" y="692" on="0"/>
        <pt x="543" y="692" on="1"/>
        <pt x="613" y="692" on="0"/>
        <pt x="665" y="690" on="1"/>
        <pt x="680" y="707" on="0"/>
        <pt x="742" y="707" on="1"/>
        <pt x="768" y="707" on="0"/>
        <pt x="768" y="694" on="1"/>
        <pt x="768" y="671" on="0"/>
        <pt x="677" y="532" on="0"/>
        <pt x="643" y="507" on="1"/>
        <pt x="632" y="498" on="0"/>
        <pt x="598" y="498" on="0"/>
        <pt x="598" y="505" on="1"/>
        <pt x="598" y="508" on="0"/>
        <pt x="601" y="513" on="1"/>
        <pt x="617" y="544" on="0"/>
        <pt x="617" y="583" on="1"/>
        <pt x="617" y="638" on="0"/>
        <pt x="541" y="638" on="1"/>
        <pt x="495" y="638" on="0"/>
        <pt x="442" y="590" on="0"/>
        <pt x="390" y="504" on="0"/>
        <pt x="365" y="442" on="0"/>
        <pt x="365" y="434" on="1"/>
        <pt x="365" y="410" on="0"/>
        <pt x="412" y="399" on="0"/>
        <pt x="482" y="399" on="1"/>
        <pt x="556" y="402" on="1"/>
        <pt x="566" y="402" on="0"/>
        <pt x="566" y="387" on="0"/>
        <pt x="545" y="352" on="0"/>
        <pt x="534" y="345" on="1"/>
        <pt x="512" y="330" on="0"/>
      </contour>
    </TTGlyph>
    <TTGlyph name="Eacute" xMin="-27" yMin="-44" xMax="768" yMax="846">
      <contour>
        <pt x="466" y="330" on="1"/>
        <pt x="381" y="333" on="1"/>
        <pt x="318" y="333" on="0"/>
        <pt x="284" y="292" on="1"/>
        <pt x="260" y="262" on="0"/>
        <pt x="181" y="126" on="0"/>
        <pt x="181" y="86" on="1"/>
        <pt x="181" y="49" on="0"/>
        <pt x="254" y="49" on="1"/>
        <pt x="299" y="49" on="0"/>
        <pt x="350" y="66" on="1"/>
        <pt x="453" y="100" on="0"/>
        <pt x="513" y="196" on="1"/>
        <pt x="520" y="205" on="0"/>
        <pt x="554" y="205" on="0"/>
        <pt x="554" y="166" on="0"/>
        <pt x="490" y="42" on="0"/>
        <pt x="465" y="11" on="1"/>
        <pt x="452" y="-5" on="0"/>
        <pt x="377" y="-9" on="0"/>
        <pt x="300" y="-9" on="1"/>
        <pt x="202" y="-9" on="1"/>
        <pt x="145" y="-8" on="1"/>
        <pt x="118" y="-6" on="1"/>
        <pt x="117" y="-6" on="0"/>
        <pt x="105" y="-6" on="0"/>
        <pt x="96" y="-15" on="1"/>
        <pt x="63" y="-44" on="0"/>
        <pt x="2" y="-44" on="1"/>
        <pt x="-27" y="-44" on="0"/>
        <pt x="-27" y="-31" on="1"/>
        <pt x="-27" y="-28" on="1"/>
        <pt x="-27" y="-17" on="0"/>
        <pt x="112" y="222" on="0"/>
        <pt x="282" y="516" on="0"/>
        <pt x="330" y="625" on="0"/>
        <pt x="330" y="664" on="1"/>
        <pt x="330" y="675" on="1"/>
        <pt x="330" y="692" on="0"/>
        <pt x="543" y="692" on="1"/>
        <pt x="613" y="692" on="0"/>
        <pt x="665" y="690" on="1"/>
        <pt x="680" y="707" on="0"/>
        <pt x="742" y="707" on="1"/>
        <pt x="768" y="707" on="0"/>
        <pt x="768" y="694" on="1"/>
        <pt x="768" y="671" on="0"/>
        <pt x="677" y="532" on="0"/>
        <pt x="643" y="507" on="1"/>
        <pt x="632" y="498" on="0"/>
        <pt x="598" y="498" on="0"/>
        <pt x="598" y="505" on="1"/>
        <pt x="598" y="508" on="0"/>
        <pt x="601" y="513" on="1"/>
        <pt x="617" y="544" on="0"/>
        <pt x="617" y="583" on="1"/>
        <pt x="617" y="638" on="0"/>
        <pt x="541" y="638" on="1"/>
        <pt x="495" y="638" on="0"/>
        <pt x="442" y="590" on="0"/>
        <pt x="390" y="504" on="0"/>
        <pt x="365" y="442" on="0"/>
        <pt x="365" y="434" on="1"/>
        <pt x="365" y="410" on="0"/>
        <pt x="412" y="399" on="0"/>
        <pt x="482" y="399" on="1"/>
        <pt x="556" y="402" on="1"/>
        <pt x="566" y="402" on="0"/>
        <pt x="566" y="387" on="0"/>
        <pt x="545" y="352" on="0"/>
        <pt x="534" y="345" on="1"/>
        <pt x="512" y="330" on="0"/>
      </contour>
      <contour>
        <pt x="669" y="815" on="0"/>
        <pt x="669" y="783" on="0"/>
        <pt x="562" y="734" on="0"/>
        <pt x="521" y="734" on="0"/>
        <pt x="521" y="742" on="1"/>
        <pt x="521" y="746" on="0"/>
        <pt x="581" y="806" on="0"/>
        <pt x="595" y="824" on="0"/>
        <pt x="602" y="834" on="0"/>
        <pt x="606" y="839" on="0"/>
        <pt x="608" y="842" on="1"/>
        <pt x="613" y="846" on="0"/>
        <pt x="630" y="846" on="0"/>
      </contour>
    </TTGlyph>
    <TTGlyph name="Ecircumflex" xMin="-27" yMin="-44" xMax="768" yMax="848">
      <contour>
        <pt x="466" y="330" on="1"/>
        <pt x="381" y="333" on="1"/>
        <pt x="318" y="333" on="0"/>
        <pt x="284" y="292" on="1"/>
        <pt x="260" y="262" on="0"/>
        <pt x="181" y="126" on="0"/>
        <pt x="181" y="86" on="1"/>
        <pt x="181" y="49" on="0"/>
        <pt x="254" y="49" on="1"/>
        <pt x="299" y="49" on="0"/>
        <pt x="350" y="66" on="1"/>
        <pt x="453" y="100" on="0"/>
        <pt x="513" y="196" on="1"/>
        <pt x="520" y="205" on="0"/>
        <pt x="554" y="205" on="0"/>
        <pt x="554" y="166" on="0"/>
        <pt x="490" y="42" on="0"/>
        <pt x="465" y="11" on="1"/>
        <pt x="452" y="-5" on="0"/>
        <pt x="377" y="-9" on="0"/>
        <pt x="300" y="-9" on="1"/>
        <pt x="202" y="-9" on="1"/>
        <pt x="145" y="-8" on="1"/>
        <pt x="118" y="-6" on="1"/>
        <pt x="117" y="-6" on="0"/>
        <pt x="105" y="-6" on="0"/>
        <pt x="96" y="-15" on="1"/>
        <pt x="63" y="-44" on="0"/>
        <pt x="2" y="-44" on="1"/>
        <pt x="-27" y="-44" on="0"/>
        <pt x="-27" y="-31" on="1"/>
        <pt x="-27" y="-28" on="1"/>
        <pt x="-27" y="-17" on="0"/>
        <pt x="112" y="222" on="0"/>
        <pt x="282" y="516" on="0"/>
        <pt x="330" y="625" on="0"/>
        <pt x="330" y="664" on="1"/>
        <pt x="330" y="675" on="1"/>
        <pt x="330" y="692" on="0"/>
        <pt x="543" y="692" on="1"/>
        <pt x="613" y="692" on="0"/>
        <pt x="665" y="690" on="1"/>
        <pt x="680" y="707" on="0"/>
        <pt x="742" y="707" on="1"/>
        <pt x="768" y="707" on="0"/>
        <pt x="768" y="694" on="1"/>
        <pt x="768" y="671" on="0"/>
        <pt x="677" y="532" on="0"/>
        <pt x="643" y="507" on="1"/>
        <pt x="632" y="498" on="0"/>
        <pt x="598" y="498" on="0"/>
        <pt x="598" y="505" on="1"/>
        <pt x="598" y="508" on="0"/>
        <pt x="601" y="513" on="1"/>
        <pt x="617" y="544" on="0"/>
        <pt x="617" y="583" on="1"/>
        <pt x="617" y="638" on="0"/>
        <pt x="541" y="638" on="1"/>
        <pt x="495" y="638" on="0"/>
        <pt x="442" y="590" on="0"/>
        <pt x="390" y="504" on="0"/>
        <pt x="365" y="442" on="0"/>
        <pt x="365" y="434" on="1"/>
        <pt x="365" y="410" on="0"/>
        <pt x="412" y="399" on="0"/>
        <pt x="482" y="399" on="1"/>
        <pt x="556" y="402" on="1"/>
        <pt x="566" y="402" on="0"/>
        <pt x="566" y="387" on="0"/>
        <pt x="545" y="352" on="0"/>
        <pt x="534" y="345" on="1"/>
        <pt x="512" y="330" on="0"/>
      </contour>
      <contour>
        <pt x="674" y="837" on="1"/>
        <pt x="651" y="747" on="1"/>
        <pt x="651" y="734" on="0"/>
        <pt x="642" y="734" on="1"/>
        <pt x="622" y="734" on="0"/>
        <pt x="601" y="775" on="1"/>
        <pt x="598" y="781" on="0"/>
        <pt x="588" y="781" on="0"/>
        <pt x="582" y="777" on="1"/>
        <pt x="528" y="741" on="0"/>
        <pt x="468" y="741" on="0"/>
        <pt x="468" y="749" on="1"/>
        <pt x="468" y="752" on="0"/>
        <pt x="478" y="762" on="1"/>
        <pt x="524" y="808" on="0"/>
        <pt x="547" y="840" on="0"/>
        <pt x="557" y="847" on="0"/>
        <pt x="582" y="847" on="0"/>
        <pt x="596" y="833" on="1"/>
        <pt x="601" y="829" on="0"/>
        <pt x="612" y="829" on="0"/>
        <pt x="642" y="848" on="0"/>
        <pt x="664" y="848" on="1"/>
        <pt x="674" y="847" on="0"/>
      </contour>
    </TTGlyph>
    <TTGlyph name="Edieresis" xMin="-27" yMin="-44" xMax="768" yMax="824">
      <contour>
        <pt x="466" y="330" on="1"/>
        <pt x="381" y="333" on="1"/>
        <pt x="318" y="333" on="0"/>
        <pt x="284" y="292" on="1"/>
        <pt x="260" y="262" on="0"/>
        <pt x="181" y="126" on="0"/>
        <pt x="181" y="86" on="1"/>
        <pt x="181" y="49" on="0"/>
        <pt x="254" y="49" on="1"/>
        <pt x="299" y="49" on="0"/>
        <pt x="350" y="66" on="1"/>
        <pt x="453" y="100" on="0"/>
        <pt x="513" y="196" on="1"/>
        <pt x="520" y="205" on="0"/>
        <pt x="554" y="205" on="0"/>
        <pt x="554" y="166" on="0"/>
        <pt x="490" y="42" on="0"/>
        <pt x="465" y="11" on="1"/>
        <pt x="452" y="-5" on="0"/>
        <pt x="377" y="-9" on="0"/>
        <pt x="300" y="-9" on="1"/>
        <pt x="202" y="-9" on="1"/>
        <pt x="145" y="-8" on="1"/>
        <pt x="118" y="-6" on="1"/>
        <pt x="117" y="-6" on="0"/>
        <pt x="105" y="-6" on="0"/>
        <pt x="96" y="-15" on="1"/>
        <pt x="63" y="-44" on="0"/>
        <pt x="2" y="-44" on="1"/>
        <pt x="-27" y="-44" on="0"/>
        <pt x="-27" y="-31" on="1"/>
        <pt x="-27" y="-28" on="1"/>
        <pt x="-27" y="-17" on="0"/>
        <pt x="112" y="222" on="0"/>
        <pt x="282" y="516" on="0"/>
        <pt x="330" y="625" on="0"/>
        <pt x="330" y="664" on="1"/>
        <pt x="330" y="675" on="1"/>
        <pt x="330" y="692" on="0"/>
        <pt x="543" y="692" on="1"/>
        <pt x="613" y="692" on="0"/>
        <pt x="665" y="690" on="1"/>
        <pt x="680" y="707" on="0"/>
        <pt x="742" y="707" on="1"/>
        <pt x="768" y="707" on="0"/>
        <pt x="768" y="694" on="1"/>
        <pt x="768" y="671" on="0"/>
        <pt x="677" y="532" on="0"/>
        <pt x="643" y="507" on="1"/>
        <pt x="632" y="498" on="0"/>
        <pt x="598" y="498" on="0"/>
        <pt x="598" y="505" on="1"/>
        <pt x="598" y="508" on="0"/>
        <pt x="601" y="513" on="1"/>
        <pt x="617" y="544" on="0"/>
        <pt x="617" y="583" on="1"/>
        <pt x="617" y="638" on="0"/>
        <pt x="541" y="638" on="1"/>
        <pt x="495" y="638" on="0"/>
        <pt x="442" y="590" on="0"/>
        <pt x="390" y="504" on="0"/>
        <pt x="365" y="442" on="0"/>
        <pt x="365" y="434" on="1"/>
        <pt x="365" y="410" on="0"/>
        <pt x="412" y="399" on="0"/>
        <pt x="482" y="399" on="1"/>
        <pt x="556" y="402" on="1"/>
        <pt x="566" y="402" on="0"/>
        <pt x="566" y="387" on="0"/>
        <pt x="545" y="352" on="0"/>
        <pt x="534" y="345" on="1"/>
        <pt x="512" y="330" on="0"/>
      </contour>
      <contour>
        <pt x="506" y="824" on="1"/>
        <pt x="543" y="824" on="0"/>
        <pt x="543" y="792" on="1"/>
        <pt x="543" y="776" on="0"/>
        <pt x="501" y="740" on="0"/>
        <pt x="479" y="740" on="1"/>
        <pt x="436" y="740" on="0"/>
        <pt x="436" y="769" on="1"/>
        <pt x="436" y="789" on="0"/>
        <pt x="479" y="824" on="0"/>
      </contour>
      <contour>
        <pt x="691" y="824" on="1"/>
        <pt x="728" y="824" on="0"/>
        <pt x="728" y="792" on="1"/>
        <pt x="728" y="776" on="0"/>
        <pt x="687" y="740" on="0"/>
        <pt x="664" y="740" on="1"/>
        <pt x="621" y="740" on="0"/>
        <pt x="621" y="769" on="1"/>
        <pt x="621" y="789" on="0"/>
        <pt x="664" y="824" on="0"/>
      </contour>
    </TTGlyph>
    <TTGlyph name="Egrave" xMin="-27" yMin="-44" xMax="768" yMax="855">
      <contour>
        <pt x="466" y="330" on="1"/>
        <pt x="381" y="333" on="1"/>
        <pt x="318" y="333" on="0"/>
        <pt x="284" y="292" on="1"/>
        <pt x="260" y="262" on="0"/>
        <pt x="181" y="126" on="0"/>
        <pt x="181" y="86" on="1"/>
        <pt x="181" y="49" on="0"/>
        <pt x="254" y="49" on="1"/>
        <pt x="299" y="49" on="0"/>
        <pt x="350" y="66" on="1"/>
        <pt x="453" y="100" on="0"/>
        <pt x="513" y="196" on="1"/>
        <pt x="520" y="205" on="0"/>
        <pt x="554" y="205" on="0"/>
        <pt x="554" y="166" on="0"/>
        <pt x="490" y="42" on="0"/>
        <pt x="465" y="11" on="1"/>
        <pt x="452" y="-5" on="0"/>
        <pt x="377" y="-9" on="0"/>
        <pt x="300" y="-9" on="1"/>
        <pt x="202" y="-9" on="1"/>
        <pt x="145" y="-8" on="1"/>
        <pt x="118" y="-6" on="1"/>
        <pt x="117" y="-6" on="0"/>
        <pt x="105" y="-6" on="0"/>
        <pt x="96" y="-15" on="1"/>
        <pt x="63" y="-44" on="0"/>
        <pt x="2" y="-44" on="1"/>
        <pt x="-27" y="-44" on="0"/>
        <pt x="-27" y="-31" on="1"/>
        <pt x="-27" y="-28" on="1"/>
        <pt x="-27" y="-17" on="0"/>
        <pt x="112" y="222" on="0"/>
        <pt x="282" y="516" on="0"/>
        <pt x="330" y="625" on="0"/>
        <pt x="330" y="664" on="1"/>
        <pt x="330" y="675" on="1"/>
        <pt x="330" y="692" on="0"/>
        <pt x="543" y="692" on="1"/>
        <pt x="613" y="692" on="0"/>
        <pt x="665" y="690" on="1"/>
        <pt x="680" y="707" on="0"/>
        <pt x="742" y="707" on="1"/>
        <pt x="768" y="707" on="0"/>
        <pt x="768" y="694" on="1"/>
        <pt x="768" y="671" on="0"/>
        <pt x="677" y="532" on="0"/>
        <pt x="643" y="507" on="1"/>
        <pt x="632" y="498" on="0"/>
        <pt x="598" y="498" on="0"/>
        <pt x="598" y="505" on="1"/>
        <pt x="598" y="508" on="0"/>
        <pt x="601" y="513" on="1"/>
        <pt x="617" y="544" on="0"/>
        <pt x="617" y="583" on="1"/>
        <pt x="617" y="638" on="0"/>
        <pt x="541" y="638" on="1"/>
        <pt x="495" y="638" on="0"/>
        <pt x="442" y="590" on="0"/>
        <pt x="390" y="504" on="0"/>
        <pt x="365" y="442" on="0"/>
        <pt x="365" y="434" on="1"/>
        <pt x="365" y="410" on="0"/>
        <pt x="412" y="399" on="0"/>
        <pt x="482" y="399" on="1"/>
        <pt x="556" y="402" on="1"/>
        <pt x="566" y="402" on="0"/>
        <pt x="566" y="387" on="0"/>
        <pt x="545" y="352" on="0"/>
        <pt x="534" y="345" on="1"/>
        <pt x="512" y="330" on="0"/>
      </contour>
      <contour>
        <pt x="510" y="831" on="0"/>
        <pt x="552" y="855" on="0"/>
        <pt x="569" y="855" on="0"/>
        <pt x="576" y="850" on="0"/>
        <pt x="579" y="845" on="0"/>
        <pt x="582" y="838" on="1"/>
        <pt x="588" y="827" on="1"/>
        <pt x="598" y="809" on="0"/>
        <pt x="613" y="788" on="1"/>
        <pt x="646" y="740" on="0"/>
        <pt x="646" y="732" on="0"/>
        <pt x="636" y="732" on="1"/>
        <pt x="629" y="732" on="1"/>
        <pt x="605" y="736" on="0"/>
        <pt x="510" y="799" on="0"/>
      </contour>
    </TTGlyph>
    <TTGlyph name="Eth" xMin="-28" yMin="-44" xMax="744" yMax="704">
      <contour>
        <pt x="92" y="328" on="1"/>
        <pt x="78" y="328" on="0"/>
        <pt x="78" y="338" on="1"/>
        <pt x="78" y="351" on="0"/>
        <pt x="116" y="397" on="0"/>
        <pt x="146" y="397" on="1"/>
        <pt x="211" y="397" on="1"/>
        <pt x="277" y="511" on="0"/>
        <pt x="329" y="627" on="0"/>
        <pt x="329" y="667" on="1"/>
        <pt x="329" y="675" on="1"/>
        <pt x="329" y="704" on="0"/>
        <pt x="496" y="704" on="1"/>
        <pt x="744" y="704" on="0"/>
        <pt x="744" y="535" on="1"/>
        <pt x="744" y="413" on="0"/>
        <pt x="661" y="266" on="1"/>
        <pt x="618" y="189" on="0"/>
        <pt x="502" y="61" on="0"/>
        <pt x="329" y="-23" on="0"/>
        <pt x="232" y="-23" on="1"/>
        <pt x="179" y="-23" on="0"/>
        <pt x="149" y="-16" on="0"/>
        <pt x="128" y="-11" on="0"/>
        <pt x="122" y="-9" on="0"/>
        <pt x="116" y="-9" on="1"/>
        <pt x="104" y="-9" on="0"/>
        <pt x="94" y="-15" on="1"/>
        <pt x="59" y="-44" on="0"/>
        <pt x="2" y="-44" on="1"/>
        <pt x="-28" y="-44" on="0"/>
        <pt x="-28" y="-31" on="1"/>
        <pt x="-28" y="-14" on="0"/>
        <pt x="60" y="135" on="1"/>
        <pt x="80" y="170" on="0"/>
        <pt x="152" y="294" on="0"/>
        <pt x="172" y="328" on="1"/>
      </contour>
      <contour>
        <pt x="325" y="397" on="1"/>
        <pt x="424" y="398" on="1"/>
        <pt x="438" y="398" on="0"/>
        <pt x="438" y="388" on="1"/>
        <pt x="438" y="375" on="0"/>
        <pt x="400" y="329" on="0"/>
        <pt x="370" y="329" on="1"/>
        <pt x="285" y="329" on="1"/>
        <pt x="165" y="113" on="0"/>
        <pt x="165" y="77" on="1"/>
        <pt x="165" y="37" on="0"/>
        <pt x="250" y="37" on="1"/>
        <pt x="310" y="37" on="0"/>
        <pt x="432" y="121" on="0"/>
        <pt x="524" y="248" on="0"/>
        <pt x="598" y="391" on="0"/>
        <pt x="637" y="516" on="0"/>
        <pt x="637" y="601" on="0"/>
        <pt x="588" y="645" on="0"/>
        <pt x="530" y="645" on="1"/>
        <pt x="490" y="645" on="0"/>
        <pt x="466" y="617" on="1"/>
        <pt x="413" y="549" on="0"/>
      </contour>
    </TTGlyph>
    <TTGlyph name="Euro" xMin="86" yMin="-4" xMax="811" yMax="685">
      <contour>
        <pt x="481" y="441" on="1"/>
        <pt x="571" y="443" on="1"/>
        <pt x="583" y="443" on="0"/>
        <pt x="583" y="436" on="1"/>
        <pt x="583" y="425" on="0"/>
        <pt x="552" y="386" on="0"/>
        <pt x="527" y="386" on="1"/>
        <pt x="377" y="387" on="1"/>
        <pt x="353" y="345" on="0"/>
        <pt x="342" y="324" on="1"/>
        <pt x="374" y="323" on="0"/>
        <pt x="414" y="323" on="1"/>
        <pt x="505" y="325" on="1"/>
        <pt x="517" y="325" on="0"/>
        <pt x="517" y="318" on="1"/>
        <pt x="517" y="306" on="0"/>
        <pt x="485" y="268" on="0"/>
        <pt x="460" y="268" on="1"/>
        <pt x="358" y="268" on="0"/>
        <pt x="315" y="269" on="1"/>
        <pt x="271" y="171" on="0"/>
        <pt x="271" y="114" on="1"/>
        <pt x="271" y="52" on="0"/>
        <pt x="362" y="52" on="1"/>
        <pt x="462" y="52" on="0"/>
        <pt x="522" y="102" on="1"/>
        <pt x="537" y="114" on="0"/>
        <pt x="551" y="125" on="0"/>
        <pt x="558" y="125" on="1"/>
        <pt x="571" y="124" on="0"/>
        <pt x="571" y="110" on="1"/>
        <pt x="571" y="77" on="0"/>
        <pt x="517" y="10" on="0"/>
        <pt x="462" y="-4" on="0"/>
        <pt x="367" y="-4" on="1"/>
        <pt x="352" y="-4" on="1"/>
        <pt x="253" y="-4" on="0"/>
        <pt x="153" y="45" on="0"/>
        <pt x="153" y="161" on="0"/>
        <pt x="203" y="270" on="1"/>
        <pt x="97" y="268" on="1"/>
        <pt x="86" y="268" on="0"/>
        <pt x="86" y="275" on="1"/>
        <pt x="86" y="286" on="0"/>
        <pt x="117" y="325" on="0"/>
        <pt x="142" y="325" on="1"/>
        <pt x="231" y="325" on="1"/>
        <pt x="242" y="346" on="0"/>
        <pt x="266" y="388" on="1"/>
        <pt x="164" y="386" on="1"/>
        <pt x="152" y="386" on="0"/>
        <pt x="152" y="393" on="1"/>
        <pt x="152" y="404" on="0"/>
        <pt x="183" y="443" on="0"/>
        <pt x="208" y="443" on="1"/>
        <pt x="268" y="443" on="0"/>
        <pt x="298" y="442" on="1"/>
        <pt x="365" y="551" on="0"/>
        <pt x="393" y="583" on="1"/>
        <pt x="444" y="646" on="0"/>
        <pt x="559" y="685" on="0"/>
        <pt x="750" y="685" on="0"/>
        <pt x="811" y="659" on="0"/>
        <pt x="811" y="614" on="1"/>
        <pt x="811" y="594" on="0"/>
        <pt x="794" y="554" on="0"/>
        <pt x="779" y="554" on="1"/>
        <pt x="768" y="554" on="0"/>
        <pt x="764" y="566" on="1"/>
        <pt x="746" y="605" on="0"/>
        <pt x="686" y="627" on="0"/>
        <pt x="596" y="627" on="0"/>
        <pt x="566" y="614" on="1"/>
        <pt x="502" y="588" on="0"/>
        <pt x="409" y="441" on="1"/>
      </contour>
    </TTGlyph>
    <TTGlyph name="F" xMin="-39" yMin="-44" xMax="756" yMax="707">
      <contour>
        <pt x="453" y="330" on="1"/>
        <pt x="367" y="333" on="1"/>
        <pt x="304" y="333" on="0"/>
        <pt x="271" y="292" on="1"/>
        <pt x="218" y="223" on="0"/>
        <pt x="105" y="0" on="0"/>
        <pt x="83" y="-16" on="1"/>
        <pt x="47" y="-44" on="0"/>
        <pt x="-9" y="-44" on="1"/>
        <pt x="-39" y="-44" on="0"/>
        <pt x="-39" y="-31" on="1"/>
        <pt x="-39" y="-28" on="1"/>
        <pt x="-39" y="-17" on="0"/>
        <pt x="100" y="222" on="0"/>
        <pt x="269" y="516" on="0"/>
        <pt x="318" y="626" on="0"/>
        <pt x="318" y="665" on="1"/>
        <pt x="318" y="675" on="1"/>
        <pt x="318" y="692" on="0"/>
        <pt x="531" y="692" on="1"/>
        <pt x="601" y="692" on="0"/>
        <pt x="653" y="690" on="1"/>
        <pt x="668" y="707" on="0"/>
        <pt x="729" y="707" on="1"/>
        <pt x="756" y="707" on="0"/>
        <pt x="756" y="694" on="1"/>
        <pt x="756" y="670" on="0"/>
        <pt x="659" y="525" on="0"/>
        <pt x="626" y="504" on="1"/>
        <pt x="612" y="497" on="0"/>
        <pt x="586" y="497" on="0"/>
        <pt x="586" y="505" on="1"/>
        <pt x="586" y="506" on="0"/>
        <pt x="591" y="516" on="1"/>
        <pt x="605" y="544" on="0"/>
        <pt x="605" y="583" on="1"/>
        <pt x="605" y="638" on="0"/>
        <pt x="528" y="638" on="1"/>
        <pt x="482" y="638" on="0"/>
        <pt x="429" y="590" on="0"/>
        <pt x="377" y="504" on="0"/>
        <pt x="352" y="442" on="0"/>
        <pt x="352" y="419" on="0"/>
        <pt x="374" y="399" on="0"/>
        <pt x="470" y="399" on="1"/>
        <pt x="513" y="399" on="0"/>
        <pt x="543" y="402" on="0"/>
        <pt x="544" y="402" on="1"/>
        <pt x="553" y="402" on="0"/>
        <pt x="553" y="395" on="1"/>
        <pt x="553" y="391" on="0"/>
        <pt x="552" y="389" on="1"/>
        <pt x="538" y="355" on="0"/>
        <pt x="499" y="330" on="0"/>
      </contour>
    </TTGlyph>
    <TTGlyph name="G" xMin="52" yMin="-24" xMax="750" yMax="701">
      <contour>
        <pt x="407" y="-6" on="1"/>
        <pt x="393" y="-6" on="0"/>
        <pt x="372" y="20" on="0"/>
        <pt x="369" y="33" on="1"/>
        <pt x="366" y="46" on="1"/>
        <pt x="363" y="57" on="0"/>
        <pt x="340" y="57" on="0"/>
        <pt x="331" y="50" on="1"/>
        <pt x="237" y="-24" on="0"/>
        <pt x="156" y="-24" on="1"/>
        <pt x="52" y="-24" on="0"/>
        <pt x="52" y="115" on="1"/>
        <pt x="52" y="164" on="0"/>
        <pt x="103" y="310" on="0"/>
        <pt x="199" y="469" on="0"/>
        <pt x="320" y="608" on="0"/>
        <pt x="479" y="698" on="0"/>
        <pt x="558" y="698" on="1"/>
        <pt x="601" y="698" on="0"/>
        <pt x="628" y="683" on="1"/>
        <pt x="632" y="681" on="0"/>
        <pt x="642" y="681" on="0"/>
        <pt x="647" y="684" on="1"/>
        <pt x="672" y="701" on="0"/>
        <pt x="750" y="701" on="0"/>
        <pt x="750" y="682" on="1"/>
        <pt x="750" y="658" on="0"/>
        <pt x="700" y="587" on="1"/>
        <pt x="622" y="476" on="0"/>
        <pt x="572" y="476" on="1"/>
        <pt x="559" y="476" on="0"/>
        <pt x="550" y="480" on="0"/>
        <pt x="550" y="492" on="0"/>
        <pt x="556" y="506" on="1"/>
        <pt x="576" y="548" on="0"/>
        <pt x="576" y="603" on="0"/>
        <pt x="555" y="632" on="0"/>
        <pt x="522" y="632" on="1"/>
        <pt x="462" y="632" on="0"/>
        <pt x="297" y="451" on="0"/>
        <pt x="179" y="214" on="0"/>
        <pt x="179" y="137" on="1"/>
        <pt x="179" y="72" on="0"/>
        <pt x="233" y="72" on="1"/>
        <pt x="275" y="72" on="0"/>
        <pt x="382" y="158" on="0"/>
        <pt x="451" y="257" on="0"/>
        <pt x="451" y="300" on="0"/>
        <pt x="409" y="317" on="0"/>
        <pt x="349" y="317" on="1"/>
        <pt x="337" y="317" on="0"/>
        <pt x="337" y="326" on="1"/>
        <pt x="337" y="343" on="0"/>
        <pt x="376" y="379" on="0"/>
        <pt x="394" y="381" on="1"/>
        <pt x="466" y="386" on="0"/>
        <pt x="625" y="386" on="0"/>
        <pt x="625" y="372" on="1"/>
        <pt x="625" y="360" on="0"/>
        <pt x="598" y="310" on="0"/>
        <pt x="581" y="279" on="0"/>
        <pt x="548" y="224" on="0"/>
        <pt x="528" y="192" on="0"/>
        <pt x="487" y="127" on="0"/>
        <pt x="463" y="87" on="0"/>
        <pt x="428" y="21" on="0"/>
        <pt x="412" y="-6" on="0"/>
      </contour>
    </TTGlyph>
    <TTGlyph name="H" xMin="-10" yMin="-44" xMax="827" yMax="701">
      <contour>
        <pt x="360" y="662" on="1"/>
        <pt x="360" y="675" on="1"/>
        <pt x="360" y="701" on="0"/>
        <pt x="467" y="701" on="1"/>
        <pt x="521" y="701" on="0"/>
        <pt x="521" y="681" on="1"/>
        <pt x="521" y="673" on="0"/>
        <pt x="513" y="665" on="1"/>
        <pt x="475" y="613" on="0"/>
        <pt x="351" y="402" on="1"/>
        <pt x="475" y="401" on="1"/>
        <pt x="516" y="401" on="0"/>
        <pt x="550" y="434" on="1"/>
        <pt x="567" y="452" on="0"/>
        <pt x="594" y="483" on="0"/>
        <pt x="628" y="541" on="0"/>
        <pt x="638" y="558" on="1"/>
        <pt x="652" y="583" on="0"/>
        <pt x="687" y="654" on="1"/>
        <pt x="687" y="659" on="0"/>
        <pt x="702" y="674" on="0"/>
        <pt x="723" y="685" on="0"/>
        <pt x="767" y="693" on="0"/>
        <pt x="827" y="693" on="0"/>
        <pt x="827" y="680" on="1"/>
        <pt x="827" y="674" on="0"/>
        <pt x="818" y="659" on="0"/>
        <pt x="723" y="513" on="0"/>
        <pt x="627" y="356" on="0"/>
        <pt x="520" y="172" on="0"/>
        <pt x="453" y="20" on="0"/>
        <pt x="453" y="-15" on="1"/>
        <pt x="447" y="-32" on="0"/>
        <pt x="428" y="-32" on="1"/>
        <pt x="373" y="-32" on="0"/>
        <pt x="331" y="-14" on="0"/>
        <pt x="331" y="4" on="1"/>
        <pt x="331" y="35" on="0"/>
        <pt x="464" y="263" on="0"/>
        <pt x="464" y="312" on="0"/>
        <pt x="424" y="336" on="0"/>
        <pt x="330" y="336" on="0"/>
        <pt x="312" y="335" on="1"/>
        <pt x="278" y="280" on="0"/>
        <pt x="190" y="108" on="0"/>
        <pt x="130" y="-2" on="0"/>
        <pt x="112" y="-16" on="1"/>
        <pt x="75" y="-44" on="0"/>
        <pt x="21" y="-44" on="1"/>
        <pt x="-10" y="-44" on="0"/>
        <pt x="-10" y="-28" on="1"/>
        <pt x="-10" y="-19" on="0"/>
        <pt x="43" y="70" on="0"/>
        <pt x="161" y="261" on="0"/>
        <pt x="204" y="333" on="1"/>
        <pt x="143" y="330" on="1"/>
        <pt x="128" y="330" on="0"/>
        <pt x="128" y="338" on="1"/>
        <pt x="128" y="355" on="0"/>
        <pt x="171" y="389" on="0"/>
        <pt x="199" y="399" on="0"/>
        <pt x="243" y="401" on="1"/>
        <pt x="280" y="464" on="0"/>
        <pt x="338" y="576" on="1"/>
        <pt x="360" y="624" on="0"/>
      </contour>
    </TTGlyph>
    <TTGlyph name="I" xMin="-27" yMin="-18" xMax="505" yMax="701">
      <contour>
        <pt x="163" y="50" on="1"/>
        <pt x="163" y="30" on="0"/>
        <pt x="168" y="10" on="0"/>
        <pt x="168" y="5" on="1"/>
        <pt x="168" y="-18" on="0"/>
        <pt x="-27" y="-18" on="0"/>
        <pt x="-27" y="5" on="1"/>
        <pt x="-21" y="17" on="1"/>
        <pt x="13" y="37" on="0"/>
        <pt x="217" y="368" on="0"/>
        <pt x="322" y="576" on="1"/>
        <pt x="344" y="620" on="0"/>
        <pt x="344" y="659" on="1"/>
        <pt x="344" y="675" on="1"/>
        <pt x="344" y="701" on="0"/>
        <pt x="451" y="701" on="1"/>
        <pt x="505" y="701" on="0"/>
        <pt x="505" y="681" on="1"/>
        <pt x="505" y="673" on="0"/>
        <pt x="497" y="665" on="1"/>
        <pt x="429" y="577" on="0"/>
        <pt x="163" y="94" on="0"/>
      </contour>
    </TTGlyph>
    <TTGlyph name="Iacute" xMin="-27" yMin="-18" xMax="563" yMax="847">
      <contour>
        <pt x="163" y="70" on="0"/>
        <pt x="163" y="30" on="0"/>
        <pt x="168" y="10" on="0"/>
        <pt x="168" y="5" on="1"/>
        <pt x="168" y="-18" on="0"/>
        <pt x="-27" y="-18" on="0"/>
        <pt x="-27" y="5" on="1"/>
        <pt x="-27" y="11" on="0"/>
        <pt x="-21" y="17" on="1"/>
        <pt x="13" y="37" on="0"/>
        <pt x="217" y="368" on="0"/>
        <pt x="322" y="576" on="1"/>
        <pt x="344" y="620" on="0"/>
        <pt x="344" y="659" on="1"/>
        <pt x="344" y="659" on="0"/>
        <pt x="344" y="675" on="1"/>
        <pt x="344" y="701" on="0"/>
        <pt x="451" y="701" on="1"/>
        <pt x="505" y="701" on="0"/>
        <pt x="505" y="681" on="1"/>
        <pt x="505" y="673" on="0"/>
        <pt x="497" y="665" on="1"/>
        <pt x="429" y="577" on="0"/>
        <pt x="275" y="297" on="1"/>
        <pt x="247" y="245" on="1"/>
        <pt x="219" y="193" on="0"/>
      </contour>
      <contour>
        <pt x="563" y="816" on="0"/>
        <pt x="563" y="784" on="0"/>
        <pt x="456" y="735" on="0"/>
        <pt x="415" y="735" on="0"/>
        <pt x="415" y="743" on="1"/>
        <pt x="415" y="747" on="0"/>
        <pt x="475" y="807" on="0"/>
        <pt x="489" y="825" on="0"/>
        <pt x="496" y="835" on="0"/>
        <pt x="500" y="840" on="0"/>
        <pt x="502" y="842" on="1"/>
        <pt x="507" y="847" on="0"/>
        <pt x="524" y="847" on="0"/>
      </contour>
    </TTGlyph>
    <TTGlyph name="Icircumflex" xMin="-27" yMin="-18" xMax="579" yMax="848">
      <contour>
        <pt x="163" y="70" on="0"/>
        <pt x="163" y="30" on="0"/>
        <pt x="168" y="10" on="0"/>
        <pt x="168" y="5" on="1"/>
        <pt x="168" y="-18" on="0"/>
        <pt x="-27" y="-18" on="0"/>
        <pt x="-27" y="5" on="1"/>
        <pt x="-27" y="11" on="0"/>
        <pt x="-21" y="17" on="1"/>
        <pt x="13" y="37" on="0"/>
        <pt x="217" y="368" on="0"/>
        <pt x="322" y="576" on="1"/>
        <pt x="344" y="620" on="0"/>
        <pt x="344" y="659" on="1"/>
        <pt x="344" y="659" on="0"/>
        <pt x="344" y="675" on="1"/>
        <pt x="344" y="701" on="0"/>
        <pt x="451" y="701" on="1"/>
        <pt x="505" y="701" on="0"/>
        <pt x="505" y="681" on="1"/>
        <pt x="505" y="673" on="0"/>
        <pt x="497" y="665" on="1"/>
        <pt x="429" y="577" on="0"/>
        <pt x="275" y="297" on="1"/>
        <pt x="247" y="245" on="1"/>
        <pt x="219" y="193" on="0"/>
      </contour>
      <contour>
        <pt x="579" y="837" on="1"/>
        <pt x="556" y="747" on="1"/>
        <pt x="556" y="734" on="0"/>
        <pt x="547" y="734" on="1"/>
        <pt x="527" y="734" on="0"/>
        <pt x="506" y="775" on="1"/>
        <pt x="503" y="781" on="0"/>
        <pt x="493" y="781" on="0"/>
        <pt x="487" y="777" on="1"/>
        <pt x="433" y="741" on="0"/>
        <pt x="373" y="741" on="0"/>
        <pt x="373" y="749" on="1"/>
        <pt x="373" y="752" on="0"/>
        <pt x="384" y="762" on="1"/>
        <pt x="430" y="808" on="0"/>
        <pt x="452" y="840" on="0"/>
        <pt x="462" y="847" on="0"/>
        <pt x="487" y="847" on="0"/>
        <pt x="501" y="833" on="1"/>
        <pt x="506" y="829" on="0"/>
        <pt x="516" y="829" on="0"/>
        <pt x="547" y="848" on="0"/>
        <pt x="569" y="848" on="1"/>
        <pt x="579" y="847" on="0"/>
      </contour>
    </TTGlyph>
    <TTGlyph name="Idieresis" xMin="-27" yMin="-18" xMax="619" yMax="824">
      <contour>
        <pt x="163" y="50" on="1"/>
        <pt x="163" y="30" on="0"/>
        <pt x="168" y="10" on="0"/>
        <pt x="168" y="5" on="1"/>
        <pt x="168" y="-18" on="0"/>
        <pt x="-27" y="-18" on="0"/>
        <pt x="-27" y="5" on="1"/>
        <pt x="-21" y="17" on="1"/>
        <pt x="13" y="37" on="0"/>
        <pt x="217" y="368" on="0"/>
        <pt x="322" y="576" on="1"/>
        <pt x="344" y="620" on="0"/>
        <pt x="344" y="659" on="1"/>
        <pt x="344" y="675" on="1"/>
        <pt x="344" y="701" on="0"/>
        <pt x="451" y="701" on="1"/>
        <pt x="505" y="701" on="0"/>
        <pt x="505" y="681" on="1"/>
        <pt x="505" y="673" on="0"/>
        <pt x="497" y="665" on="1"/>
        <pt x="429" y="577" on="0"/>
        <pt x="163" y="94" on="0"/>
      </contour>
      <contour>
        <pt x="397" y="824" on="1"/>
        <pt x="434" y="824" on="0"/>
        <pt x="434" y="792" on="1"/>
        <pt x="434" y="776" on="0"/>
        <pt x="392" y="740" on="0"/>
        <pt x="370" y="740" on="1"/>
        <pt x="327" y="740" on="0"/>
        <pt x="327" y="769" on="1"/>
        <pt x="327" y="789" on="0"/>
        <pt x="370" y="824" on="0"/>
      </contour>
      <contour>
        <pt x="582" y="824" on="1"/>
        <pt x="619" y="824" on="0"/>
        <pt x="619" y="792" on="1"/>
        <pt x="619" y="776" on="0"/>
        <pt x="578" y="740" on="0"/>
        <pt x="556" y="740" on="1"/>
        <pt x="512" y="740" on="0"/>
        <pt x="512" y="769" on="1"/>
        <pt x="512" y="789" on="0"/>
        <pt x="555" y="824" on="0"/>
      </contour>
    </TTGlyph>
    <TTGlyph name="Igrave" xMin="-27" yMin="-18" xMax="526" yMax="863">
      <contour>
        <pt x="163" y="50" on="1"/>
        <pt x="163" y="30" on="0"/>
        <pt x="168" y="10" on="0"/>
        <pt x="168" y="5" on="1"/>
        <pt x="168" y="-18" on="0"/>
        <pt x="-27" y="-18" on="0"/>
        <pt x="-27" y="5" on="1"/>
        <pt x="-21" y="17" on="1"/>
        <pt x="13" y="37" on="0"/>
        <pt x="217" y="368" on="0"/>
        <pt x="322" y="576" on="1"/>
        <pt x="344" y="620" on="0"/>
        <pt x="344" y="659" on="1"/>
        <pt x="344" y="675" on="1"/>
        <pt x="344" y="701" on="0"/>
        <pt x="451" y="701" on="1"/>
        <pt x="505" y="701" on="0"/>
        <pt x="505" y="681" on="1"/>
        <pt x="505" y="673" on="0"/>
        <pt x="497" y="665" on="1"/>
        <pt x="429" y="577" on="0"/>
        <pt x="163" y="94" on="0"/>
      </contour>
      <contour>
        <pt x="390" y="839" on="0"/>
        <pt x="432" y="863" on="0"/>
        <pt x="449" y="863" on="0"/>
        <pt x="456" y="858" on="0"/>
        <pt x="459" y="853" on="0"/>
        <pt x="462" y="846" on="1"/>
        <pt x="468" y="835" on="1"/>
        <pt x="478" y="817" on="0"/>
        <pt x="493" y="796" on="1"/>
        <pt x="526" y="748" on="0"/>
        <pt x="526" y="740" on="0"/>
        <pt x="516" y="740" on="1"/>
        <pt x="509" y="740" on="1"/>
        <pt x="485" y="744" on="0"/>
        <pt x="390" y="807" on="0"/>
      </contour>
    </TTGlyph>
    <TTGlyph name="J" xMin="-9" yMin="-14" xMax="769" yMax="701">
      <contour>
        <pt x="208" y="50" on="1"/>
        <pt x="284" y="50" on="0"/>
        <pt x="366" y="181" on="1"/>
        <pt x="479" y="363" on="0"/>
        <pt x="586" y="576" on="1"/>
        <pt x="608" y="621" on="0"/>
        <pt x="608" y="662" on="1"/>
        <pt x="608" y="675" on="1"/>
        <pt x="608" y="701" on="0"/>
        <pt x="715" y="701" on="1"/>
        <pt x="769" y="701" on="0"/>
        <pt x="769" y="681" on="1"/>
        <pt x="769" y="673" on="0"/>
        <pt x="734" y="630" on="0"/>
        <pt x="571" y="355" on="0"/>
        <pt x="524" y="268" on="0"/>
        <pt x="483" y="189" on="0"/>
        <pt x="462" y="150" on="0"/>
        <pt x="431" y="93" on="0"/>
        <pt x="411" y="68" on="0"/>
        <pt x="380" y="32" on="0"/>
        <pt x="352" y="17" on="0"/>
        <pt x="315" y="-2" on="0"/>
        <pt x="293" y="-5" on="1"/>
        <pt x="234" y="-13" on="0"/>
        <pt x="143" y="-13" on="0"/>
        <pt x="113" y="4" on="1"/>
        <pt x="109" y="6" on="0"/>
        <pt x="98" y="6" on="0"/>
        <pt x="94" y="3" on="1"/>
        <pt x="67" y="-14" on="0"/>
        <pt x="-9" y="-14" on="0"/>
        <pt x="-9" y="5" on="1"/>
        <pt x="-9" y="34" on="0"/>
        <pt x="144" y="277" on="0"/>
        <pt x="195" y="304" on="1"/>
        <pt x="206" y="311" on="0"/>
        <pt x="244" y="311" on="0"/>
        <pt x="244" y="300" on="1"/>
        <pt x="244" y="298" on="0"/>
        <pt x="202" y="230" on="0"/>
        <pt x="161" y="135" on="0"/>
        <pt x="161" y="80" on="0"/>
        <pt x="186" y="50" on="0"/>
      </contour>
    </TTGlyph>
    <TTGlyph name="K" xMin="-20" yMin="-44" xMax="827" yMax="701">
      <contour>
        <pt x="459" y="15" on="1"/>
        <pt x="460" y="-6" on="1"/>
        <pt x="460" y="-22" on="0"/>
        <pt x="412" y="-22" on="1"/>
        <pt x="327" y="-22" on="0"/>
        <pt x="327" y="12" on="1"/>
        <pt x="327" y="43" on="0"/>
        <pt x="429" y="284" on="0"/>
        <pt x="429" y="311" on="1"/>
        <pt x="429" y="361" on="0"/>
        <pt x="351" y="361" on="1"/>
        <pt x="317" y="361" on="1"/>
        <pt x="270" y="278" on="1"/>
        <pt x="238" y="222" on="0"/>
        <pt x="164" y="72" on="0"/>
        <pt x="122" y="0" on="0"/>
        <pt x="102" y="-16" on="1"/>
        <pt x="67" y="-44" on="0"/>
        <pt x="10" y="-44" on="1"/>
        <pt x="-16" y="-44" on="0"/>
        <pt x="-19" y="-35" on="1"/>
        <pt x="-20" y="-32" on="0"/>
        <pt x="-20" y="-18" on="0"/>
        <pt x="38" y="79" on="0"/>
        <pt x="161" y="278" on="0"/>
        <pt x="207" y="357" on="1"/>
        <pt x="138" y="354" on="1"/>
        <pt x="131" y="354" on="0"/>
        <pt x="128" y="362" on="1"/>
        <pt x="128" y="379" on="0"/>
        <pt x="164" y="410" on="0"/>
        <pt x="194" y="421" on="0"/>
        <pt x="245" y="423" on="1"/>
        <pt x="294" y="510" on="0"/>
        <pt x="328" y="576" on="1"/>
        <pt x="350" y="627" on="0"/>
        <pt x="350" y="666" on="1"/>
        <pt x="350" y="675" on="1"/>
        <pt x="350" y="701" on="0"/>
        <pt x="456" y="701" on="1"/>
        <pt x="510" y="701" on="0"/>
        <pt x="510" y="681" on="1"/>
        <pt x="510" y="673" on="0"/>
        <pt x="465" y="615" on="0"/>
        <pt x="352" y="422" on="1"/>
        <pt x="382" y="423" on="0"/>
        <pt x="436" y="447" on="0"/>
        <pt x="554" y="557" on="0"/>
        <pt x="639" y="661" on="1"/>
        <pt x="641" y="665" on="0"/>
        <pt x="653" y="678" on="0"/>
        <pt x="716" y="699" on="0"/>
        <pt x="827" y="699" on="0"/>
        <pt x="827" y="681" on="1"/>
        <pt x="827" y="675" on="0"/>
        <pt x="739" y="613" on="1"/>
        <pt x="475" y="427" on="0"/>
        <pt x="475" y="397" on="1"/>
        <pt x="475" y="384" on="0"/>
        <pt x="539" y="338" on="0"/>
        <pt x="539" y="315" on="1"/>
        <pt x="539" y="314" on="0"/>
        <pt x="459" y="71" on="0"/>
      </contour>
    </TTGlyph>
    <TTGlyph name="L" xMin="-27" yMin="-44" xMax="543" yMax="701">
      <contour>
        <pt x="130" y="-7" on="1"/>
        <pt x="116" y="-6" on="1"/>
        <pt x="102" y="-6" on="0"/>
        <pt x="95" y="-15" on="1"/>
        <pt x="61" y="-44" on="0"/>
        <pt x="3" y="-44" on="1"/>
        <pt x="-27" y="-44" on="0"/>
        <pt x="-27" y="-31" on="1"/>
        <pt x="-27" y="-28" on="1"/>
        <pt x="-27" y="-17" on="0"/>
        <pt x="112" y="222" on="0"/>
        <pt x="281" y="516" on="0"/>
        <pt x="330" y="626" on="0"/>
        <pt x="330" y="662" on="1"/>
        <pt x="330" y="675" on="1"/>
        <pt x="330" y="701" on="0"/>
        <pt x="437" y="701" on="1"/>
        <pt x="491" y="701" on="0"/>
        <pt x="491" y="681" on="1"/>
        <pt x="491" y="673" on="0"/>
        <pt x="483" y="665" on="1"/>
        <pt x="403" y="535" on="0"/>
        <pt x="271" y="294" on="1"/>
        <pt x="257" y="269" on="1"/>
        <pt x="243" y="244" on="0"/>
        <pt x="231" y="223" on="0"/>
        <pt x="206" y="172" on="0"/>
        <pt x="200" y="156" on="1"/>
        <pt x="183" y="111" on="0"/>
        <pt x="183" y="86" on="1"/>
        <pt x="183" y="49" on="0"/>
        <pt x="249" y="49" on="1"/>
        <pt x="256" y="49" on="1"/>
        <pt x="297" y="49" on="0"/>
        <pt x="346" y="66" on="1"/>
        <pt x="442" y="100" on="0"/>
        <pt x="502" y="196" on="1"/>
        <pt x="506" y="205" on="0"/>
        <pt x="543" y="205" on="0"/>
        <pt x="543" y="189" on="1"/>
        <pt x="543" y="165" on="0"/>
        <pt x="479" y="41" on="0"/>
        <pt x="453" y="11" on="1"/>
        <pt x="440" y="-7" on="0"/>
        <pt x="403" y="-7" on="1"/>
        <pt x="366" y="-9" on="0"/>
        <pt x="243" y="-9" on="1"/>
      </contour>
    </TTGlyph>
    <TTGlyph name="Lslash" xMin="-27" yMin="-44" xMax="543" yMax="701">
      <contour>
        <pt x="130" y="-7" on="1"/>
        <pt x="116" y="-6" on="1"/>
        <pt x="102" y="-6" on="0"/>
        <pt x="95" y="-15" on="1"/>
        <pt x="61" y="-44" on="0"/>
        <pt x="3" y="-44" on="1"/>
        <pt x="-27" y="-44" on="0"/>
        <pt x="-27" y="-31" on="1"/>
        <pt x="-27" y="-28" on="1"/>
        <pt x="-27" y="-15" on="0"/>
        <pt x="141" y="273" on="0"/>
        <pt x="161" y="308" on="1"/>
        <pt x="121" y="290" on="1"/>
        <pt x="116" y="287" on="0"/>
        <pt x="111" y="287" on="1"/>
        <pt x="103" y="287" on="0"/>
        <pt x="103" y="303" on="1"/>
        <pt x="103" y="345" on="0"/>
        <pt x="131" y="356" on="1"/>
        <pt x="206" y="385" on="1"/>
        <pt x="285" y="524" on="0"/>
        <pt x="307" y="575" on="1"/>
        <pt x="330" y="626" on="0"/>
        <pt x="330" y="662" on="1"/>
        <pt x="330" y="675" on="1"/>
        <pt x="330" y="701" on="0"/>
        <pt x="437" y="701" on="1"/>
        <pt x="491" y="701" on="0"/>
        <pt x="491" y="681" on="1"/>
        <pt x="491" y="673" on="0"/>
        <pt x="483" y="665" on="1"/>
        <pt x="445" y="604" on="0"/>
        <pt x="352" y="440" on="1"/>
        <pt x="376" y="449" on="0"/>
        <pt x="407" y="465" on="0"/>
        <pt x="419" y="465" on="0"/>
        <pt x="419" y="448" on="1"/>
        <pt x="419" y="407" on="0"/>
        <pt x="391" y="396" on="1"/>
        <pt x="310" y="365" on="1"/>
        <pt x="257" y="269" on="1"/>
        <pt x="243" y="244" on="0"/>
        <pt x="231" y="223" on="0"/>
        <pt x="206" y="172" on="0"/>
        <pt x="200" y="156" on="1"/>
        <pt x="183" y="111" on="0"/>
        <pt x="183" y="86" on="1"/>
        <pt x="183" y="49" on="0"/>
        <pt x="249" y="49" on="1"/>
        <pt x="256" y="49" on="1"/>
        <pt x="297" y="49" on="0"/>
        <pt x="346" y="66" on="1"/>
        <pt x="442" y="100" on="0"/>
        <pt x="502" y="196" on="1"/>
        <pt x="506" y="205" on="0"/>
        <pt x="543" y="205" on="0"/>
        <pt x="543" y="189" on="1"/>
        <pt x="543" y="165" on="0"/>
        <pt x="479" y="41" on="0"/>
        <pt x="453" y="11" on="1"/>
        <pt x="440" y="-7" on="0"/>
        <pt x="403" y="-7" on="1"/>
        <pt x="366" y="-9" on="0"/>
        <pt x="243" y="-9" on="1"/>
      </contour>
    </TTGlyph>
    <TTGlyph name="M" xMin="-31" yMin="-37" xMax="993" yMax="712">
      <contour>
        <pt x="385" y="107" on="1"/>
        <pt x="372" y="83" on="0"/>
        <pt x="311" y="83" on="0"/>
        <pt x="292" y="100" on="0"/>
        <pt x="292" y="173" on="0"/>
        <pt x="370" y="440" on="0"/>
        <pt x="370" y="481" on="0"/>
        <pt x="362" y="481" on="1"/>
        <pt x="350" y="481" on="0"/>
        <pt x="314" y="440" on="0"/>
        <pt x="302" y="420" on="1"/>
        <pt x="290" y="399" on="1"/>
        <pt x="226" y="295" on="0"/>
        <pt x="121" y="86" on="0"/>
        <pt x="72" y="-11" on="0"/>
        <pt x="36" y="-37" on="0"/>
        <pt x="-31" y="-37" on="0"/>
        <pt x="-31" y="-22" on="1"/>
        <pt x="-31" y="-19" on="1"/>
        <pt x="-31" y="-9" on="0"/>
        <pt x="21" y="74" on="1"/>
        <pt x="213" y="379" on="0"/>
        <pt x="310" y="572" on="1"/>
        <pt x="333" y="618" on="0"/>
        <pt x="333" y="658" on="1"/>
        <pt x="333" y="670" on="1"/>
        <pt x="333" y="688" on="0"/>
        <pt x="416" y="710" on="0"/>
        <pt x="443" y="710" on="1"/>
        <pt x="476" y="710" on="1"/>
        <pt x="518" y="710" on="0"/>
        <pt x="538" y="694" on="1"/>
        <pt x="547" y="688" on="0"/>
        <pt x="547" y="668" on="0"/>
        <pt x="468" y="411" on="0"/>
        <pt x="468" y="359" on="0"/>
        <pt x="476" y="359" on="1"/>
        <pt x="501" y="359" on="0"/>
        <pt x="627" y="482" on="0"/>
        <pt x="708" y="568" on="1"/>
        <pt x="774" y="640" on="0"/>
        <pt x="834" y="692" on="1"/>
        <pt x="847" y="704" on="0"/>
        <pt x="865" y="706" on="1"/>
        <pt x="904" y="712" on="0"/>
        <pt x="993" y="712" on="0"/>
        <pt x="993" y="692" on="1"/>
        <pt x="993" y="688" on="0"/>
        <pt x="992" y="684" on="0"/>
        <pt x="918" y="567" on="0"/>
        <pt x="812" y="394" on="0"/>
        <pt x="706" y="209" on="0"/>
        <pt x="632" y="42" on="0"/>
        <pt x="632" y="3" on="1"/>
        <pt x="623" y="-14" on="0"/>
        <pt x="604" y="-14" on="1"/>
        <pt x="505" y="-14" on="0"/>
        <pt x="505" y="21" on="1"/>
        <pt x="505" y="102" on="0"/>
        <pt x="706" y="410" on="1"/>
        <pt x="732" y="449" on="0"/>
        <pt x="732" y="469" on="0"/>
        <pt x="717" y="469" on="1"/>
        <pt x="679" y="469" on="0"/>
        <pt x="435" y="198" on="0"/>
      </contour>
    </TTGlyph>
    <TTGlyph name="N" xMin="-31" yMin="-37" xMax="841" yMax="713">
      <contour>
        <pt x="290" y="67" on="0"/>
        <pt x="355" y="425" on="0"/>
        <pt x="355" y="462" on="0"/>
        <pt x="334" y="462" on="0"/>
        <pt x="298" y="420" on="0"/>
        <pt x="286" y="400" on="1"/>
        <pt x="273" y="379" on="1"/>
        <pt x="193" y="248" on="0"/>
        <pt x="92" y="32" on="1"/>
        <pt x="72" y="-12" on="0"/>
        <pt x="36" y="-37" on="0"/>
        <pt x="-31" y="-37" on="0"/>
        <pt x="-31" y="-22" on="1"/>
        <pt x="-31" y="-19" on="1"/>
        <pt x="-31" y="-6" on="0"/>
        <pt x="20" y="76" on="1"/>
        <pt x="215" y="389" on="0"/>
        <pt x="305" y="571" on="1"/>
        <pt x="328" y="617" on="0"/>
        <pt x="328" y="654" on="1"/>
        <pt x="328" y="670" on="1"/>
        <pt x="328" y="677" on="0"/>
        <pt x="339" y="692" on="0"/>
        <pt x="397" y="709" on="0"/>
        <pt x="448" y="709" on="1"/>
        <pt x="525" y="709" on="0"/>
        <pt x="525" y="680" on="1"/>
        <pt x="525" y="671" on="0"/>
        <pt x="443" y="301" on="0"/>
        <pt x="443" y="224" on="0"/>
        <pt x="451" y="224" on="1"/>
        <pt x="463" y="224" on="0"/>
        <pt x="489" y="250" on="0"/>
        <pt x="496" y="262" on="1"/>
        <pt x="503" y="275" on="1"/>
        <pt x="567" y="380" on="0"/>
        <pt x="669" y="587" on="0"/>
        <pt x="717" y="685" on="0"/>
        <pt x="735" y="698" on="1"/>
        <pt x="761" y="713" on="0"/>
        <pt x="841" y="713" on="0"/>
        <pt x="841" y="701" on="1"/>
        <pt x="841" y="699" on="1"/>
        <pt x="841" y="692" on="0"/>
        <pt x="735" y="538" on="0"/>
        <pt x="560" y="259" on="0"/>
        <pt x="495" y="132" on="1"/>
        <pt x="467" y="67" on="0"/>
        <pt x="467" y="28" on="1"/>
        <pt x="467" y="16" on="0"/>
        <pt x="458" y="4" on="0"/>
        <pt x="405" y="-7" on="0"/>
        <pt x="377" y="-7" on="1"/>
        <pt x="345" y="-7" on="1"/>
        <pt x="334" y="-7" on="0"/>
        <pt x="318" y="-2" on="1"/>
        <pt x="290" y="6" on="0"/>
        <pt x="290" y="23" on="1"/>
      </contour>
    </TTGlyph>
    <TTGlyph name="Ntilde" xMin="-31" yMin="-37" xMax="841" yMax="822">
      <contour>
        <pt x="290" y="67" on="0"/>
        <pt x="355" y="425" on="0"/>
        <pt x="355" y="462" on="0"/>
        <pt x="334" y="462" on="0"/>
        <pt x="298" y="420" on="0"/>
        <pt x="286" y="400" on="1"/>
        <pt x="273" y="379" on="1"/>
        <pt x="193" y="248" on="0"/>
        <pt x="92" y="32" on="1"/>
        <pt x="72" y="-12" on="0"/>
        <pt x="36" y="-37" on="0"/>
        <pt x="-31" y="-37" on="0"/>
        <pt x="-31" y="-22" on="1"/>
        <pt x="-31" y="-19" on="1"/>
        <pt x="-31" y="-6" on="0"/>
        <pt x="20" y="76" on="1"/>
        <pt x="215" y="389" on="0"/>
        <pt x="305" y="571" on="1"/>
        <pt x="328" y="617" on="0"/>
        <pt x="328" y="654" on="1"/>
        <pt x="328" y="670" on="1"/>
        <pt x="328" y="677" on="0"/>
        <pt x="339" y="692" on="0"/>
        <pt x="397" y="709" on="0"/>
        <pt x="448" y="709" on="1"/>
        <pt x="525" y="709" on="0"/>
        <pt x="525" y="680" on="1"/>
        <pt x="525" y="671" on="0"/>
        <pt x="443" y="301" on="0"/>
        <pt x="443" y="224" on="0"/>
        <pt x="451" y="224" on="1"/>
        <pt x="463" y="224" on="0"/>
        <pt x="489" y="250" on="0"/>
        <pt x="496" y="262" on="1"/>
        <pt x="503" y="275" on="1"/>
        <pt x="567" y="380" on="0"/>
        <pt x="669" y="587" on="0"/>
        <pt x="717" y="685" on="0"/>
        <pt x="735" y="698" on="1"/>
        <pt x="761" y="713" on="0"/>
        <pt x="841" y="713" on="0"/>
        <pt x="841" y="701" on="1"/>
        <pt x="841" y="699" on="1"/>
        <pt x="841" y="692" on="0"/>
        <pt x="735" y="538" on="0"/>
        <pt x="560" y="259" on="0"/>
        <pt x="495" y="132" on="1"/>
        <pt x="467" y="67" on="0"/>
        <pt x="467" y="28" on="1"/>
        <pt x="467" y="16" on="0"/>
        <pt x="458" y="4" on="0"/>
        <pt x="405" y="-7" on="0"/>
        <pt x="377" y="-7" on="1"/>
        <pt x="345" y="-7" on="1"/>
        <pt x="334" y="-7" on="0"/>
        <pt x="318" y="-2" on="1"/>
        <pt x="290" y="6" on="0"/>
        <pt x="290" y="23" on="1"/>
      </contour>
      <contour>
        <pt x="676" y="806" on="1"/>
        <pt x="762" y="812" on="1"/>
        <pt x="769" y="812" on="0"/>
        <pt x="769" y="801" on="0"/>
        <pt x="757" y="785" on="0"/>
        <pt x="728" y="767" on="0"/>
        <pt x="708" y="759" on="1"/>
        <pt x="659" y="740" on="0"/>
        <pt x="491" y="740" on="0"/>
        <pt x="491" y="761" on="1"/>
        <pt x="491" y="774" on="0"/>
        <pt x="548" y="822" on="0"/>
        <pt x="565" y="822" on="1"/>
        <pt x="601" y="806" on="0"/>
      </contour>
    </TTGlyph>
    <TTGlyph name="O" xMin="79" yMin="-19" xMax="747" yMax="713">
      <contour>
        <pt x="747" y="539" on="1"/>
        <pt x="747" y="483" on="0"/>
        <pt x="702" y="339" on="0"/>
        <pt x="614" y="189" on="0"/>
        <pt x="499" y="62" on="0"/>
        <pt x="342" y="-19" on="0"/>
        <pt x="175" y="-19" on="0"/>
        <pt x="79" y="74" on="0"/>
        <pt x="79" y="156" on="1"/>
        <pt x="79" y="212" on="0"/>
        <pt x="124" y="356" on="0"/>
        <pt x="212" y="506" on="0"/>
        <pt x="327" y="632" on="0"/>
        <pt x="484" y="713" on="0"/>
        <pt x="651" y="713" on="0"/>
        <pt x="747" y="621" on="0"/>
      </contour>
      <contour>
        <pt x="629" y="548" on="1"/>
        <pt x="629" y="658" on="0"/>
        <pt x="549" y="658" on="1"/>
        <pt x="482" y="658" on="0"/>
        <pt x="317" y="488" on="0"/>
        <pt x="202" y="247" on="0"/>
        <pt x="202" y="152" on="1"/>
        <pt x="202" y="42" on="0"/>
        <pt x="282" y="42" on="1"/>
        <pt x="348" y="42" on="0"/>
        <pt x="514" y="212" on="0"/>
        <pt x="629" y="453" on="0"/>
      </contour>
    </TTGlyph>
    <TTGlyph name="OE" xMin="79" yMin="-44" xMax="1169" yMax="713">
      <contour>
        <pt x="867" y="330" on="1"/>
        <pt x="782" y="333" on="1"/>
        <pt x="719" y="333" on="0"/>
        <pt x="685" y="292" on="1"/>
        <pt x="661" y="262" on="0"/>
        <pt x="582" y="126" on="0"/>
        <pt x="582" y="86" on="1"/>
        <pt x="582" y="49" on="0"/>
        <pt x="655" y="49" on="1"/>
        <pt x="700" y="49" on="0"/>
        <pt x="751" y="66" on="1"/>
        <pt x="854" y="100" on="0"/>
        <pt x="914" y="196" on="1"/>
        <pt x="921" y="205" on="0"/>
        <pt x="955" y="205" on="0"/>
        <pt x="955" y="166" on="0"/>
        <pt x="891" y="42" on="0"/>
        <pt x="866" y="11" on="1"/>
        <pt x="853" y="-5" on="0"/>
        <pt x="778" y="-9" on="0"/>
        <pt x="701" y="-9" on="1"/>
        <pt x="603" y="-9" on="1"/>
        <pt x="546" y="-8" on="1"/>
        <pt x="519" y="-6" on="1"/>
        <pt x="518" y="-6" on="0"/>
        <pt x="506" y="-6" on="0"/>
        <pt x="497" y="-15" on="1"/>
        <pt x="464" y="-44" on="0"/>
        <pt x="403" y="-44" on="1"/>
        <pt x="374" y="-44" on="0"/>
        <pt x="374" y="-31" on="1"/>
        <pt x="374" y="-28" on="1"/>
        <pt x="374" y="-22" on="0"/>
        <pt x="390" y="7" on="1"/>
        <pt x="323" y="-19" on="0"/>
        <pt x="259" y="-19" on="1"/>
        <pt x="175" y="-19" on="0"/>
        <pt x="79" y="74" on="0"/>
        <pt x="79" y="156" on="1"/>
        <pt x="79" y="212" on="0"/>
        <pt x="124" y="356" on="0"/>
        <pt x="212" y="506" on="0"/>
        <pt x="327" y="632" on="0"/>
        <pt x="484" y="713" on="0"/>
        <pt x="567" y="713" on="1"/>
        <pt x="683" y="713" on="0"/>
        <pt x="727" y="629" on="1"/>
        <pt x="731" y="649" on="0"/>
        <pt x="731" y="664" on="1"/>
        <pt x="731" y="675" on="1"/>
        <pt x="731" y="692" on="0"/>
        <pt x="944" y="692" on="1"/>
        <pt x="1014" y="692" on="0"/>
        <pt x="1066" y="690" on="1"/>
        <pt x="1081" y="707" on="0"/>
        <pt x="1143" y="707" on="1"/>
        <pt x="1169" y="707" on="0"/>
        <pt x="1169" y="694" on="1"/>
        <pt x="1169" y="671" on="0"/>
        <pt x="1078" y="532" on="0"/>
        <pt x="1044" y="507" on="1"/>
        <pt x="1033" y="498" on="0"/>
        <pt x="999" y="498" on="0"/>
        <pt x="999" y="505" on="1"/>
        <pt x="999" y="508" on="0"/>
        <pt x="1002" y="513" on="1"/>
        <pt x="1018" y="544" on="0"/>
        <pt x="1018" y="583" on="1"/>
        <pt x="1018" y="638" on="0"/>
        <pt x="942" y="638" on="1"/>
        <pt x="896" y="638" on="0"/>
        <pt x="843" y="590" on="0"/>
        <pt x="791" y="504" on="0"/>
        <pt x="766" y="442" on="0"/>
        <pt x="766" y="434" on="1"/>
        <pt x="766" y="410" on="0"/>
        <pt x="813" y="399" on="0"/>
        <pt x="883" y="399" on="1"/>
        <pt x="957" y="402" on="1"/>
        <pt x="967" y="402" on="0"/>
        <pt x="967" y="387" on="0"/>
        <pt x="946" y="352" on="0"/>
        <pt x="912" y="330" on="0"/>
      </contour>
      <contour>
        <pt x="629" y="548" on="1"/>
        <pt x="629" y="658" on="0"/>
        <pt x="549" y="658" on="1"/>
        <pt x="482" y="658" on="0"/>
        <pt x="317" y="488" on="0"/>
        <pt x="202" y="247" on="0"/>
        <pt x="202" y="152" on="1"/>
        <pt x="202" y="42" on="0"/>
        <pt x="282" y="42" on="1"/>
        <pt x="348" y="42" on="0"/>
        <pt x="514" y="212" on="0"/>
        <pt x="629" y="453" on="0"/>
      </contour>
    </TTGlyph>
    <TTGlyph name="Oacute" xMin="79" yMin="-19" xMax="747" yMax="852">
      <contour>
        <pt x="747" y="539" on="1"/>
        <pt x="747" y="483" on="0"/>
        <pt x="702" y="339" on="0"/>
        <pt x="614" y="189" on="0"/>
        <pt x="499" y="62" on="0"/>
        <pt x="342" y="-19" on="0"/>
        <pt x="175" y="-19" on="0"/>
        <pt x="79" y="74" on="0"/>
        <pt x="79" y="156" on="1"/>
        <pt x="79" y="212" on="0"/>
        <pt x="124" y="356" on="0"/>
        <pt x="212" y="506" on="0"/>
        <pt x="327" y="632" on="0"/>
        <pt x="484" y="713" on="0"/>
        <pt x="651" y="713" on="0"/>
        <pt x="747" y="621" on="0"/>
      </contour>
      <contour>
        <pt x="629" y="548" on="1"/>
        <pt x="629" y="658" on="0"/>
        <pt x="549" y="658" on="1"/>
        <pt x="482" y="658" on="0"/>
        <pt x="317" y="488" on="0"/>
        <pt x="202" y="247" on="0"/>
        <pt x="202" y="152" on="1"/>
        <pt x="202" y="42" on="0"/>
        <pt x="282" y="42" on="1"/>
        <pt x="348" y="42" on="0"/>
        <pt x="514" y="212" on="0"/>
        <pt x="629" y="453" on="0"/>
      </contour>
      <contour>
        <pt x="692" y="821" on="0"/>
        <pt x="692" y="789" on="0"/>
        <pt x="585" y="740" on="0"/>
        <pt x="544" y="740" on="0"/>
        <pt x="544" y="748" on="1"/>
        <pt x="544" y="752" on="0"/>
        <pt x="604" y="812" on="0"/>
        <pt x="618" y="830" on="0"/>
        <pt x="625" y="840" on="0"/>
        <pt x="629" y="845" on="0"/>
        <pt x="632" y="848" on="1"/>
        <pt x="636" y="852" on="0"/>
        <pt x="653" y="852" on="0"/>
      </contour>
    </TTGlyph>
    <TTGlyph name="Ocircumflex" xMin="79" yMin="-19" xMax="747" yMax="851">
      <contour>
        <pt x="747" y="539" on="1"/>
        <pt x="747" y="483" on="0"/>
        <pt x="702" y="339" on="0"/>
        <pt x="614" y="189" on="0"/>
        <pt x="499" y="62" on="0"/>
        <pt x="342" y="-19" on="0"/>
        <pt x="175" y="-19" on="0"/>
        <pt x="79" y="74" on="0"/>
        <pt x="79" y="156" on="1"/>
        <pt x="79" y="212" on="0"/>
        <pt x="124" y="356" on="0"/>
        <pt x="212" y="506" on="0"/>
        <pt x="327" y="632" on="0"/>
        <pt x="484" y="713" on="0"/>
        <pt x="651" y="713" on="0"/>
        <pt x="747" y="621" on="0"/>
      </contour>
      <contour>
        <pt x="629" y="548" on="1"/>
        <pt x="629" y="658" on="0"/>
        <pt x="549" y="658" on="1"/>
        <pt x="482" y="658" on="0"/>
        <pt x="317" y="488" on="0"/>
        <pt x="202" y="247" on="0"/>
        <pt x="202" y="152" on="1"/>
        <pt x="202" y="42" on="0"/>
        <pt x="282" y="42" on="1"/>
        <pt x="348" y="42" on="0"/>
        <pt x="514" y="212" on="0"/>
        <pt x="629" y="453" on="0"/>
      </contour>
      <contour>
        <pt x="702" y="840" on="1"/>
        <pt x="679" y="750" on="1"/>
        <pt x="679" y="737" on="0"/>
        <pt x="670" y="737" on="1"/>
        <pt x="650" y="737" on="0"/>
        <pt x="629" y="778" on="1"/>
        <pt x="626" y="784" on="0"/>
        <pt x="616" y="784" on="0"/>
        <pt x="610" y="780" on="1"/>
        <pt x="556" y="744" on="0"/>
        <pt x="496" y="744" on="0"/>
        <pt x="496" y="752" on="1"/>
        <pt x="496" y="755" on="0"/>
        <pt x="506" y="766" on="1"/>
        <pt x="553" y="812" on="0"/>
        <pt x="575" y="843" on="0"/>
        <pt x="585" y="850" on="0"/>
        <pt x="610" y="850" on="0"/>
        <pt x="624" y="836" on="1"/>
        <pt x="629" y="832" on="0"/>
        <pt x="640" y="832" on="0"/>
        <pt x="670" y="851" on="0"/>
        <pt x="692" y="851" on="1"/>
        <pt x="702" y="850" on="0"/>
      </contour>
    </TTGlyph>
    <TTGlyph name="Odieresis" xMin="79" yMin="-19" xMax="771" yMax="826">
      <contour>
        <pt x="747" y="539" on="1"/>
        <pt x="747" y="483" on="0"/>
        <pt x="702" y="339" on="0"/>
        <pt x="614" y="189" on="0"/>
        <pt x="499" y="62" on="0"/>
        <pt x="342" y="-19" on="0"/>
        <pt x="175" y="-19" on="0"/>
        <pt x="79" y="74" on="0"/>
        <pt x="79" y="156" on="1"/>
        <pt x="79" y="212" on="0"/>
        <pt x="124" y="356" on="0"/>
        <pt x="212" y="506" on="0"/>
        <pt x="327" y="632" on="0"/>
        <pt x="484" y="713" on="0"/>
        <pt x="651" y="713" on="0"/>
        <pt x="747" y="621" on="0"/>
      </contour>
      <contour>
        <pt x="629" y="548" on="1"/>
        <pt x="629" y="658" on="0"/>
        <pt x="549" y="658" on="1"/>
        <pt x="482" y="658" on="0"/>
        <pt x="317" y="488" on="0"/>
        <pt x="202" y="247" on="0"/>
        <pt x="202" y="152" on="1"/>
        <pt x="202" y="42" on="0"/>
        <pt x="282" y="42" on="1"/>
        <pt x="348" y="42" on="0"/>
        <pt x="514" y="212" on="0"/>
        <pt x="629" y="453" on="0"/>
      </contour>
      <contour>
        <pt x="549" y="826" on="1"/>
        <pt x="586" y="826" on="0"/>
        <pt x="586" y="794" on="1"/>
        <pt x="586" y="778" on="0"/>
        <pt x="544" y="742" on="0"/>
        <pt x="522" y="742" on="1"/>
        <pt x="479" y="742" on="0"/>
        <pt x="479" y="771" on="1"/>
        <pt x="479" y="791" on="0"/>
        <pt x="522" y="826" on="0"/>
      </contour>
      <contour>
        <pt x="734" y="826" on="1"/>
        <pt x="771" y="826" on="0"/>
        <pt x="771" y="794" on="1"/>
        <pt x="771" y="778" on="0"/>
        <pt x="730" y="742" on="0"/>
        <pt x="708" y="742" on="1"/>
        <pt x="664" y="742" on="0"/>
        <pt x="664" y="771" on="1"/>
        <pt x="664" y="791" on="0"/>
        <pt x="707" y="826" on="0"/>
      </contour>
    </TTGlyph>
    <TTGlyph name="Ograve" xMin="79" yMin="-19" xMax="747" yMax="866">
      <contour>
        <pt x="747" y="539" on="1"/>
        <pt x="747" y="483" on="0"/>
        <pt x="702" y="339" on="0"/>
        <pt x="614" y="189" on="0"/>
        <pt x="499" y="62" on="0"/>
        <pt x="342" y="-19" on="0"/>
        <pt x="175" y="-19" on="0"/>
        <pt x="79" y="74" on="0"/>
        <pt x="79" y="156" on="1"/>
        <pt x="79" y="212" on="0"/>
        <pt x="124" y="356" on="0"/>
        <pt x="212" y="506" on="0"/>
        <pt x="327" y="632" on="0"/>
        <pt x="484" y="713" on="0"/>
        <pt x="651" y="713" on="0"/>
        <pt x="747" y="621" on="0"/>
      </contour>
      <contour>
        <pt x="629" y="548" on="1"/>
        <pt x="629" y="658" on="0"/>
        <pt x="549" y="658" on="1"/>
        <pt x="482" y="658" on="0"/>
        <pt x="317" y="488" on="0"/>
        <pt x="202" y="247" on="0"/>
        <pt x="202" y="152" on="1"/>
        <pt x="202" y="42" on="0"/>
        <pt x="282" y="42" on="1"/>
        <pt x="348" y="42" on="0"/>
        <pt x="514" y="212" on="0"/>
        <pt x="629" y="453" on="0"/>
      </contour>
      <contour>
        <pt x="524" y="842" on="0"/>
        <pt x="566" y="866" on="0"/>
        <pt x="583" y="866" on="0"/>
        <pt x="590" y="861" on="0"/>
        <pt x="593" y="856" on="0"/>
        <pt x="596" y="849" on="1"/>
        <pt x="596" y="849" on="0"/>
        <pt x="602" y="838" on="1"/>
        <pt x="612" y="820" on="0"/>
        <pt x="627" y="798" on="1"/>
        <pt x="660" y="751" on="0"/>
        <pt x="660" y="743" on="0"/>
        <pt x="650" y="743" on="1"/>
        <pt x="643" y="743" on="1"/>
        <pt x="619" y="747" on="0"/>
        <pt x="524" y="810" on="0"/>
      </contour>
    </TTGlyph>
    <TTGlyph name="Oslash" xMin="49" yMin="-19" xMax="783" yMax="713">
      <contour>
        <pt x="695" y="671" on="1"/>
        <pt x="721" y="697" on="0"/>
        <pt x="783" y="697" on="0"/>
        <pt x="783" y="686" on="1"/>
        <pt x="783" y="681" on="0"/>
        <pt x="776" y="674" on="1"/>
        <pt x="728" y="627" on="1"/>
        <pt x="747" y="587" on="0"/>
        <pt x="747" y="483" on="0"/>
        <pt x="702" y="339" on="0"/>
        <pt x="614" y="189" on="0"/>
        <pt x="499" y="62" on="0"/>
        <pt x="342" y="-19" on="0"/>
        <pt x="183" y="-19" on="0"/>
        <pt x="137" y="18" on="1"/>
        <pt x="113" y="-6" on="0"/>
        <pt x="49" y="-6" on="0"/>
        <pt x="49" y="4" on="1"/>
        <pt x="49" y="10" on="0"/>
        <pt x="56" y="17" on="1"/>
        <pt x="100" y="62" on="1"/>
        <pt x="79" y="101" on="0"/>
        <pt x="79" y="212" on="0"/>
        <pt x="124" y="356" on="0"/>
        <pt x="212" y="506" on="0"/>
        <pt x="327" y="632" on="0"/>
        <pt x="484" y="713" on="0"/>
        <pt x="647" y="713" on="0"/>
      </contour>
      <contour>
        <pt x="624" y="596" on="1"/>
        <pt x="610" y="658" on="0"/>
        <pt x="484" y="658" on="0"/>
        <pt x="322" y="494" on="0"/>
        <pt x="206" y="260" on="0"/>
        <pt x="202" y="165" on="1"/>
        <pt x="457" y="422" on="0"/>
      </contour>
      <contour>
        <pt x="209" y="94" on="1"/>
        <pt x="226" y="42" on="0"/>
        <pt x="345" y="42" on="0"/>
        <pt x="504" y="201" on="0"/>
        <pt x="620" y="429" on="0"/>
        <pt x="628" y="524" on="1"/>
        <pt x="417" y="310" on="0"/>
      </contour>
    </TTGlyph>
    <TTGlyph name="Otilde" xMin="79" yMin="-19" xMax="769" yMax="822">
      <contour>
        <pt x="676" y="806" on="1"/>
        <pt x="762" y="812" on="1"/>
        <pt x="769" y="812" on="0"/>
        <pt x="769" y="801" on="0"/>
        <pt x="757" y="785" on="0"/>
        <pt x="728" y="767" on="0"/>
        <pt x="708" y="759" on="1"/>
        <pt x="659" y="740" on="0"/>
        <pt x="491" y="740" on="0"/>
        <pt x="491" y="761" on="1"/>
        <pt x="491" y="774" on="0"/>
        <pt x="548" y="822" on="0"/>
        <pt x="565" y="822" on="1"/>
        <pt x="601" y="806" on="0"/>
      </contour>
      <contour>
        <pt x="747" y="539" on="1"/>
        <pt x="747" y="483" on="0"/>
        <pt x="702" y="339" on="0"/>
        <pt x="614" y="189" on="0"/>
        <pt x="499" y="62" on="0"/>
        <pt x="342" y="-19" on="0"/>
        <pt x="175" y="-19" on="0"/>
        <pt x="79" y="74" on="0"/>
        <pt x="79" y="156" on="1"/>
        <pt x="79" y="212" on="0"/>
        <pt x="124" y="356" on="0"/>
        <pt x="212" y="506" on="0"/>
        <pt x="327" y="632" on="0"/>
        <pt x="484" y="713" on="0"/>
        <pt x="651" y="713" on="0"/>
        <pt x="747" y="621" on="0"/>
      </contour>
      <contour>
        <pt x="629" y="548" on="1"/>
        <pt x="629" y="658" on="0"/>
        <pt x="549" y="658" on="1"/>
        <pt x="482" y="658" on="0"/>
        <pt x="317" y="488" on="0"/>
        <pt x="202" y="247" on="0"/>
        <pt x="202" y="152" on="1"/>
        <pt x="202" y="42" on="0"/>
        <pt x="282" y="42" on="1"/>
        <pt x="348" y="42" on="0"/>
        <pt x="514" y="212" on="0"/>
        <pt x="629" y="453" on="0"/>
      </contour>
    </TTGlyph>
    <TTGlyph name="P" xMin="-28" yMin="-46" xMax="770" yMax="706">
      <contour>
        <pt x="770" y="505" on="0"/>
        <pt x="712" y="397" on="0"/>
        <pt x="639" y="330" on="0"/>
        <pt x="501" y="282" on="0"/>
        <pt x="315" y="282" on="0"/>
        <pt x="243" y="240" on="0"/>
        <pt x="209" y="180" on="1"/>
        <pt x="184" y="138" on="0"/>
        <pt x="133" y="28" on="0"/>
        <pt x="119" y="-16" on="0"/>
        <pt x="57" y="-43" on="0"/>
        <pt x="30" y="-44" on="1"/>
        <pt x="2" y="-46" on="1"/>
        <pt x="-28" y="-46" on="0"/>
        <pt x="-28" y="-33" on="1"/>
        <pt x="-28" y="-30" on="1"/>
        <pt x="-28" y="-19" on="0"/>
        <pt x="111" y="221" on="0"/>
        <pt x="280" y="515" on="0"/>
        <pt x="329" y="625" on="0"/>
        <pt x="329" y="663" on="1"/>
        <pt x="329" y="673" on="1"/>
        <pt x="329" y="689" on="0"/>
        <pt x="466" y="706" on="0"/>
        <pt x="545" y="706" on="1"/>
        <pt x="671" y="706" on="0"/>
        <pt x="770" y="637" on="0"/>
      </contour>
      <contour>
        <pt x="440" y="587" on="0"/>
        <pt x="314" y="378" on="0"/>
        <pt x="314" y="353" on="0"/>
        <pt x="342" y="345" on="0"/>
        <pt x="449" y="345" on="0"/>
        <pt x="550" y="383" on="0"/>
        <pt x="608" y="437" on="0"/>
        <pt x="627" y="470" on="1"/>
        <pt x="659" y="526" on="0"/>
        <pt x="659" y="596" on="0"/>
        <pt x="640" y="631" on="0"/>
        <pt x="622" y="638" on="1"/>
        <pt x="592" y="649" on="0"/>
        <pt x="495" y="649" on="0"/>
      </contour>
    </TTGlyph>
    <TTGlyph name="Q" xMin="81" yMin="-108" xMax="749" yMax="713">
      <contour>
        <pt x="261" y="-19" on="1"/>
        <pt x="177" y="-19" on="0"/>
        <pt x="81" y="74" on="0"/>
        <pt x="81" y="156" on="1"/>
        <pt x="81" y="212" on="0"/>
        <pt x="126" y="356" on="0"/>
        <pt x="214" y="506" on="0"/>
        <pt x="329" y="632" on="0"/>
        <pt x="486" y="713" on="0"/>
        <pt x="653" y="713" on="0"/>
        <pt x="749" y="621" on="0"/>
        <pt x="749" y="439" on="0"/>
        <pt x="611" y="168" on="0"/>
        <pt x="511" y="92" on="1"/>
        <pt x="471" y="61" on="0"/>
        <pt x="471" y="43" on="1"/>
        <pt x="471" y="38" on="0"/>
        <pt x="479" y="13" on="0"/>
        <pt x="479" y="0" on="1"/>
        <pt x="479" y="-34" on="0"/>
        <pt x="432" y="-108" on="0"/>
        <pt x="404" y="-108" on="1"/>
        <pt x="401" y="-105" on="1"/>
        <pt x="399" y="-99" on="0"/>
        <pt x="397" y="-88" on="1"/>
        <pt x="386" y="-10" on="0"/>
        <pt x="343" y="-10" on="1"/>
        <pt x="330" y="-12" on="1"/>
        <pt x="303" y="-19" on="0"/>
      </contour>
      <contour>
        <pt x="407" y="282" on="1"/>
        <pt x="414" y="282" on="0"/>
        <pt x="416" y="272" on="1"/>
        <pt x="416" y="268" on="0"/>
        <pt x="423" y="214" on="0"/>
        <pt x="430" y="187" on="0"/>
        <pt x="434" y="177" on="1"/>
        <pt x="443" y="154" on="0"/>
        <pt x="457" y="154" on="1"/>
        <pt x="478" y="154" on="0"/>
        <pt x="561" y="282" on="0"/>
        <pt x="631" y="475" on="0"/>
        <pt x="631" y="548" on="1"/>
        <pt x="631" y="658" on="0"/>
        <pt x="551" y="658" on="1"/>
        <pt x="485" y="658" on="0"/>
        <pt x="319" y="488" on="0"/>
        <pt x="204" y="247" on="0"/>
        <pt x="204" y="152" on="1"/>
        <pt x="204" y="131" on="0"/>
        <pt x="211" y="90" on="0"/>
        <pt x="250" y="42" on="0"/>
        <pt x="284" y="42" on="1"/>
        <pt x="345" y="42" on="0"/>
        <pt x="345" y="65" on="1"/>
        <pt x="345" y="75" on="0"/>
        <pt x="323" y="113" on="0"/>
        <pt x="323" y="139" on="1"/>
        <pt x="323" y="187" on="0"/>
        <pt x="388" y="282" on="0"/>
      </contour>
    </TTGlyph>
    <TTGlyph name="R" xMin="-26" yMin="-26" xMax="748" yMax="707">
      <contour>
        <pt x="482" y="30" on="1"/>
        <pt x="484" y="0" on="1"/>
        <pt x="484" y="-16" on="0"/>
        <pt x="436" y="-16" on="1"/>
        <pt x="352" y="-16" on="0"/>
        <pt x="352" y="48" on="0"/>
        <pt x="441" y="260" on="0"/>
        <pt x="441" y="286" on="1"/>
        <pt x="441" y="339" on="0"/>
        <pt x="376" y="339" on="1"/>
        <pt x="360" y="338" on="1"/>
        <pt x="348" y="338" on="0"/>
        <pt x="348" y="347" on="1"/>
        <pt x="348" y="366" on="0"/>
        <pt x="377" y="405" on="0"/>
        <pt x="399" y="405" on="1"/>
        <pt x="490" y="405" on="0"/>
        <pt x="634" y="513" on="0"/>
        <pt x="634" y="573" on="1"/>
        <pt x="634" y="616" on="0"/>
        <pt x="581" y="650" on="0"/>
        <pt x="489" y="650" on="0"/>
        <pt x="465" y="622" on="1"/>
        <pt x="406" y="548" on="0"/>
        <pt x="145" y="77" on="0"/>
        <pt x="129" y="23" on="1"/>
        <pt x="120" y="-2" on="0"/>
        <pt x="45" y="-26" on="0"/>
        <pt x="-26" y="-26" on="0"/>
        <pt x="-26" y="-12" on="1"/>
        <pt x="-26" y="-10" on="1"/>
        <pt x="-26" y="1" on="0"/>
        <pt x="112" y="235" on="0"/>
        <pt x="279" y="522" on="0"/>
        <pt x="328" y="632" on="0"/>
        <pt x="328" y="670" on="1"/>
        <pt x="328" y="680" on="1"/>
        <pt x="328" y="707" on="0"/>
        <pt x="480" y="707" on="1"/>
        <pt x="643" y="707" on="0"/>
        <pt x="695" y="674" on="1"/>
        <pt x="717" y="660" on="0"/>
        <pt x="748" y="606" on="0"/>
        <pt x="748" y="522" on="0"/>
        <pt x="680" y="436" on="0"/>
        <pt x="603" y="395" on="0"/>
        <pt x="527" y="377" on="0"/>
        <pt x="489" y="365" on="0"/>
        <pt x="489" y="352" on="1"/>
        <pt x="489" y="344" on="0"/>
        <pt x="518" y="321" on="0"/>
        <pt x="548" y="289" on="0"/>
        <pt x="548" y="253" on="0"/>
        <pt x="482" y="82" on="0"/>
      </contour>
    </TTGlyph>
    <TTGlyph name="S" xMin="-13" yMin="-15" xMax="761" yMax="704">
      <contour>
        <pt x="555" y="234" on="1"/>
        <pt x="555" y="128" on="0"/>
        <pt x="380" y="-15" on="0"/>
        <pt x="244" y="-15" on="1"/>
        <pt x="169" y="-15" on="0"/>
        <pt x="130" y="7" on="1"/>
        <pt x="126" y="9" on="0"/>
        <pt x="116" y="9" on="0"/>
        <pt x="52" y="-13" on="0"/>
        <pt x="-13" y="-13" on="0"/>
        <pt x="-13" y="6" on="1"/>
        <pt x="-13" y="32" on="0"/>
        <pt x="113" y="251" on="0"/>
        <pt x="162" y="289" on="1"/>
        <pt x="183" y="305" on="0"/>
        <pt x="223" y="305" on="0"/>
        <pt x="223" y="294" on="1"/>
        <pt x="223" y="292" on="0"/>
        <pt x="196" y="247" on="0"/>
        <pt x="169" y="173" on="0"/>
        <pt x="169" y="120" on="0"/>
        <pt x="180" y="84" on="0"/>
        <pt x="225" y="47" on="0"/>
        <pt x="290" y="47" on="0"/>
        <pt x="347" y="63" on="0"/>
        <pt x="403" y="97" on="0"/>
        <pt x="439" y="163" on="0"/>
        <pt x="439" y="250" on="0"/>
        <pt x="385" y="340" on="0"/>
        <pt x="321" y="403" on="0"/>
        <pt x="267" y="484" on="0"/>
        <pt x="267" y="561" on="0"/>
        <pt x="308" y="627" on="0"/>
        <pt x="369" y="666" on="0"/>
        <pt x="408" y="679" on="1"/>
        <pt x="474" y="701" on="0"/>
        <pt x="576" y="701" on="0"/>
        <pt x="625" y="692" on="0"/>
        <pt x="650" y="684" on="0"/>
        <pt x="656" y="684" on="0"/>
        <pt x="661" y="687" on="1"/>
        <pt x="691" y="704" on="0"/>
        <pt x="761" y="704" on="0"/>
        <pt x="761" y="687" on="1"/>
        <pt x="761" y="659" on="0"/>
        <pt x="628" y="464" on="0"/>
        <pt x="595" y="464" on="1"/>
        <pt x="568" y="464" on="0"/>
        <pt x="568" y="476" on="1"/>
        <pt x="568" y="478" on="0"/>
        <pt x="575" y="490" on="1"/>
        <pt x="597" y="530" on="0"/>
        <pt x="597" y="581" on="1"/>
        <pt x="597" y="609" on="0"/>
        <pt x="549" y="640" on="0"/>
        <pt x="498" y="640" on="0"/>
        <pt x="445" y="624" on="0"/>
        <pt x="392" y="576" on="0"/>
        <pt x="392" y="509" on="0"/>
        <pt x="443" y="436" on="0"/>
        <pt x="504" y="375" on="0"/>
        <pt x="555" y="282" on="0"/>
      </contour>
    </TTGlyph>
    <TTGlyph name="Scaron" xMin="-13" yMin="-15" xMax="761" yMax="854">
      <contour>
        <pt x="555" y="234" on="1"/>
        <pt x="555" y="128" on="0"/>
        <pt x="380" y="-15" on="0"/>
        <pt x="244" y="-15" on="1"/>
        <pt x="169" y="-15" on="0"/>
        <pt x="130" y="7" on="1"/>
        <pt x="126" y="9" on="0"/>
        <pt x="116" y="9" on="0"/>
        <pt x="52" y="-13" on="0"/>
        <pt x="-13" y="-13" on="0"/>
        <pt x="-13" y="6" on="1"/>
        <pt x="-13" y="32" on="0"/>
        <pt x="113" y="251" on="0"/>
        <pt x="162" y="289" on="1"/>
        <pt x="183" y="305" on="0"/>
        <pt x="223" y="305" on="0"/>
        <pt x="223" y="294" on="1"/>
        <pt x="223" y="292" on="0"/>
        <pt x="196" y="247" on="0"/>
        <pt x="169" y="173" on="0"/>
        <pt x="169" y="120" on="0"/>
        <pt x="180" y="84" on="0"/>
        <pt x="225" y="47" on="0"/>
        <pt x="290" y="47" on="0"/>
        <pt x="347" y="63" on="0"/>
        <pt x="403" y="97" on="0"/>
        <pt x="439" y="163" on="0"/>
        <pt x="439" y="250" on="0"/>
        <pt x="385" y="340" on="0"/>
        <pt x="321" y="403" on="0"/>
        <pt x="267" y="484" on="0"/>
        <pt x="267" y="561" on="0"/>
        <pt x="308" y="627" on="0"/>
        <pt x="369" y="666" on="0"/>
        <pt x="408" y="679" on="1"/>
        <pt x="474" y="701" on="0"/>
        <pt x="576" y="701" on="0"/>
        <pt x="625" y="692" on="0"/>
        <pt x="650" y="684" on="0"/>
        <pt x="656" y="684" on="0"/>
        <pt x="661" y="687" on="1"/>
        <pt x="691" y="704" on="0"/>
        <pt x="761" y="704" on="0"/>
        <pt x="761" y="687" on="1"/>
        <pt x="761" y="659" on="0"/>
        <pt x="628" y="464" on="0"/>
        <pt x="595" y="464" on="1"/>
        <pt x="568" y="464" on="0"/>
        <pt x="568" y="476" on="1"/>
        <pt x="568" y="478" on="0"/>
        <pt x="575" y="490" on="1"/>
        <pt x="597" y="530" on="0"/>
        <pt x="597" y="581" on="1"/>
        <pt x="597" y="609" on="0"/>
        <pt x="549" y="640" on="0"/>
        <pt x="498" y="640" on="0"/>
        <pt x="445" y="624" on="0"/>
        <pt x="392" y="576" on="0"/>
        <pt x="392" y="509" on="0"/>
        <pt x="443" y="436" on="0"/>
        <pt x="504" y="375" on="0"/>
        <pt x="555" y="282" on="0"/>
      </contour>
      <contour>
        <pt x="596" y="811" on="1"/>
        <pt x="650" y="847" on="0"/>
        <pt x="710" y="847" on="0"/>
        <pt x="710" y="839" on="1"/>
        <pt x="710" y="836" on="0"/>
        <pt x="700" y="826" on="1"/>
        <pt x="651" y="777" on="0"/>
        <pt x="641" y="763" on="1"/>
        <pt x="626" y="742" on="0"/>
        <pt x="597" y="742" on="0"/>
        <pt x="577" y="759" on="0"/>
        <pt x="566" y="759" on="0"/>
        <pt x="562" y="756" on="1"/>
        <pt x="539" y="740" on="0"/>
        <pt x="515" y="740" on="1"/>
        <pt x="504" y="742" on="0"/>
        <pt x="504" y="752" on="1"/>
        <pt x="504" y="758" on="0"/>
        <pt x="523" y="811" on="0"/>
        <pt x="527" y="842" on="1"/>
        <pt x="527" y="854" on="0"/>
        <pt x="545" y="854" on="0"/>
        <pt x="569" y="829" on="0"/>
        <pt x="577" y="813" on="1"/>
        <pt x="580" y="809" on="0"/>
        <pt x="585" y="809" on="1"/>
      </contour>
    </TTGlyph>
    <TTGlyph name="T" xMin="21" yMin="-28" xMax="719" yMax="713">
      <contour>
        <pt x="705" y="713" on="1"/>
        <pt x="719" y="713" on="0"/>
        <pt x="719" y="674" on="0"/>
        <pt x="641" y="532" on="0"/>
        <pt x="615" y="496" on="1"/>
        <pt x="599" y="472" on="0"/>
        <pt x="556" y="472" on="0"/>
        <pt x="556" y="486" on="1"/>
        <pt x="557" y="495" on="1"/>
        <pt x="570" y="544" on="0"/>
        <pt x="570" y="578" on="1"/>
        <pt x="570" y="630" on="0"/>
        <pt x="542" y="630" on="1"/>
        <pt x="530" y="630" on="0"/>
        <pt x="506" y="613" on="0"/>
        <pt x="500" y="604" on="1"/>
        <pt x="494" y="595" on="1"/>
        <pt x="480" y="572" on="0"/>
        <pt x="325" y="309" on="1"/>
        <pt x="290" y="249" on="0"/>
        <pt x="216" y="96" on="0"/>
        <pt x="170" y="9" on="0"/>
        <pt x="124" y="-28" on="0"/>
        <pt x="21" y="-28" on="0"/>
        <pt x="21" y="-11" on="1"/>
        <pt x="21" y="-8" on="1"/>
        <pt x="21" y="2" on="0"/>
        <pt x="74" y="86" on="1"/>
        <pt x="269" y="393" on="0"/>
        <pt x="369" y="588" on="1"/>
        <pt x="378" y="606" on="0"/>
        <pt x="378" y="614" on="1"/>
        <pt x="378" y="627" on="0"/>
        <pt x="361" y="627" on="1"/>
        <pt x="306" y="627" on="0"/>
        <pt x="193" y="503" on="1"/>
        <pt x="182" y="483" on="0"/>
        <pt x="142" y="483" on="1"/>
        <pt x="133" y="483" on="0"/>
        <pt x="133" y="492" on="1"/>
        <pt x="133" y="499" on="0"/>
        <pt x="146" y="521" on="1"/>
        <pt x="166" y="557" on="1"/>
        <pt x="254" y="711" on="0"/>
        <pt x="281" y="711" on="1"/>
        <pt x="333" y="711" on="0"/>
        <pt x="359" y="691" on="1"/>
        <pt x="429" y="693" on="0"/>
        <pt x="547" y="693" on="0"/>
        <pt x="605" y="691" on="1"/>
        <pt x="655" y="713" on="0"/>
      </contour>
    </TTGlyph>
    <TTGlyph name="Thorn" xMin="-28" yMin="-46" xMax="709" yMax="701">
      <contour>
        <pt x="421" y="576" on="1"/>
        <pt x="484" y="577" on="1"/>
        <pt x="610" y="577" on="0"/>
        <pt x="709" y="508" on="0"/>
        <pt x="709" y="441" on="1"/>
        <pt x="709" y="376" on="0"/>
        <pt x="651" y="268" on="0"/>
        <pt x="578" y="201" on="0"/>
        <pt x="440" y="153" on="0"/>
        <pt x="349" y="153" on="1"/>
        <pt x="188" y="153" on="0"/>
        <pt x="152" y="69" on="1"/>
        <pt x="129" y="13" on="0"/>
        <pt x="127" y="7" on="1"/>
        <pt x="119" y="-16" on="0"/>
        <pt x="57" y="-43" on="0"/>
        <pt x="30" y="-44" on="1"/>
        <pt x="2" y="-46" on="1"/>
        <pt x="-28" y="-46" on="0"/>
        <pt x="-28" y="-33" on="1"/>
        <pt x="-28" y="-30" on="1"/>
        <pt x="-28" y="-3" on="0"/>
        <pt x="150" y="290" on="1"/>
        <pt x="216" y="399" on="0"/>
        <pt x="328" y="618" on="0"/>
        <pt x="328" y="659" on="1"/>
        <pt x="328" y="675" on="1"/>
        <pt x="328" y="701" on="0"/>
        <pt x="435" y="701" on="1"/>
        <pt x="489" y="701" on="0"/>
        <pt x="489" y="681" on="1"/>
        <pt x="489" y="673" on="0"/>
        <pt x="464" y="643" on="0"/>
      </contour>
      <contour>
        <pt x="362" y="456" on="0"/>
        <pt x="253" y="249" on="0"/>
        <pt x="253" y="224" on="0"/>
        <pt x="281" y="216" on="0"/>
        <pt x="388" y="216" on="0"/>
        <pt x="489" y="254" on="0"/>
        <pt x="547" y="308" on="0"/>
        <pt x="566" y="341" on="1"/>
        <pt x="598" y="397" on="0"/>
        <pt x="598" y="467" on="0"/>
        <pt x="579" y="502" on="0"/>
        <pt x="560" y="509" on="1"/>
        <pt x="531" y="520" on="0"/>
        <pt x="454" y="520" on="0"/>
        <pt x="390" y="498" on="0"/>
        <pt x="382" y="486" on="1"/>
      </contour>
    </TTGlyph>
    <TTGlyph name="U" xMin="50" yMin="-25" xMax="822" yMax="720">
      <contour>
        <pt x="217" y="-25" on="1"/>
        <pt x="145" y="-25" on="0"/>
        <pt x="50" y="43" on="0"/>
        <pt x="50" y="105" on="1"/>
        <pt x="50" y="145" on="0"/>
        <pt x="129" y="302" on="0"/>
        <pt x="266" y="530" on="0"/>
        <pt x="325" y="647" on="0"/>
        <pt x="325" y="684" on="1"/>
        <pt x="325" y="694" on="0"/>
        <pt x="331" y="700" on="1"/>
        <pt x="345" y="714" on="0"/>
        <pt x="427" y="714" on="1"/>
        <pt x="481" y="714" on="0"/>
        <pt x="481" y="693" on="1"/>
        <pt x="481" y="683" on="0"/>
        <pt x="474" y="676" on="1"/>
        <pt x="419" y="599" on="0"/>
        <pt x="191" y="205" on="0"/>
        <pt x="191" y="151" on="1"/>
        <pt x="191" y="72" on="0"/>
        <pt x="263" y="72" on="1"/>
        <pt x="328" y="72" on="0"/>
        <pt x="364" y="106" on="1"/>
        <pt x="391" y="133" on="0"/>
        <pt x="409" y="162" on="1"/>
        <pt x="449" y="223" on="0"/>
        <pt x="577" y="484" on="0"/>
        <pt x="678" y="687" on="0"/>
        <pt x="719" y="720" on="0"/>
        <pt x="822" y="720" on="0"/>
        <pt x="822" y="708" on="1"/>
        <pt x="822" y="700" on="0"/>
        <pt x="787" y="658" on="0"/>
        <pt x="719" y="554" on="0"/>
        <pt x="630" y="410" on="0"/>
        <pt x="564" y="300" on="0"/>
        <pt x="475" y="149" on="0"/>
        <pt x="467" y="136" on="1"/>
        <pt x="373" y="-25" on="0"/>
      </contour>
    </TTGlyph>
    <TTGlyph name="Uacute" xMin="50" yMin="-25" xMax="822" yMax="858">
      <contour>
        <pt x="217" y="-25" on="1"/>
        <pt x="145" y="-25" on="0"/>
        <pt x="50" y="43" on="0"/>
        <pt x="50" y="105" on="1"/>
        <pt x="50" y="145" on="0"/>
        <pt x="129" y="302" on="0"/>
        <pt x="266" y="530" on="0"/>
        <pt x="325" y="647" on="0"/>
        <pt x="325" y="684" on="1"/>
        <pt x="325" y="694" on="0"/>
        <pt x="337" y="706" on="0"/>
        <pt x="383" y="714" on="0"/>
        <pt x="481" y="714" on="0"/>
        <pt x="481" y="693" on="1"/>
        <pt x="481" y="684" on="0"/>
        <pt x="474" y="676" on="1"/>
        <pt x="419" y="599" on="0"/>
        <pt x="191" y="205" on="0"/>
        <pt x="191" y="151" on="1"/>
        <pt x="191" y="72" on="0"/>
        <pt x="263" y="72" on="1"/>
        <pt x="295" y="72" on="0"/>
        <pt x="356" y="92" on="0"/>
        <pt x="390" y="134" on="1"/>
        <pt x="429" y="182" on="0"/>
        <pt x="513" y="354" on="1"/>
        <pt x="577" y="484" on="0"/>
        <pt x="678" y="687" on="0"/>
        <pt x="719" y="720" on="0"/>
        <pt x="822" y="720" on="0"/>
        <pt x="822" y="708" on="1"/>
        <pt x="822" y="700" on="0"/>
        <pt x="771" y="638" on="0"/>
        <pt x="674" y="482" on="1"/>
        <pt x="630" y="410" on="0"/>
        <pt x="564" y="300" on="0"/>
        <pt x="475" y="149" on="0"/>
        <pt x="467" y="136" on="1"/>
        <pt x="373" y="-25" on="0"/>
      </contour>
      <contour>
        <pt x="699" y="827" on="0"/>
        <pt x="699" y="795" on="0"/>
        <pt x="592" y="746" on="0"/>
        <pt x="551" y="746" on="0"/>
        <pt x="551" y="754" on="1"/>
        <pt x="551" y="758" on="0"/>
        <pt x="611" y="818" on="0"/>
        <pt x="625" y="836" on="0"/>
        <pt x="632" y="846" on="0"/>
        <pt x="636" y="851" on="0"/>
        <pt x="638" y="854" on="1"/>
        <pt x="643" y="858" on="0"/>
        <pt x="660" y="858" on="0"/>
      </contour>
    </TTGlyph>
    <TTGlyph name="Ucircumflex" xMin="50" yMin="-25" xMax="822" yMax="856">
      <contour>
        <pt x="217" y="-25" on="1"/>
        <pt x="145" y="-25" on="0"/>
        <pt x="50" y="43" on="0"/>
        <pt x="50" y="105" on="1"/>
        <pt x="50" y="145" on="0"/>
        <pt x="129" y="302" on="0"/>
        <pt x="266" y="530" on="0"/>
        <pt x="325" y="647" on="0"/>
        <pt x="325" y="684" on="1"/>
        <pt x="325" y="694" on="0"/>
        <pt x="337" y="706" on="0"/>
        <pt x="383" y="714" on="0"/>
        <pt x="481" y="714" on="0"/>
        <pt x="481" y="693" on="1"/>
        <pt x="481" y="684" on="0"/>
        <pt x="474" y="676" on="1"/>
        <pt x="419" y="599" on="0"/>
        <pt x="191" y="205" on="0"/>
        <pt x="191" y="151" on="1"/>
        <pt x="191" y="72" on="0"/>
        <pt x="263" y="72" on="1"/>
        <pt x="295" y="72" on="0"/>
        <pt x="356" y="92" on="0"/>
        <pt x="390" y="134" on="1"/>
        <pt x="429" y="182" on="0"/>
        <pt x="513" y="354" on="1"/>
        <pt x="577" y="484" on="0"/>
        <pt x="678" y="687" on="0"/>
        <pt x="719" y="720" on="0"/>
        <pt x="822" y="720" on="0"/>
        <pt x="822" y="708" on="1"/>
        <pt x="822" y="700" on="0"/>
        <pt x="771" y="638" on="0"/>
        <pt x="674" y="482" on="1"/>
        <pt x="630" y="410" on="0"/>
        <pt x="564" y="300" on="0"/>
        <pt x="475" y="149" on="0"/>
        <pt x="467" y="136" on="1"/>
        <pt x="373" y="-25" on="0"/>
      </contour>
      <contour>
        <pt x="709" y="845" on="1"/>
        <pt x="686" y="755" on="1"/>
        <pt x="686" y="742" on="0"/>
        <pt x="677" y="742" on="1"/>
        <pt x="657" y="742" on="0"/>
        <pt x="636" y="783" on="1"/>
        <pt x="633" y="789" on="0"/>
        <pt x="623" y="789" on="0"/>
        <pt x="617" y="785" on="1"/>
        <pt x="563" y="749" on="0"/>
        <pt x="503" y="749" on="0"/>
        <pt x="503" y="757" on="1"/>
        <pt x="503" y="760" on="0"/>
        <pt x="514" y="770" on="1"/>
        <pt x="560" y="816" on="0"/>
        <pt x="582" y="848" on="0"/>
        <pt x="592" y="855" on="0"/>
        <pt x="617" y="855" on="0"/>
        <pt x="631" y="841" on="1"/>
        <pt x="636" y="837" on="0"/>
        <pt x="646" y="837" on="0"/>
        <pt x="677" y="856" on="0"/>
        <pt x="699" y="856" on="1"/>
        <pt x="709" y="855" on="0"/>
      </contour>
    </TTGlyph>
    <TTGlyph name="Udieresis" xMin="50" yMin="-25" xMax="822" yMax="836">
      <contour>
        <pt x="217" y="-25" on="1"/>
        <pt x="145" y="-25" on="0"/>
        <pt x="50" y="43" on="0"/>
        <pt x="50" y="105" on="1"/>
        <pt x="50" y="145" on="0"/>
        <pt x="129" y="302" on="0"/>
        <pt x="266" y="530" on="0"/>
        <pt x="325" y="647" on="0"/>
        <pt x="325" y="684" on="1"/>
        <pt x="325" y="694" on="0"/>
        <pt x="331" y="700" on="1"/>
        <pt x="345" y="714" on="0"/>
        <pt x="427" y="714" on="1"/>
        <pt x="481" y="714" on="0"/>
        <pt x="481" y="693" on="1"/>
        <pt x="481" y="683" on="0"/>
        <pt x="474" y="676" on="1"/>
        <pt x="419" y="599" on="0"/>
        <pt x="191" y="205" on="0"/>
        <pt x="191" y="151" on="1"/>
        <pt x="191" y="72" on="0"/>
        <pt x="263" y="72" on="1"/>
        <pt x="328" y="72" on="0"/>
        <pt x="364" y="106" on="1"/>
        <pt x="391" y="133" on="0"/>
        <pt x="409" y="162" on="1"/>
        <pt x="449" y="223" on="0"/>
        <pt x="577" y="484" on="0"/>
        <pt x="678" y="687" on="0"/>
        <pt x="719" y="720" on="0"/>
        <pt x="822" y="720" on="0"/>
        <pt x="822" y="708" on="1"/>
        <pt x="822" y="700" on="0"/>
        <pt x="787" y="658" on="0"/>
        <pt x="719" y="554" on="0"/>
        <pt x="630" y="410" on="0"/>
        <pt x="564" y="300" on="0"/>
        <pt x="475" y="149" on="0"/>
        <pt x="467" y="136" on="1"/>
        <pt x="373" y="-25" on="0"/>
      </contour>
      <contour>
        <pt x="546" y="836" on="1"/>
        <pt x="583" y="836" on="0"/>
        <pt x="583" y="804" on="1"/>
        <pt x="583" y="788" on="0"/>
        <pt x="541" y="752" on="0"/>
        <pt x="519" y="752" on="1"/>
        <pt x="476" y="752" on="0"/>
        <pt x="476" y="781" on="1"/>
        <pt x="476" y="801" on="0"/>
        <pt x="519" y="836" on="0"/>
      </contour>
      <contour>
        <pt x="731" y="836" on="1"/>
        <pt x="768" y="836" on="0"/>
        <pt x="768" y="804" on="1"/>
        <pt x="768" y="788" on="0"/>
        <pt x="727" y="752" on="0"/>
        <pt x="704" y="752" on="1"/>
        <pt x="661" y="752" on="0"/>
        <pt x="661" y="781" on="1"/>
        <pt x="661" y="801" on="0"/>
        <pt x="704" y="836" on="0"/>
      </contour>
    </TTGlyph>
    <TTGlyph name="Ugrave" xMin="50" yMin="-25" xMax="822" yMax="863">
      <contour>
        <pt x="217" y="-25" on="1"/>
        <pt x="145" y="-25" on="0"/>
        <pt x="50" y="43" on="0"/>
        <pt x="50" y="105" on="1"/>
        <pt x="50" y="145" on="0"/>
        <pt x="129" y="302" on="0"/>
        <pt x="266" y="530" on="0"/>
        <pt x="325" y="647" on="0"/>
        <pt x="325" y="684" on="1"/>
        <pt x="325" y="694" on="0"/>
        <pt x="331" y="700" on="1"/>
        <pt x="345" y="714" on="0"/>
        <pt x="427" y="714" on="1"/>
        <pt x="481" y="714" on="0"/>
        <pt x="481" y="693" on="1"/>
        <pt x="481" y="683" on="0"/>
        <pt x="474" y="676" on="1"/>
        <pt x="419" y="599" on="0"/>
        <pt x="191" y="205" on="0"/>
        <pt x="191" y="151" on="1"/>
        <pt x="191" y="72" on="0"/>
        <pt x="263" y="72" on="1"/>
        <pt x="328" y="72" on="0"/>
        <pt x="364" y="106" on="1"/>
        <pt x="391" y="133" on="0"/>
        <pt x="409" y="162" on="1"/>
        <pt x="449" y="223" on="0"/>
        <pt x="577" y="484" on="0"/>
        <pt x="678" y="687" on="0"/>
        <pt x="719" y="720" on="0"/>
        <pt x="822" y="720" on="0"/>
        <pt x="822" y="708" on="1"/>
        <pt x="822" y="700" on="0"/>
        <pt x="787" y="658" on="0"/>
        <pt x="719" y="554" on="0"/>
        <pt x="630" y="410" on="0"/>
        <pt x="564" y="300" on="0"/>
        <pt x="475" y="149" on="0"/>
        <pt x="467" y="136" on="1"/>
        <pt x="373" y="-25" on="0"/>
      </contour>
      <contour>
        <pt x="522" y="839" on="0"/>
        <pt x="564" y="863" on="0"/>
        <pt x="581" y="863" on="0"/>
        <pt x="588" y="858" on="0"/>
        <pt x="591" y="853" on="0"/>
        <pt x="594" y="846" on="1"/>
        <pt x="600" y="835" on="1"/>
        <pt x="610" y="817" on="0"/>
        <pt x="625" y="796" on="1"/>
        <pt x="658" y="748" on="0"/>
        <pt x="658" y="740" on="0"/>
        <pt x="648" y="740" on="1"/>
        <pt x="641" y="740" on="1"/>
        <pt x="617" y="744" on="0"/>
        <pt x="522" y="807" on="0"/>
      </contour>
    </TTGlyph>
    <TTGlyph name="V" xMin="39" yMin="-17" xMax="818" yMax="726">
      <contour>
        <pt x="219" y="666" on="1"/>
        <pt x="217" y="687" on="1"/>
        <pt x="217" y="713" on="0"/>
        <pt x="311" y="713" on="1"/>
        <pt x="368" y="713" on="0"/>
        <pt x="368" y="683" on="1"/>
        <pt x="368" y="664" on="0"/>
        <pt x="220" y="219" on="0"/>
        <pt x="220" y="175" on="0"/>
        <pt x="240" y="175" on="1"/>
        <pt x="256" y="175" on="0"/>
        <pt x="264" y="183" on="1"/>
        <pt x="274" y="193" on="1"/>
        <pt x="276" y="195" on="0"/>
        <pt x="288" y="208" on="0"/>
        <pt x="291" y="211" on="1"/>
        <pt x="331" y="251" on="0"/>
        <pt x="590" y="598" on="0"/>
        <pt x="633" y="683" on="1"/>
        <pt x="644" y="705" on="0"/>
        <pt x="658" y="712" on="1"/>
        <pt x="683" y="724" on="0"/>
        <pt x="746" y="726" on="1"/>
        <pt x="766" y="726" on="1"/>
        <pt x="818" y="726" on="0"/>
        <pt x="818" y="709" on="1"/>
        <pt x="818" y="702" on="0"/>
        <pt x="809" y="693" on="1"/>
        <pt x="713" y="600" on="0"/>
        <pt x="298" y="130" on="0"/>
        <pt x="255" y="56" on="1"/>
        <pt x="240" y="30" on="0"/>
        <pt x="214" y="4" on="0"/>
        <pt x="144" y="-17" on="0"/>
        <pt x="39" y="-17" on="0"/>
        <pt x="39" y="7" on="1"/>
        <pt x="42" y="18" on="1"/>
        <pt x="74" y="111" on="0"/>
        <pt x="188" y="496" on="0"/>
        <pt x="209" y="588" on="1"/>
        <pt x="219" y="648" on="0"/>
      </contour>
    </TTGlyph>
    <TTGlyph name="W" xMin="34" yMin="-17" xMax="1162" yMax="726">
      <contour>
        <pt x="219" y="664" on="1"/>
        <pt x="218" y="686" on="1"/>
        <pt x="218" y="713" on="0"/>
        <pt x="311" y="713" on="1"/>
        <pt x="369" y="713" on="0"/>
        <pt x="369" y="684" on="1"/>
        <pt x="369" y="679" on="0"/>
        <pt x="367" y="677" on="1"/>
        <pt x="360" y="638" on="0"/>
        <pt x="216" y="218" on="0"/>
        <pt x="216" y="175" on="0"/>
        <pt x="236" y="175" on="1"/>
        <pt x="251" y="175" on="0"/>
        <pt x="259" y="183" on="1"/>
        <pt x="273" y="197" on="0"/>
        <pt x="315" y="239" on="0"/>
        <pt x="503" y="500" on="0"/>
        <pt x="560" y="595" on="1"/>
        <pt x="579" y="633" on="0"/>
        <pt x="686" y="633" on="1"/>
        <pt x="713" y="633" on="0"/>
        <pt x="713" y="616" on="1"/>
        <pt x="706" y="597" on="1"/>
        <pt x="676" y="536" on="0"/>
        <pt x="574" y="228" on="0"/>
        <pt x="574" y="175" on="0"/>
        <pt x="594" y="175" on="1"/>
        <pt x="609" y="175" on="0"/>
        <pt x="617" y="183" on="1"/>
        <pt x="631" y="197" on="0"/>
        <pt x="645" y="211" on="1"/>
        <pt x="682" y="248" on="0"/>
        <pt x="933" y="597" on="0"/>
        <pt x="977" y="683" on="1"/>
        <pt x="988" y="705" on="0"/>
        <pt x="1002" y="712" on="1"/>
        <pt x="1027" y="724" on="0"/>
        <pt x="1090" y="726" on="1"/>
        <pt x="1110" y="726" on="1"/>
        <pt x="1162" y="726" on="0"/>
        <pt x="1162" y="709" on="1"/>
        <pt x="1162" y="702" on="0"/>
        <pt x="1153" y="693" on="1"/>
        <pt x="1055" y="600" on="0"/>
        <pt x="676" y="155" on="0"/>
        <pt x="608" y="56" on="1"/>
        <pt x="594" y="35" on="0"/>
        <pt x="578" y="17" on="0"/>
        <pt x="560" y="5" on="1"/>
        <pt x="526" y="-17" on="0"/>
        <pt x="441" y="-17" on="1"/>
        <pt x="392" y="-17" on="0"/>
        <pt x="392" y="7" on="1"/>
        <pt x="395" y="18" on="1"/>
        <pt x="401" y="37" on="0"/>
        <pt x="433" y="127" on="0"/>
        <pt x="455" y="189" on="0"/>
        <pt x="468" y="226" on="1"/>
        <pt x="493" y="301" on="0"/>
        <pt x="493" y="335" on="0"/>
        <pt x="478" y="335" on="1"/>
        <pt x="462" y="335" on="0"/>
        <pt x="442" y="311" on="1"/>
        <pt x="363" y="217" on="0"/>
        <pt x="250" y="56" on="1"/>
        <pt x="231" y="29" on="0"/>
        <pt x="209" y="6" on="0"/>
        <pt x="139" y="-17" on="0"/>
        <pt x="34" y="-17" on="0"/>
        <pt x="34" y="7" on="1"/>
        <pt x="37" y="18" on="1"/>
        <pt x="72" y="119" on="0"/>
        <pt x="189" y="499" on="0"/>
        <pt x="210" y="588" on="1"/>
        <pt x="219" y="639" on="0"/>
      </contour>
    </TTGlyph>
    <TTGlyph name="X" xMin="-51" yMin="-25" xMax="880" yMax="711">
      <contour>
        <pt x="369" y="223" on="1"/>
        <pt x="370" y="245" on="1"/>
        <pt x="370" y="265" on="0"/>
        <pt x="354" y="265" on="1"/>
        <pt x="341" y="265" on="0"/>
        <pt x="321" y="249" on="1"/>
        <pt x="264" y="199" on="0"/>
        <pt x="138" y="66" on="0"/>
        <pt x="97" y="10" on="0"/>
        <pt x="84" y="-3" on="0"/>
        <pt x="26" y="-25" on="0"/>
        <pt x="-51" y="-25" on="0"/>
        <pt x="-51" y="-13" on="1"/>
        <pt x="-51" y="12" on="0"/>
        <pt x="342" y="344" on="1"/>
        <pt x="377" y="372" on="0"/>
        <pt x="379" y="417" on="1"/>
        <pt x="383" y="491" on="0"/>
        <pt x="383" y="527" on="1"/>
        <pt x="383" y="628" on="0"/>
        <pt x="366" y="679" on="1"/>
        <pt x="361" y="694" on="1"/>
        <pt x="361" y="711" on="0"/>
        <pt x="435" y="711" on="1"/>
        <pt x="471" y="711" on="0"/>
        <pt x="501" y="688" on="0"/>
        <pt x="501" y="626" on="0"/>
        <pt x="494" y="526" on="1"/>
        <pt x="494" y="499" on="0"/>
        <pt x="513" y="499" on="1"/>
        <pt x="523" y="499" on="0"/>
        <pt x="536" y="510" on="1"/>
        <pt x="668" y="627" on="0"/>
        <pt x="715" y="687" on="0"/>
        <pt x="730" y="694" on="1"/>
        <pt x="760" y="706" on="0"/>
        <pt x="814" y="708" on="1"/>
        <pt x="831" y="708" on="1"/>
        <pt x="880" y="708" on="0"/>
        <pt x="880" y="692" on="1"/>
        <pt x="880" y="683" on="0"/>
        <pt x="866" y="675" on="1"/>
        <pt x="739" y="603" on="0"/>
        <pt x="531" y="433" on="1"/>
        <pt x="526" y="430" on="0"/>
        <pt x="511" y="419" on="0"/>
        <pt x="485" y="377" on="0"/>
        <pt x="483" y="352" on="1"/>
        <pt x="476" y="226" on="0"/>
        <pt x="476" y="144" on="1"/>
        <pt x="476" y="50" on="0"/>
        <pt x="490" y="22" on="1"/>
        <pt x="494" y="14" on="0"/>
        <pt x="494" y="9" on="1"/>
        <pt x="494" y="-6" on="0"/>
        <pt x="433" y="-19" on="0"/>
        <pt x="377" y="-19" on="0"/>
        <pt x="361" y="5" on="0"/>
        <pt x="361" y="79" on="0"/>
      </contour>
    </TTGlyph>
    <TTGlyph name="Y" xMin="17" yMin="-29" xMax="788" yMax="714">
      <contour>
        <pt x="192" y="514" on="1"/>
        <pt x="191" y="620" on="1"/>
        <pt x="191" y="662" on="0"/>
        <pt x="179" y="686" on="0"/>
        <pt x="179" y="694" on="1"/>
        <pt x="179" y="714" on="0"/>
        <pt x="336" y="714" on="0"/>
        <pt x="336" y="677" on="1"/>
        <pt x="336" y="652" on="0"/>
        <pt x="303" y="461" on="0"/>
        <pt x="301" y="390" on="0"/>
        <pt x="321" y="390" on="1"/>
        <pt x="333" y="390" on="0"/>
        <pt x="348" y="403" on="1"/>
        <pt x="409" y="457" on="0"/>
        <pt x="561" y="622" on="0"/>
        <pt x="611" y="687" on="0"/>
        <pt x="628" y="694" on="1"/>
        <pt x="664" y="708" on="0"/>
        <pt x="714" y="710" on="1"/>
        <pt x="731" y="710" on="1"/>
        <pt x="788" y="710" on="0"/>
        <pt x="788" y="692" on="1"/>
        <pt x="788" y="682" on="0"/>
        <pt x="771" y="672" on="1"/>
        <pt x="707" y="635" on="0"/>
        <pt x="394" y="373" on="0"/>
        <pt x="322" y="296" on="1"/>
        <pt x="293" y="265" on="0"/>
        <pt x="155" y="8" on="0"/>
        <pt x="130" y="-9" on="1"/>
        <pt x="107" y="-29" on="0"/>
        <pt x="17" y="-29" on="0"/>
        <pt x="17" y="-12" on="1"/>
        <pt x="17" y="-9" on="1"/>
        <pt x="17" y="-2" on="0"/>
        <pt x="50" y="53" on="1"/>
        <pt x="157" y="228" on="0"/>
        <pt x="170" y="273" on="1"/>
        <pt x="192" y="345" on="0"/>
      </contour>
    </TTGlyph>
    <TTGlyph name="Yacute" xMin="17" yMin="-29" xMax="788" yMax="848">
      <contour>
        <pt x="191" y="620" on="1"/>
        <pt x="191" y="662" on="0"/>
        <pt x="179" y="686" on="0"/>
        <pt x="179" y="694" on="1"/>
        <pt x="179" y="714" on="0"/>
        <pt x="336" y="714" on="0"/>
        <pt x="336" y="677" on="1"/>
        <pt x="336" y="652" on="0"/>
        <pt x="303" y="461" on="0"/>
        <pt x="301" y="422" on="1"/>
        <pt x="303" y="390" on="0"/>
        <pt x="321" y="390" on="1"/>
        <pt x="333" y="390" on="0"/>
        <pt x="348" y="403" on="1"/>
        <pt x="409" y="457" on="0"/>
        <pt x="561" y="622" on="0"/>
        <pt x="611" y="687" on="0"/>
        <pt x="629" y="694" on="1"/>
        <pt x="668" y="710" on="0"/>
        <pt x="788" y="710" on="0"/>
        <pt x="788" y="692" on="1"/>
        <pt x="788" y="682" on="0"/>
        <pt x="771" y="672" on="1"/>
        <pt x="707" y="635" on="0"/>
        <pt x="394" y="373" on="0"/>
        <pt x="322" y="296" on="1"/>
        <pt x="293" y="265" on="0"/>
        <pt x="155" y="8" on="0"/>
        <pt x="130" y="-9" on="1"/>
        <pt x="107" y="-29" on="0"/>
        <pt x="17" y="-29" on="0"/>
        <pt x="17" y="-12" on="1"/>
        <pt x="17" y="-9" on="1"/>
        <pt x="17" y="-2" on="0"/>
        <pt x="50" y="53" on="1"/>
        <pt x="157" y="228" on="0"/>
        <pt x="170" y="273" on="1"/>
        <pt x="192" y="345" on="0"/>
        <pt x="192" y="514" on="1"/>
      </contour>
      <contour>
        <pt x="580" y="817" on="0"/>
        <pt x="580" y="785" on="0"/>
        <pt x="473" y="736" on="0"/>
        <pt x="432" y="736" on="0"/>
        <pt x="432" y="744" on="1"/>
        <pt x="432" y="748" on="0"/>
        <pt x="492" y="808" on="0"/>
        <pt x="506" y="826" on="0"/>
        <pt x="513" y="836" on="0"/>
        <pt x="517" y="841" on="0"/>
        <pt x="520" y="844" on="1"/>
        <pt x="524" y="848" on="0"/>
        <pt x="541" y="848" on="0"/>
      </contour>
    </TTGlyph>
    <TTGlyph name="Ydieresis" xMin="17" yMin="-29" xMax="788" yMax="828">
      <contour>
        <pt x="192" y="514" on="1"/>
        <pt x="191" y="620" on="1"/>
        <pt x="191" y="662" on="0"/>
        <pt x="179" y="686" on="0"/>
        <pt x="179" y="694" on="1"/>
        <pt x="179" y="714" on="0"/>
        <pt x="336" y="714" on="0"/>
        <pt x="336" y="677" on="1"/>
        <pt x="336" y="652" on="0"/>
        <pt x="303" y="461" on="0"/>
        <pt x="301" y="390" on="0"/>
        <pt x="321" y="390" on="1"/>
        <pt x="333" y="390" on="0"/>
        <pt x="348" y="403" on="1"/>
        <pt x="409" y="457" on="0"/>
        <pt x="561" y="622" on="0"/>
        <pt x="611" y="687" on="0"/>
        <pt x="628" y="694" on="1"/>
        <pt x="664" y="708" on="0"/>
        <pt x="714" y="710" on="1"/>
        <pt x="731" y="710" on="1"/>
        <pt x="788" y="710" on="0"/>
        <pt x="788" y="692" on="1"/>
        <pt x="788" y="682" on="0"/>
        <pt x="771" y="672" on="1"/>
        <pt x="707" y="635" on="0"/>
        <pt x="394" y="373" on="0"/>
        <pt x="322" y="296" on="1"/>
        <pt x="293" y="265" on="0"/>
        <pt x="155" y="8" on="0"/>
        <pt x="130" y="-9" on="1"/>
        <pt x="107" y="-29" on="0"/>
        <pt x="17" y="-29" on="0"/>
        <pt x="17" y="-12" on="1"/>
        <pt x="17" y="-9" on="1"/>
        <pt x="17" y="-2" on="0"/>
        <pt x="50" y="53" on="1"/>
        <pt x="157" y="228" on="0"/>
        <pt x="170" y="273" on="1"/>
        <pt x="192" y="345" on="0"/>
      </contour>
      <contour>
        <pt x="436" y="828" on="1"/>
        <pt x="473" y="828" on="0"/>
        <pt x="473" y="796" on="1"/>
        <pt x="473" y="780" on="0"/>
        <pt x="431" y="744" on="0"/>
        <pt x="409" y="744" on="1"/>
        <pt x="366" y="744" on="0"/>
        <pt x="366" y="773" on="1"/>
        <pt x="366" y="793" on="0"/>
        <pt x="409" y="828" on="0"/>
      </contour>
      <contour>
        <pt x="621" y="828" on="1"/>
        <pt x="658" y="828" on="0"/>
        <pt x="658" y="796" on="1"/>
        <pt x="658" y="780" on="0"/>
        <pt x="617" y="744" on="0"/>
        <pt x="594" y="744" on="1"/>
        <pt x="551" y="744" on="0"/>
        <pt x="551" y="773" on="1"/>
        <pt x="551" y="793" on="0"/>
        <pt x="594" y="828" on="0"/>
      </contour>
    </TTGlyph>
    <TTGlyph name="Z" xMin="-16" yMin="-27" xMax="795" yMax="709">
      <contour>
        <pt x="795" y="654" on="1"/>
        <pt x="795" y="606" on="0"/>
        <pt x="585" y="444" on="1"/>
        <pt x="498" y="377" on="0"/>
        <pt x="323" y="241" on="0"/>
        <pt x="200" y="118" on="0"/>
        <pt x="200" y="85" on="1"/>
        <pt x="200" y="67" on="0"/>
        <pt x="246" y="54" on="0"/>
        <pt x="304" y="54" on="0"/>
        <pt x="397" y="92" on="0"/>
        <pt x="434" y="119" on="1"/>
        <pt x="513" y="178" on="0"/>
        <pt x="550" y="219" on="1"/>
        <pt x="567" y="238" on="1"/>
        <pt x="588" y="255" on="0"/>
        <pt x="603" y="255" on="1"/>
        <pt x="605" y="255" on="1"/>
        <pt x="621" y="255" on="0"/>
        <pt x="621" y="245" on="1"/>
        <pt x="619" y="221" on="0"/>
        <pt x="462" y="-24" on="0"/>
        <pt x="436" y="-27" on="1"/>
        <pt x="425" y="-27" on="1"/>
        <pt x="365" y="-27" on="0"/>
        <pt x="335" y="-4" on="1"/>
        <pt x="239" y="-13" on="0"/>
        <pt x="212" y="-13" on="1"/>
        <pt x="79" y="-13" on="0"/>
        <pt x="-16" y="3" on="0"/>
        <pt x="-16" y="29" on="1"/>
        <pt x="-16" y="64" on="0"/>
        <pt x="109" y="198" on="0"/>
        <pt x="288" y="342" on="0"/>
        <pt x="468" y="480" on="0"/>
        <pt x="594" y="585" on="0"/>
        <pt x="595" y="600" on="1"/>
        <pt x="595" y="601" on="1"/>
        <pt x="595" y="628" on="0"/>
        <pt x="486" y="628" on="0"/>
        <pt x="376" y="571" on="0"/>
        <pt x="313" y="519" on="1"/>
        <pt x="290" y="501" on="0"/>
        <pt x="261" y="501" on="0"/>
        <pt x="261" y="512" on="1"/>
        <pt x="262" y="523" on="0"/>
        <pt x="358" y="671" on="0"/>
        <pt x="389" y="697" on="1"/>
        <pt x="402" y="709" on="0"/>
        <pt x="421" y="709" on="1"/>
        <pt x="463" y="709" on="0"/>
        <pt x="490" y="687" on="1"/>
        <pt x="556" y="693" on="0"/>
        <pt x="639" y="693" on="1"/>
        <pt x="795" y="693" on="0"/>
      </contour>
    </TTGlyph>
    <TTGlyph name="Zcaron" xMin="-16" yMin="-27" xMax="795" yMax="850">
      <contour>
        <pt x="676" y="807" on="1"/>
        <pt x="730" y="843" on="0"/>
        <pt x="790" y="843" on="0"/>
        <pt x="790" y="835" on="1"/>
        <pt x="790" y="832" on="0"/>
        <pt x="780" y="822" on="1"/>
        <pt x="731" y="773" on="0"/>
        <pt x="721" y="759" on="1"/>
        <pt x="706" y="738" on="0"/>
        <pt x="677" y="738" on="0"/>
        <pt x="657" y="755" on="0"/>
        <pt x="646" y="755" on="0"/>
        <pt x="642" y="752" on="1"/>
        <pt x="619" y="736" on="0"/>
        <pt x="595" y="736" on="1"/>
        <pt x="584" y="738" on="0"/>
        <pt x="584" y="748" on="1"/>
        <pt x="584" y="754" on="0"/>
        <pt x="603" y="807" on="0"/>
        <pt x="607" y="838" on="1"/>
        <pt x="607" y="850" on="0"/>
        <pt x="625" y="850" on="0"/>
        <pt x="649" y="825" on="0"/>
        <pt x="657" y="809" on="1"/>
        <pt x="660" y="805" on="0"/>
        <pt x="665" y="805" on="1"/>
      </contour>
      <contour>
        <pt x="795" y="654" on="1"/>
        <pt x="795" y="606" on="0"/>
        <pt x="585" y="444" on="1"/>
        <pt x="498" y="377" on="0"/>
        <pt x="323" y="241" on="0"/>
        <pt x="200" y="118" on="0"/>
        <pt x="200" y="85" on="1"/>
        <pt x="200" y="67" on="0"/>
        <pt x="246" y="54" on="0"/>
        <pt x="304" y="54" on="0"/>
        <pt x="397" y="92" on="0"/>
        <pt x="434" y="119" on="1"/>
        <pt x="513" y="178" on="0"/>
        <pt x="550" y="219" on="1"/>
        <pt x="567" y="238" on="1"/>
        <pt x="588" y="255" on="0"/>
        <pt x="603" y="255" on="1"/>
        <pt x="605" y="255" on="1"/>
        <pt x="621" y="255" on="0"/>
        <pt x="621" y="245" on="1"/>
        <pt x="619" y="221" on="0"/>
        <pt x="462" y="-24" on="0"/>
        <pt x="436" y="-27" on="1"/>
        <pt x="425" y="-27" on="1"/>
        <pt x="365" y="-27" on="0"/>
        <pt x="335" y="-4" on="1"/>
        <pt x="239" y="-13" on="0"/>
        <pt x="212" y="-13" on="1"/>
        <pt x="79" y="-13" on="0"/>
        <pt x="-16" y="3" on="0"/>
        <pt x="-16" y="29" on="1"/>
        <pt x="-16" y="64" on="0"/>
        <pt x="109" y="198" on="0"/>
        <pt x="288" y="342" on="0"/>
        <pt x="468" y="480" on="0"/>
        <pt x="594" y="585" on="0"/>
        <pt x="595" y="600" on="1"/>
        <pt x="595" y="601" on="1"/>
        <pt x="595" y="628" on="0"/>
        <pt x="486" y="628" on="0"/>
        <pt x="376" y="571" on="0"/>
        <pt x="313" y="519" on="1"/>
        <pt x="290" y="501" on="0"/>
        <pt x="261" y="501" on="0"/>
        <pt x="261" y="512" on="1"/>
        <pt x="262" y="523" on="0"/>
        <pt x="358" y="671" on="0"/>
        <pt x="389" y="697" on="1"/>
        <pt x="402" y="709" on="0"/>
        <pt x="421" y="709" on="1"/>
        <pt x="463" y="709" on="0"/>
        <pt x="490" y="687" on="1"/>
        <pt x="556" y="693" on="0"/>
        <pt x="639" y="693" on="1"/>
        <pt x="795" y="693" on="0"/>
      </contour>
    </TTGlyph>
    <TTGlyph name="a" xMin="16" yMin="-41" xMax="492" yMax="385">
      <contour>
        <pt x="250" y="35" on="1"/>
        <pt x="252" y="56" on="1"/>
        <pt x="252" y="64" on="0"/>
        <pt x="246" y="64" on="1"/>
        <pt x="237" y="64" on="0"/>
        <pt x="182" y="12" on="0"/>
        <pt x="99" y="-41" on="0"/>
        <pt x="16" y="-41" on="0"/>
        <pt x="16" y="20" on="1"/>
        <pt x="16" y="96" on="0"/>
        <pt x="82" y="195" on="1"/>
        <pt x="116" y="245" on="0"/>
        <pt x="205" y="330" on="0"/>
        <pt x="333" y="385" on="0"/>
        <pt x="403" y="385" on="1"/>
        <pt x="440" y="385" on="0"/>
        <pt x="492" y="346" on="0"/>
        <pt x="492" y="289" on="0"/>
        <pt x="475" y="289" on="1"/>
        <pt x="466" y="289" on="0"/>
        <pt x="451" y="300" on="1"/>
        <pt x="423" y="319" on="0"/>
        <pt x="363" y="319" on="1"/>
        <pt x="284" y="319" on="0"/>
        <pt x="143" y="176" on="0"/>
        <pt x="143" y="106" on="1"/>
        <pt x="143" y="97" on="0"/>
        <pt x="154" y="81" on="0"/>
        <pt x="164" y="81" on="1"/>
        <pt x="194" y="81" on="0"/>
        <pt x="288" y="164" on="0"/>
        <pt x="333" y="242" on="1"/>
        <pt x="336" y="251" on="0"/>
        <pt x="374" y="267" on="0"/>
        <pt x="400" y="267" on="1"/>
        <pt x="437" y="264" on="0"/>
        <pt x="437" y="251" on="1"/>
        <pt x="437" y="250" on="0"/>
        <pt x="422" y="227" on="0"/>
        <pt x="384" y="167" on="0"/>
        <pt x="315" y="30" on="0"/>
        <pt x="309" y="-10" on="1"/>
        <pt x="308" y="-22" on="0"/>
        <pt x="299" y="-22" on="1"/>
        <pt x="250" y="-22" on="0"/>
      </contour>
    </TTGlyph>
    <TTGlyph name="aacute" xMin="16" yMin="-41" xMax="495" yMax="551">
      <contour>
        <pt x="495" y="520" on="0"/>
        <pt x="495" y="488" on="0"/>
        <pt x="388" y="439" on="0"/>
        <pt x="347" y="439" on="0"/>
        <pt x="347" y="447" on="1"/>
        <pt x="347" y="451" on="0"/>
        <pt x="407" y="511" on="0"/>
        <pt x="421" y="529" on="0"/>
        <pt x="428" y="539" on="0"/>
        <pt x="432" y="544" on="0"/>
        <pt x="434" y="546" on="1"/>
        <pt x="439" y="551" on="0"/>
        <pt x="456" y="551" on="0"/>
      </contour>
      <contour>
        <pt x="252" y="56" on="1"/>
        <pt x="252" y="64" on="0"/>
        <pt x="235" y="64" on="0"/>
        <pt x="178" y="12" on="1"/>
        <pt x="157" y="-8" on="0"/>
        <pt x="90" y="-41" on="0"/>
        <pt x="57" y="-41" on="1"/>
        <pt x="16" y="-41" on="0"/>
        <pt x="16" y="20" on="1"/>
        <pt x="16" y="96" on="0"/>
        <pt x="82" y="195" on="1"/>
        <pt x="116" y="245" on="0"/>
        <pt x="205" y="330" on="0"/>
        <pt x="333" y="385" on="0"/>
        <pt x="403" y="385" on="1"/>
        <pt x="440" y="385" on="0"/>
        <pt x="470" y="362" on="1"/>
        <pt x="492" y="346" on="0"/>
        <pt x="492" y="289" on="0"/>
        <pt x="475" y="289" on="1"/>
        <pt x="466" y="289" on="0"/>
        <pt x="423" y="319" on="0"/>
        <pt x="363" y="319" on="1"/>
        <pt x="284" y="319" on="0"/>
        <pt x="143" y="176" on="0"/>
        <pt x="143" y="106" on="1"/>
        <pt x="143" y="97" on="0"/>
        <pt x="154" y="81" on="0"/>
        <pt x="164" y="81" on="1"/>
        <pt x="194" y="81" on="0"/>
        <pt x="288" y="164" on="0"/>
        <pt x="333" y="242" on="1"/>
        <pt x="337" y="248" on="1"/>
        <pt x="341" y="254" on="0"/>
        <pt x="374" y="267" on="0"/>
        <pt x="400" y="267" on="1"/>
        <pt x="437" y="263" on="0"/>
        <pt x="437" y="251" on="1"/>
        <pt x="437" y="250" on="0"/>
        <pt x="435" y="246" on="1"/>
        <pt x="406" y="202" on="1"/>
        <pt x="378" y="158" on="0"/>
        <pt x="315" y="30" on="0"/>
        <pt x="309" y="-10" on="1"/>
        <pt x="308" y="-22" on="0"/>
        <pt x="299" y="-22" on="1"/>
        <pt x="250" y="-22" on="0"/>
        <pt x="250" y="35" on="1"/>
      </contour>
    </TTGlyph>
    <TTGlyph name="acircumflex" xMin="16" yMin="-41" xMax="498" yMax="547">
      <contour>
        <pt x="498" y="536" on="1"/>
        <pt x="475" y="446" on="1"/>
        <pt x="475" y="433" on="0"/>
        <pt x="466" y="433" on="1"/>
        <pt x="446" y="433" on="0"/>
        <pt x="425" y="474" on="1"/>
        <pt x="422" y="480" on="0"/>
        <pt x="412" y="480" on="0"/>
        <pt x="406" y="476" on="1"/>
        <pt x="352" y="440" on="0"/>
        <pt x="292" y="440" on="0"/>
        <pt x="292" y="448" on="1"/>
        <pt x="292" y="451" on="0"/>
        <pt x="302" y="462" on="1"/>
        <pt x="348" y="508" on="0"/>
        <pt x="371" y="539" on="0"/>
        <pt x="381" y="546" on="0"/>
        <pt x="406" y="546" on="0"/>
        <pt x="420" y="532" on="1"/>
        <pt x="425" y="528" on="0"/>
        <pt x="436" y="528" on="0"/>
        <pt x="466" y="547" on="0"/>
        <pt x="488" y="547" on="1"/>
        <pt x="498" y="546" on="0"/>
      </contour>
      <contour>
        <pt x="252" y="56" on="1"/>
        <pt x="252" y="64" on="0"/>
        <pt x="235" y="64" on="0"/>
        <pt x="178" y="12" on="1"/>
        <pt x="157" y="-8" on="0"/>
        <pt x="90" y="-41" on="0"/>
        <pt x="57" y="-41" on="1"/>
        <pt x="16" y="-41" on="0"/>
        <pt x="16" y="20" on="1"/>
        <pt x="16" y="96" on="0"/>
        <pt x="82" y="195" on="1"/>
        <pt x="116" y="245" on="0"/>
        <pt x="205" y="330" on="0"/>
        <pt x="333" y="385" on="0"/>
        <pt x="403" y="385" on="1"/>
        <pt x="440" y="385" on="0"/>
        <pt x="470" y="362" on="1"/>
        <pt x="492" y="346" on="0"/>
        <pt x="492" y="289" on="0"/>
        <pt x="475" y="289" on="1"/>
        <pt x="466" y="289" on="0"/>
        <pt x="423" y="319" on="0"/>
        <pt x="363" y="319" on="1"/>
        <pt x="284" y="319" on="0"/>
        <pt x="143" y="176" on="0"/>
        <pt x="143" y="106" on="1"/>
        <pt x="143" y="97" on="0"/>
        <pt x="154" y="81" on="0"/>
        <pt x="164" y="81" on="1"/>
        <pt x="194" y="81" on="0"/>
        <pt x="288" y="164" on="0"/>
        <pt x="333" y="242" on="1"/>
        <pt x="337" y="248" on="1"/>
        <pt x="341" y="254" on="0"/>
        <pt x="374" y="267" on="0"/>
        <pt x="400" y="267" on="1"/>
        <pt x="437" y="263" on="0"/>
        <pt x="437" y="251" on="1"/>
        <pt x="437" y="250" on="0"/>
        <pt x="435" y="246" on="1"/>
        <pt x="406" y="202" on="1"/>
        <pt x="378" y="158" on="0"/>
        <pt x="315" y="30" on="0"/>
        <pt x="309" y="-10" on="1"/>
        <pt x="308" y="-22" on="0"/>
        <pt x="299" y="-22" on="1"/>
        <pt x="250" y="-22" on="0"/>
        <pt x="250" y="35" on="1"/>
      </contour>
    </TTGlyph>
    <TTGlyph name="acute" xMin="347" yMin="439" xMax="495" yMax="551">
      <contour>
        <pt x="495" y="520" on="0"/>
        <pt x="495" y="488" on="0"/>
        <pt x="388" y="439" on="0"/>
        <pt x="347" y="439" on="0"/>
        <pt x="347" y="447" on="1"/>
        <pt x="347" y="451" on="0"/>
        <pt x="407" y="511" on="0"/>
        <pt x="421" y="529" on="0"/>
        <pt x="428" y="539" on="0"/>
        <pt x="432" y="544" on="0"/>
        <pt x="434" y="546" on="1"/>
        <pt x="439" y="551" on="0"/>
        <pt x="456" y="551" on="0"/>
      </contour>
    </TTGlyph>
    <TTGlyph name="adieresis" xMin="16" yMin="-41" xMax="560" yMax="528">
      <contour>
        <pt x="338" y="528" on="1"/>
        <pt x="375" y="528" on="0"/>
        <pt x="375" y="496" on="1"/>
        <pt x="375" y="480" on="0"/>
        <pt x="333" y="444" on="0"/>
        <pt x="311" y="444" on="1"/>
        <pt x="268" y="444" on="0"/>
        <pt x="268" y="473" on="1"/>
        <pt x="268" y="493" on="0"/>
        <pt x="311" y="528" on="0"/>
      </contour>
      <contour>
        <pt x="523" y="528" on="1"/>
        <pt x="560" y="528" on="0"/>
        <pt x="560" y="496" on="1"/>
        <pt x="560" y="480" on="0"/>
        <pt x="519" y="444" on="0"/>
        <pt x="496" y="444" on="1"/>
        <pt x="453" y="444" on="0"/>
        <pt x="453" y="473" on="1"/>
        <pt x="453" y="493" on="0"/>
        <pt x="496" y="528" on="0"/>
      </contour>
      <contour>
        <pt x="250" y="35" on="1"/>
        <pt x="252" y="56" on="1"/>
        <pt x="252" y="64" on="0"/>
        <pt x="246" y="64" on="1"/>
        <pt x="237" y="64" on="0"/>
        <pt x="182" y="12" on="0"/>
        <pt x="99" y="-41" on="0"/>
        <pt x="16" y="-41" on="0"/>
        <pt x="16" y="20" on="1"/>
        <pt x="16" y="96" on="0"/>
        <pt x="82" y="195" on="1"/>
        <pt x="116" y="245" on="0"/>
        <pt x="205" y="330" on="0"/>
        <pt x="333" y="385" on="0"/>
        <pt x="403" y="385" on="1"/>
        <pt x="440" y="385" on="0"/>
        <pt x="492" y="346" on="0"/>
        <pt x="492" y="289" on="0"/>
        <pt x="475" y="289" on="1"/>
        <pt x="466" y="289" on="0"/>
        <pt x="451" y="300" on="1"/>
        <pt x="423" y="319" on="0"/>
        <pt x="363" y="319" on="1"/>
        <pt x="284" y="319" on="0"/>
        <pt x="143" y="176" on="0"/>
        <pt x="143" y="106" on="1"/>
        <pt x="143" y="97" on="0"/>
        <pt x="154" y="81" on="0"/>
        <pt x="164" y="81" on="1"/>
        <pt x="194" y="81" on="0"/>
        <pt x="288" y="164" on="0"/>
        <pt x="333" y="242" on="1"/>
        <pt x="336" y="251" on="0"/>
        <pt x="374" y="267" on="0"/>
        <pt x="400" y="267" on="1"/>
        <pt x="437" y="264" on="0"/>
        <pt x="437" y="251" on="1"/>
        <pt x="437" y="250" on="0"/>
        <pt x="422" y="227" on="0"/>
        <pt x="384" y="167" on="0"/>
        <pt x="315" y="30" on="0"/>
        <pt x="309" y="-10" on="1"/>
        <pt x="308" y="-22" on="0"/>
        <pt x="299" y="-22" on="1"/>
        <pt x="250" y="-22" on="0"/>
      </contour>
    </TTGlyph>
    <TTGlyph name="ae" xMin="16" yMin="-72" xMax="636" yMax="385">
      <contour>
        <pt x="363" y="-72" on="1"/>
        <pt x="308" y="-72" on="0"/>
        <pt x="251" y="0" on="0"/>
        <pt x="251" y="53" on="1"/>
        <pt x="251" y="61" on="1"/>
        <pt x="248" y="64" on="0"/>
        <pt x="246" y="64" on="1"/>
        <pt x="237" y="64" on="0"/>
        <pt x="182" y="12" on="0"/>
        <pt x="99" y="-41" on="0"/>
        <pt x="16" y="-41" on="0"/>
        <pt x="16" y="20" on="1"/>
        <pt x="16" y="96" on="0"/>
        <pt x="82" y="195" on="1"/>
        <pt x="116" y="245" on="0"/>
        <pt x="205" y="330" on="0"/>
        <pt x="333" y="385" on="0"/>
        <pt x="403" y="385" on="1"/>
        <pt x="439" y="385" on="0"/>
        <pt x="468" y="364" on="1"/>
        <pt x="516" y="384" on="0"/>
        <pt x="569" y="384" on="1"/>
        <pt x="602" y="384" on="0"/>
        <pt x="636" y="343" on="0"/>
        <pt x="636" y="315" on="1"/>
        <pt x="636" y="257" on="0"/>
        <pt x="554" y="157" on="0"/>
        <pt x="454" y="105" on="0"/>
        <pt x="377" y="98" on="0"/>
        <pt x="351" y="76" on="0"/>
        <pt x="351" y="10" on="0"/>
        <pt x="381" y="-24" on="0"/>
        <pt x="411" y="-36" on="0"/>
        <pt x="411" y="-42" on="1"/>
        <pt x="411" y="-56" on="0"/>
        <pt x="381" y="-72" on="0"/>
      </contour>
      <contour>
        <pt x="390" y="318" on="1"/>
        <pt x="363" y="319" on="1"/>
        <pt x="284" y="319" on="0"/>
        <pt x="143" y="176" on="0"/>
        <pt x="143" y="106" on="1"/>
        <pt x="143" y="97" on="0"/>
        <pt x="154" y="81" on="0"/>
        <pt x="164" y="81" on="1"/>
        <pt x="208" y="81" on="0"/>
        <pt x="274" y="157" on="1"/>
        <pt x="311" y="254" on="0"/>
      </contour>
      <contour>
        <pt x="539" y="290" on="1"/>
        <pt x="539" y="321" on="0"/>
        <pt x="511" y="321" on="1"/>
        <pt x="471" y="321" on="0"/>
        <pt x="374" y="209" on="0"/>
        <pt x="374" y="164" on="1"/>
        <pt x="374" y="153" on="0"/>
        <pt x="391" y="153" on="1"/>
        <pt x="432" y="153" on="0"/>
        <pt x="539" y="237" on="0"/>
      </contour>
    </TTGlyph>
    <TTGlyph name="agrave" xMin="16" yMin="-41" xMax="492" yMax="554">
      <contour>
        <pt x="300" y="530" on="0"/>
        <pt x="342" y="554" on="0"/>
        <pt x="359" y="554" on="0"/>
        <pt x="366" y="549" on="0"/>
        <pt x="369" y="544" on="0"/>
        <pt x="372" y="537" on="1"/>
        <pt x="378" y="526" on="1"/>
        <pt x="388" y="508" on="0"/>
        <pt x="403" y="486" on="1"/>
        <pt x="436" y="439" on="0"/>
        <pt x="436" y="431" on="0"/>
        <pt x="426" y="431" on="1"/>
        <pt x="419" y="431" on="1"/>
        <pt x="395" y="435" on="0"/>
        <pt x="300" y="498" on="0"/>
      </contour>
      <contour>
        <pt x="250" y="35" on="1"/>
        <pt x="252" y="56" on="1"/>
        <pt x="252" y="64" on="0"/>
        <pt x="246" y="64" on="1"/>
        <pt x="237" y="64" on="0"/>
        <pt x="182" y="12" on="0"/>
        <pt x="99" y="-41" on="0"/>
        <pt x="16" y="-41" on="0"/>
        <pt x="16" y="20" on="1"/>
        <pt x="16" y="96" on="0"/>
        <pt x="82" y="195" on="1"/>
        <pt x="116" y="245" on="0"/>
        <pt x="205" y="330" on="0"/>
        <pt x="333" y="385" on="0"/>
        <pt x="403" y="385" on="1"/>
        <pt x="440" y="385" on="0"/>
        <pt x="492" y="346" on="0"/>
        <pt x="492" y="289" on="0"/>
        <pt x="475" y="289" on="1"/>
        <pt x="466" y="289" on="0"/>
        <pt x="451" y="300" on="1"/>
        <pt x="423" y="319" on="0"/>
        <pt x="363" y="319" on="1"/>
        <pt x="284" y="319" on="0"/>
        <pt x="143" y="176" on="0"/>
        <pt x="143" y="106" on="1"/>
        <pt x="143" y="97" on="0"/>
        <pt x="154" y="81" on="0"/>
        <pt x="164" y="81" on="1"/>
        <pt x="194" y="81" on="0"/>
        <pt x="288" y="164" on="0"/>
        <pt x="333" y="242" on="1"/>
        <pt x="336" y="251" on="0"/>
        <pt x="374" y="267" on="0"/>
        <pt x="400" y="267" on="1"/>
        <pt x="437" y="264" on="0"/>
        <pt x="437" y="251" on="1"/>
        <pt x="437" y="250" on="0"/>
        <pt x="422" y="227" on="0"/>
        <pt x="384" y="167" on="0"/>
        <pt x="315" y="30" on="0"/>
        <pt x="309" y="-10" on="1"/>
        <pt x="308" y="-22" on="0"/>
        <pt x="299" y="-22" on="1"/>
        <pt x="250" y="-22" on="0"/>
      </contour>
    </TTGlyph>
    <TTGlyph name="ampersand" xMin="57" yMin="-22" xMax="684" yMax="681">
      <contour>
        <pt x="480" y="217" on="1"/>
        <pt x="512" y="223" on="1"/>
        <pt x="521" y="223" on="0"/>
        <pt x="521" y="189" on="0"/>
        <pt x="503" y="153" on="0"/>
        <pt x="492" y="144" on="1"/>
        <pt x="463" y="120" on="0"/>
        <pt x="463" y="108" on="1"/>
        <pt x="463" y="85" on="0"/>
        <pt x="485" y="6" on="0"/>
        <pt x="492" y="0" on="0"/>
        <pt x="492" y="-10" on="0"/>
        <pt x="481" y="-22" on="0"/>
        <pt x="475" y="-22" on="1"/>
        <pt x="398" y="-22" on="0"/>
        <pt x="374" y="14" on="1"/>
        <pt x="368" y="22" on="0"/>
        <pt x="366" y="34" on="1"/>
        <pt x="362" y="40" on="0"/>
        <pt x="355" y="40" on="1"/>
        <pt x="346" y="38" on="1"/>
        <pt x="274" y="-1" on="0"/>
        <pt x="149" y="-1" on="0"/>
        <pt x="57" y="56" on="0"/>
        <pt x="57" y="179" on="0"/>
        <pt x="113" y="286" on="0"/>
        <pt x="157" y="324" on="1"/>
        <pt x="243" y="397" on="0"/>
        <pt x="333" y="426" on="1"/>
        <pt x="345" y="428" on="0"/>
        <pt x="345" y="443" on="1"/>
        <pt x="345" y="504" on="0"/>
        <pt x="351" y="525" on="1"/>
        <pt x="362" y="580" on="0"/>
        <pt x="479" y="681" on="0"/>
        <pt x="573" y="681" on="1"/>
        <pt x="651" y="681" on="0"/>
        <pt x="676" y="644" on="1"/>
        <pt x="684" y="631" on="0"/>
        <pt x="684" y="586" on="0"/>
        <pt x="651" y="530" on="0"/>
        <pt x="618" y="506" on="1"/>
        <pt x="568" y="470" on="0"/>
        <pt x="502" y="438" on="0"/>
        <pt x="494" y="432" on="0"/>
        <pt x="472" y="414" on="0"/>
        <pt x="464" y="404" on="1"/>
        <pt x="441" y="376" on="0"/>
        <pt x="441" y="294" on="0"/>
        <pt x="445" y="245" on="0"/>
        <pt x="447" y="235" on="0"/>
        <pt x="464" y="217" on="0"/>
      </contour>
      <contour>
        <pt x="326" y="350" on="1"/>
        <pt x="286" y="350" on="0"/>
        <pt x="173" y="226" on="0"/>
        <pt x="173" y="163" on="1"/>
        <pt x="173" y="126" on="0"/>
        <pt x="194" y="103" on="1"/>
        <pt x="203" y="93" on="0"/>
        <pt x="243" y="76" on="0"/>
        <pt x="305" y="76" on="0"/>
        <pt x="359" y="112" on="0"/>
        <pt x="359" y="126" on="1"/>
        <pt x="359" y="127" on="1"/>
        <pt x="345" y="234" on="0"/>
        <pt x="344" y="331" on="1"/>
        <pt x="344" y="350" on="0"/>
      </contour>
      <contour>
        <pt x="501" y="491" on="0"/>
        <pt x="579" y="565" on="0"/>
        <pt x="579" y="624" on="0"/>
        <pt x="508" y="624" on="0"/>
        <pt x="450" y="553" on="0"/>
        <pt x="450" y="515" on="1"/>
        <pt x="450" y="491" on="0"/>
      </contour>
    </TTGlyph>
    <TTGlyph name="apple" xMin="0" yMin="-12" xMax="632" yMax="738">
      <contour>
        <pt x="335" y="654" on="0"/>
        <pt x="297" y="654" on="0"/>
        <pt x="288" y="653" on="1"/>
        <pt x="198" y="738" on="1"/>
        <pt x="257" y="738" on="1"/>
        <pt x="315" y="677" on="1"/>
        <pt x="374" y="738" on="1"/>
        <pt x="434" y="738" on="1"/>
        <pt x="344" y="653" on="1"/>
      </contour>
      <contour>
        <pt x="632" y="434" on="0"/>
        <pt x="632" y="174" on="0"/>
        <pt x="446" y="-12" on="0"/>
        <pt x="185" y="-12" on="0"/>
        <pt x="0" y="173" on="0"/>
        <pt x="0" y="435" on="0"/>
        <pt x="185" y="620" on="0"/>
        <pt x="446" y="620" on="0"/>
      </contour>
      <contour>
        <pt x="586" y="192" on="0"/>
        <pt x="586" y="416" on="0"/>
        <pt x="428" y="575" on="0"/>
        <pt x="204" y="575" on="0"/>
        <pt x="45" y="416" on="0"/>
        <pt x="45" y="192" on="0"/>
        <pt x="204" y="33" on="0"/>
        <pt x="428" y="33" on="0"/>
      </contour>
      <contour>
        <pt x="458" y="204" on="1"/>
        <pt x="458" y="151" on="0"/>
        <pt x="369" y="96" on="0"/>
        <pt x="254" y="96" on="0"/>
        <pt x="174" y="135" on="1"/>
        <pt x="183" y="182" on="1"/>
        <pt x="249" y="141" on="0"/>
        <pt x="311" y="141" on="1"/>
        <pt x="351" y="141" on="0"/>
        <pt x="401" y="174" on="0"/>
        <pt x="401" y="223" on="0"/>
        <pt x="356" y="262" on="0"/>
        <pt x="292" y="293" on="0"/>
        <pt x="228" y="327" on="0"/>
        <pt x="183" y="378" on="0"/>
        <pt x="183" y="409" on="1"/>
        <pt x="183" y="463" on="0"/>
        <pt x="262" y="512" on="0"/>
        <pt x="314" y="512" on="1"/>
        <pt x="351" y="512" on="0"/>
        <pt x="374" y="501" on="1"/>
        <pt x="420" y="479" on="0"/>
        <pt x="435" y="469" on="1"/>
        <pt x="424" y="426" on="1"/>
        <pt x="376" y="468" on="0"/>
        <pt x="317" y="468" on="1"/>
        <pt x="281" y="468" on="0"/>
        <pt x="237" y="437" on="0"/>
        <pt x="237" y="390" on="0"/>
        <pt x="283" y="354" on="0"/>
        <pt x="348" y="327" on="0"/>
        <pt x="412" y="296" on="0"/>
        <pt x="458" y="241" on="0"/>
      </contour>
    </TTGlyph>
    <TTGlyph name="aring" xMin="16" yMin="-41" xMax="492" yMax="544">
      <contour>
        <pt x="440" y="495" on="1"/>
        <pt x="440" y="511" on="0"/>
        <pt x="402" y="511" on="0"/>
        <pt x="376" y="490" on="0"/>
        <pt x="376" y="478" on="1"/>
        <pt x="376" y="461" on="0"/>
        <pt x="416" y="461" on="0"/>
        <pt x="440" y="483" on="0"/>
      </contour>
      <contour>
        <pt x="335" y="467" on="1"/>
        <pt x="335" y="499" on="0"/>
        <pt x="396" y="544" on="0"/>
        <pt x="452" y="544" on="0"/>
        <pt x="482" y="523" on="0"/>
        <pt x="482" y="478" on="0"/>
        <pt x="424" y="429" on="0"/>
        <pt x="364" y="429" on="0"/>
        <pt x="335" y="450" on="0"/>
      </contour>
      <contour>
        <pt x="252" y="56" on="1"/>
        <pt x="252" y="64" on="0"/>
        <pt x="235" y="64" on="0"/>
        <pt x="178" y="12" on="1"/>
        <pt x="157" y="-8" on="0"/>
        <pt x="90" y="-41" on="0"/>
        <pt x="57" y="-41" on="1"/>
        <pt x="16" y="-41" on="0"/>
        <pt x="16" y="20" on="1"/>
        <pt x="16" y="96" on="0"/>
        <pt x="82" y="195" on="1"/>
        <pt x="116" y="245" on="0"/>
        <pt x="205" y="330" on="0"/>
        <pt x="333" y="385" on="0"/>
        <pt x="403" y="385" on="1"/>
        <pt x="440" y="385" on="0"/>
        <pt x="470" y="362" on="1"/>
        <pt x="492" y="346" on="0"/>
        <pt x="492" y="289" on="0"/>
        <pt x="475" y="289" on="1"/>
        <pt x="466" y="289" on="0"/>
        <pt x="423" y="319" on="0"/>
        <pt x="363" y="319" on="1"/>
        <pt x="284" y="319" on="0"/>
        <pt x="143" y="176" on="0"/>
        <pt x="143" y="106" on="1"/>
        <pt x="143" y="97" on="0"/>
        <pt x="154" y="81" on="0"/>
        <pt x="164" y="81" on="1"/>
        <pt x="194" y="81" on="0"/>
        <pt x="288" y="164" on="0"/>
        <pt x="333" y="242" on="1"/>
        <pt x="337" y="248" on="1"/>
        <pt x="341" y="254" on="0"/>
        <pt x="374" y="267" on="0"/>
        <pt x="400" y="267" on="1"/>
        <pt x="437" y="263" on="0"/>
        <pt x="437" y="251" on="1"/>
        <pt x="437" y="250" on="0"/>
        <pt x="435" y="246" on="1"/>
        <pt x="406" y="202" on="1"/>
        <pt x="378" y="158" on="0"/>
        <pt x="315" y="30" on="0"/>
        <pt x="309" y="-10" on="1"/>
        <pt x="308" y="-22" on="0"/>
        <pt x="299" y="-22" on="1"/>
        <pt x="250" y="-22" on="0"/>
        <pt x="250" y="35" on="1"/>
      </contour>
    </TTGlyph>
    <TTGlyph name="asciicircum" xMin="65" yMin="130" xMax="271" yMax="244">
      <contour>
        <pt x="271" y="233" on="1"/>
        <pt x="248" y="143" on="1"/>
        <pt x="248" y="130" on="0"/>
        <pt x="239" y="130" on="1"/>
        <pt x="219" y="130" on="0"/>
        <pt x="198" y="171" on="1"/>
        <pt x="195" y="177" on="0"/>
        <pt x="185" y="177" on="0"/>
        <pt x="179" y="173" on="1"/>
        <pt x="125" y="137" on="0"/>
        <pt x="65" y="137" on="0"/>
        <pt x="65" y="145" on="1"/>
        <pt x="65" y="148" on="0"/>
        <pt x="76" y="158" on="1"/>
        <pt x="122" y="205" on="0"/>
        <pt x="144" y="236" on="0"/>
        <pt x="154" y="243" on="0"/>
        <pt x="179" y="243" on="0"/>
        <pt x="193" y="229" on="1"/>
        <pt x="198" y="225" on="0"/>
        <pt x="208" y="225" on="0"/>
        <pt x="239" y="244" on="0"/>
        <pt x="261" y="244" on="1"/>
        <pt x="271" y="243" on="0"/>
      </contour>
    </TTGlyph>
    <TTGlyph name="asciitilde" xMin="65" yMin="135" xMax="283" yMax="217">
      <contour>
        <pt x="257" y="162" on="0"/>
        <pt x="185" y="135" on="0"/>
        <pt x="65" y="135" on="0"/>
        <pt x="65" y="156" on="1"/>
        <pt x="65" y="169" on="0"/>
        <pt x="110" y="217" on="0"/>
        <pt x="123" y="217" on="1"/>
        <pt x="153" y="201" on="0"/>
        <pt x="239" y="201" on="0"/>
        <pt x="276" y="207" on="1"/>
        <pt x="278" y="207" on="1"/>
        <pt x="283" y="207" on="0"/>
        <pt x="283" y="191" on="0"/>
      </contour>
    </TTGlyph>
    <TTGlyph name="asterisk" xMin="215" yMin="490" xMax="488" yMax="719">
      <contour>
        <pt x="355" y="555" on="1"/>
        <pt x="347" y="555" on="0"/>
        <pt x="321" y="490" on="0"/>
        <pt x="305" y="490" on="1"/>
        <pt x="279" y="490" on="0"/>
        <pt x="276" y="500" on="1"/>
        <pt x="275" y="504" on="1"/>
        <pt x="275" y="512" on="0"/>
        <pt x="306" y="555" on="0"/>
        <pt x="306" y="574" on="0"/>
        <pt x="290" y="574" on="0"/>
        <pt x="234" y="551" on="0"/>
        <pt x="226" y="551" on="1"/>
        <pt x="215" y="551" on="0"/>
        <pt x="215" y="565" on="1"/>
        <pt x="215" y="590" on="0"/>
        <pt x="237" y="596" on="1"/>
        <pt x="287" y="604" on="0"/>
        <pt x="301" y="615" on="0"/>
        <pt x="301" y="631" on="0"/>
        <pt x="259" y="661" on="0"/>
        <pt x="259" y="681" on="0"/>
        <pt x="284" y="697" on="0"/>
        <pt x="294" y="697" on="1"/>
        <pt x="300" y="697" on="0"/>
        <pt x="328" y="651" on="0"/>
        <pt x="350" y="651" on="0"/>
        <pt x="362" y="672" on="0"/>
        <pt x="366" y="685" on="1"/>
        <pt x="376" y="719" on="0"/>
        <pt x="430" y="719" on="0"/>
        <pt x="430" y="708" on="1"/>
        <pt x="430" y="701" on="0"/>
        <pt x="398" y="654" on="0"/>
        <pt x="398" y="636" on="0"/>
        <pt x="415" y="636" on="0"/>
        <pt x="466" y="650" on="0"/>
        <pt x="488" y="650" on="0"/>
        <pt x="488" y="641" on="1"/>
        <pt x="488" y="606" on="0"/>
        <pt x="471" y="606" on="1"/>
        <pt x="464" y="606" on="1"/>
        <pt x="401" y="606" on="0"/>
        <pt x="401" y="584" on="1"/>
        <pt x="401" y="571" on="0"/>
        <pt x="440" y="535" on="0"/>
        <pt x="440" y="523" on="0"/>
        <pt x="419" y="506" on="0"/>
        <pt x="406" y="506" on="1"/>
        <pt x="399" y="506" on="0"/>
        <pt x="367" y="555" on="0"/>
      </contour>
    </TTGlyph>
    <TTGlyph name="at" xMin="48" yMin="-204" xMax="950" yMax="547">
      <contour>
        <pt x="277" y="-204" on="1"/>
        <pt x="164" y="-204" on="0"/>
        <pt x="48" y="-59" on="0"/>
        <pt x="48" y="47" on="1"/>
        <pt x="48" y="177" on="0"/>
        <pt x="205" y="410" on="0"/>
        <pt x="457" y="547" on="0"/>
        <pt x="593" y="547" on="1"/>
        <pt x="684" y="547" on="0"/>
        <pt x="825" y="498" on="0"/>
        <pt x="866" y="457" on="1"/>
        <pt x="950" y="375" on="0"/>
        <pt x="950" y="265" on="1"/>
        <pt x="950" y="184" on="0"/>
        <pt x="900" y="49" on="0"/>
        <pt x="822" y="-39" on="0"/>
        <pt x="772" y="-70" on="1"/>
        <pt x="679" y="-127" on="0"/>
        <pt x="584" y="-127" on="1"/>
        <pt x="522" y="-127" on="0"/>
        <pt x="466" y="-76" on="0"/>
        <pt x="466" y="-35" on="1"/>
        <pt x="466" y="-18" on="0"/>
        <pt x="480" y="24" on="0"/>
        <pt x="480" y="27" on="1"/>
        <pt x="480" y="34" on="0"/>
        <pt x="463" y="34" on="0"/>
        <pt x="385" y="-11" on="0"/>
        <pt x="314" y="-11" on="0"/>
        <pt x="298" y="6" on="1"/>
        <pt x="274" y="31" on="0"/>
        <pt x="274" y="84" on="0"/>
        <pt x="289" y="134" on="0"/>
        <pt x="332" y="196" on="0"/>
        <pt x="397" y="247" on="0"/>
        <pt x="510" y="282" on="0"/>
        <pt x="580" y="283" on="1"/>
        <pt x="597" y="283" on="0"/>
        <pt x="597" y="301" on="1"/>
        <pt x="597" y="309" on="0"/>
        <pt x="589" y="325" on="0"/>
        <pt x="552" y="341" on="0"/>
        <pt x="500" y="341" on="0"/>
        <pt x="448" y="326" on="0"/>
        <pt x="446" y="326" on="1"/>
        <pt x="436" y="326" on="0"/>
        <pt x="436" y="347" on="0"/>
        <pt x="465" y="377" on="0"/>
        <pt x="535" y="403" on="0"/>
        <pt x="581" y="403" on="1"/>
        <pt x="706" y="403" on="0"/>
        <pt x="706" y="320" on="1"/>
        <pt x="706" y="280" on="0"/>
        <pt x="663" y="181" on="0"/>
        <pt x="610" y="103" on="0"/>
        <pt x="567" y="12" on="0"/>
        <pt x="567" y="-19" on="1"/>
        <pt x="567" y="-67" on="0"/>
        <pt x="621" y="-67" on="1"/>
        <pt x="656" y="-67" on="0"/>
        <pt x="734" y="-25" on="0"/>
        <pt x="803" y="52" on="0"/>
        <pt x="849" y="178" on="0"/>
        <pt x="849" y="253" on="1"/>
        <pt x="849" y="347" on="0"/>
        <pt x="702" y="483" on="0"/>
        <pt x="578" y="483" on="1"/>
        <pt x="491" y="483" on="0"/>
        <pt x="344" y="423" on="0"/>
        <pt x="248" y="330" on="0"/>
        <pt x="214" y="273" on="1"/>
        <pt x="150" y="166" on="0"/>
        <pt x="150" y="69" on="1"/>
        <pt x="150" y="-131" on="0"/>
        <pt x="378" y="-131" on="1"/>
        <pt x="399" y="-131" on="0"/>
        <pt x="399" y="-140" on="1"/>
        <pt x="399" y="-169" on="0"/>
        <pt x="350" y="-191" on="1"/>
        <pt x="320" y="-204" on="0"/>
      </contour>
      <contour>
        <pt x="568" y="207" on="1"/>
        <pt x="568" y="215" on="0"/>
        <pt x="540" y="224" on="0"/>
        <pt x="529" y="224" on="1"/>
        <pt x="459" y="224" on="0"/>
        <pt x="381" y="138" on="0"/>
        <pt x="381" y="72" on="0"/>
        <pt x="412" y="72" on="1"/>
        <pt x="462" y="72" on="0"/>
        <pt x="568" y="179" on="0"/>
      </contour>
    </TTGlyph>
    <TTGlyph name="atilde" xMin="16" yMin="-41" xMax="522" yMax="510">
      <contour>
        <pt x="496" y="455" on="0"/>
        <pt x="424" y="428" on="0"/>
        <pt x="304" y="428" on="0"/>
        <pt x="304" y="449" on="1"/>
        <pt x="304" y="462" on="0"/>
        <pt x="349" y="510" on="0"/>
        <pt x="362" y="510" on="1"/>
        <pt x="392" y="494" on="0"/>
        <pt x="478" y="494" on="0"/>
        <pt x="515" y="500" on="1"/>
        <pt x="517" y="500" on="1"/>
        <pt x="522" y="500" on="0"/>
        <pt x="522" y="484" on="0"/>
      </contour>
      <contour>
        <pt x="250" y="35" on="1"/>
        <pt x="252" y="56" on="1"/>
        <pt x="252" y="64" on="0"/>
        <pt x="246" y="64" on="1"/>
        <pt x="237" y="64" on="0"/>
        <pt x="182" y="12" on="0"/>
        <pt x="99" y="-41" on="0"/>
        <pt x="16" y="-41" on="0"/>
        <pt x="16" y="20" on="1"/>
        <pt x="16" y="96" on="0"/>
        <pt x="82" y="195" on="1"/>
        <pt x="116" y="245" on="0"/>
        <pt x="205" y="330" on="0"/>
        <pt x="333" y="385" on="0"/>
        <pt x="403" y="385" on="1"/>
        <pt x="440" y="385" on="0"/>
        <pt x="492" y="346" on="0"/>
        <pt x="492" y="289" on="0"/>
        <pt x="475" y="289" on="1"/>
        <pt x="466" y="289" on="0"/>
        <pt x="451" y="300" on="1"/>
        <pt x="423" y="319" on="0"/>
        <pt x="363" y="319" on="1"/>
        <pt x="284" y="319" on="0"/>
        <pt x="143" y="176" on="0"/>
        <pt x="143" y="106" on="1"/>
        <pt x="143" y="97" on="0"/>
        <pt x="154" y="81" on="0"/>
        <pt x="164" y="81" on="1"/>
        <pt x="194" y="81" on="0"/>
        <pt x="288" y="164" on="0"/>
        <pt x="333" y="242" on="1"/>
        <pt x="336" y="251" on="0"/>
        <pt x="374" y="267" on="0"/>
        <pt x="400" y="267" on="1"/>
        <pt x="437" y="264" on="0"/>
        <pt x="437" y="251" on="1"/>
        <pt x="437" y="250" on="0"/>
        <pt x="422" y="227" on="0"/>
        <pt x="384" y="167" on="0"/>
        <pt x="315" y="30" on="0"/>
        <pt x="309" y="-10" on="1"/>
        <pt x="308" y="-22" on="0"/>
        <pt x="299" y="-22" on="1"/>
        <pt x="250" y="-22" on="0"/>
      </contour>
    </TTGlyph>
    <TTGlyph name="b" xMin="-35" yMin="-61" xMax="603" yMax="862">
      <contour>
        <pt x="178" y="-23" on="1"/>
        <pt x="152" y="-23" on="0"/>
        <pt x="103" y="-6" on="0"/>
        <pt x="99" y="-6" on="1"/>
        <pt x="88" y="-6" on="0"/>
        <pt x="73" y="-29" on="1"/>
        <pt x="53" y="-61" on="0"/>
        <pt x="-2" y="-61" on="1"/>
        <pt x="-35" y="-61" on="0"/>
        <pt x="-35" y="-45" on="1"/>
        <pt x="-34" y="-41" on="1"/>
        <pt x="452" y="799" on="0"/>
        <pt x="461" y="818" on="1"/>
        <pt x="485" y="862" on="0"/>
        <pt x="573" y="862" on="1"/>
        <pt x="603" y="862" on="0"/>
        <pt x="603" y="846" on="1"/>
        <pt x="603" y="837" on="0"/>
        <pt x="556" y="772" on="1"/>
        <pt x="380" y="534" on="0"/>
        <pt x="285" y="349" on="1"/>
        <pt x="283" y="345" on="0"/>
        <pt x="283" y="339" on="1"/>
        <pt x="283" y="330" on="0"/>
        <pt x="299" y="330" on="0"/>
        <pt x="318" y="344" on="1"/>
        <pt x="373" y="384" on="0"/>
        <pt x="429" y="384" on="1"/>
        <pt x="488" y="384" on="0"/>
        <pt x="488" y="311" on="1"/>
        <pt x="488" y="272" on="0"/>
        <pt x="440" y="161" on="0"/>
        <pt x="360" y="53" on="0"/>
        <pt x="240" y="-23" on="0"/>
      </contour>
      <contour>
        <pt x="214" y="34" on="1"/>
        <pt x="269" y="34" on="0"/>
        <pt x="385" y="213" on="0"/>
        <pt x="385" y="275" on="1"/>
        <pt x="385" y="302" on="0"/>
        <pt x="363" y="302" on="1"/>
        <pt x="330" y="302" on="0"/>
        <pt x="225" y="211" on="0"/>
        <pt x="149" y="109" on="0"/>
        <pt x="149" y="90" on="1"/>
        <pt x="150" y="84" on="0"/>
        <pt x="156" y="65" on="0"/>
        <pt x="189" y="34" on="0"/>
      </contour>
    </TTGlyph>
    <TTGlyph name="backslash" xMin="131" yMin="-56" xMax="337" yMax="729">
      <contour>
        <pt x="337" y="-35" on="1"/>
        <pt x="337" y="-56" on="0"/>
        <pt x="305" y="-56" on="1"/>
        <pt x="295" y="-56" on="1"/>
        <pt x="248" y="-56" on="0"/>
        <pt x="245" y="-30" on="1"/>
        <pt x="240" y="17" on="0"/>
        <pt x="158" y="538" on="1"/>
        <pt x="132" y="703" on="1"/>
        <pt x="131" y="705" on="0"/>
        <pt x="131" y="708" on="1"/>
        <pt x="131" y="729" on="0"/>
        <pt x="162" y="729" on="1"/>
        <pt x="173" y="729" on="1"/>
        <pt x="221" y="729" on="0"/>
        <pt x="222" y="703" on="1"/>
        <pt x="224" y="669" on="0"/>
        <pt x="319" y="39" on="0"/>
        <pt x="336" y="-30" on="1"/>
        <pt x="337" y="-32" on="0"/>
      </contour>
    </TTGlyph>
    <TTGlyph name="bar" xMin="28" yMin="-59" xMax="553" yMax="729">
      <contour>
        <pt x="125" y="-34" on="1"/>
        <pt x="112" y="-59" on="0"/>
        <pt x="28" y="-59" on="0"/>
        <pt x="28" y="-44" on="1"/>
        <pt x="28" y="-40" on="0"/>
        <pt x="31" y="-34" on="1"/>
        <pt x="53" y="-2" on="1"/>
        <pt x="418" y="632" on="0"/>
        <pt x="456" y="703" on="1"/>
        <pt x="470" y="729" on="0"/>
        <pt x="521" y="729" on="1"/>
        <pt x="523" y="729" on="1"/>
        <pt x="553" y="729" on="0"/>
        <pt x="553" y="714" on="1"/>
        <pt x="553" y="710" on="0"/>
        <pt x="550" y="704" on="1"/>
        <pt x="529" y="671" on="1"/>
        <pt x="160" y="35" on="0"/>
      </contour>
    </TTGlyph>
    <TTGlyph name="braceleft" xMin="49" yMin="-76" xMax="585" yMax="753">
      <contour>
        <pt x="98" y="-76" on="1"/>
        <pt x="83" y="-76" on="0"/>
        <pt x="49" y="1" on="0"/>
        <pt x="49" y="76" on="0"/>
        <pt x="173" y="271" on="0"/>
        <pt x="173" y="288" on="1"/>
        <pt x="173" y="321" on="0"/>
        <pt x="147" y="351" on="1"/>
        <pt x="142" y="358" on="0"/>
        <pt x="142" y="362" on="1"/>
        <pt x="142" y="374" on="0"/>
        <pt x="164" y="378" on="1"/>
        <pt x="185" y="378" on="0"/>
        <pt x="211" y="395" on="1"/>
        <pt x="261" y="428" on="0"/>
        <pt x="288" y="476" on="1"/>
        <pt x="367" y="623" on="0"/>
        <pt x="389" y="659" on="0"/>
        <pt x="424" y="698" on="0"/>
        <pt x="465" y="728" on="0"/>
        <pt x="535" y="753" on="0"/>
        <pt x="575" y="753" on="1"/>
        <pt x="585" y="750" on="0"/>
        <pt x="585" y="737" on="0"/>
        <pt x="547" y="718" on="0"/>
        <pt x="526" y="704" on="0"/>
        <pt x="506" y="684" on="1"/>
        <pt x="469" y="644" on="0"/>
        <pt x="366" y="448" on="0"/>
        <pt x="306" y="386" on="0"/>
        <pt x="235" y="362" on="1"/>
        <pt x="215" y="355" on="0"/>
        <pt x="215" y="344" on="1"/>
        <pt x="215" y="339" on="0"/>
        <pt x="220" y="327" on="1"/>
        <pt x="245" y="289" on="0"/>
        <pt x="245" y="258" on="1"/>
        <pt x="245" y="244" on="0"/>
        <pt x="176" y="129" on="0"/>
        <pt x="106" y="-1" on="0"/>
        <pt x="106" y="-32" on="1"/>
        <pt x="106" y="-41" on="1"/>
        <pt x="106" y="-76" on="0"/>
      </contour>
    </TTGlyph>
    <TTGlyph name="braceright" xMin="-63" yMin="-76" xMax="474" yMax="753">
      <contour>
        <pt x="425" y="753" on="1"/>
        <pt x="440" y="753" on="0"/>
        <pt x="474" y="676" on="0"/>
        <pt x="474" y="601" on="0"/>
        <pt x="349" y="406" on="0"/>
        <pt x="349" y="378" on="0"/>
        <pt x="353" y="359" on="0"/>
        <pt x="360" y="345" on="0"/>
        <pt x="363" y="340" on="1"/>
        <pt x="368" y="333" on="0"/>
        <pt x="375" y="326" on="1"/>
        <pt x="380" y="319" on="0"/>
        <pt x="380" y="315" on="1"/>
        <pt x="380" y="305" on="0"/>
        <pt x="359" y="299" on="1"/>
        <pt x="318" y="299" on="0"/>
        <pt x="268" y="246" on="1"/>
        <pt x="249" y="226" on="0"/>
        <pt x="235" y="201" on="1"/>
        <pt x="149" y="45" on="0"/>
        <pt x="133" y="18" on="0"/>
        <pt x="99" y="-21" on="0"/>
        <pt x="58" y="-51" on="0"/>
        <pt x="-13" y="-76" on="0"/>
        <pt x="-53" y="-76" on="1"/>
        <pt x="-63" y="-73" on="0"/>
        <pt x="-63" y="-60" on="0"/>
        <pt x="-25" y="-41" on="0"/>
        <pt x="-4" y="-26" on="0"/>
        <pt x="16" y="-6" on="1"/>
        <pt x="56" y="35" on="0"/>
        <pt x="117" y="156" on="1"/>
        <pt x="155" y="229" on="0"/>
        <pt x="216" y="291" on="0"/>
        <pt x="287" y="316" on="1"/>
        <pt x="307" y="323" on="0"/>
        <pt x="307" y="334" on="1"/>
        <pt x="307" y="340" on="0"/>
        <pt x="278" y="398" on="0"/>
        <pt x="278" y="434" on="0"/>
        <pt x="417" y="668" on="0"/>
        <pt x="417" y="709" on="1"/>
        <pt x="417" y="718" on="1"/>
        <pt x="417" y="753" on="0"/>
      </contour>
    </TTGlyph>
    <TTGlyph name="bracketleft" xMin="49" yMin="-76" xMax="585" yMax="753">
      <contour>
        <pt x="575" y="753" on="1"/>
        <pt x="585" y="750" on="0"/>
        <pt x="585" y="737" on="0"/>
        <pt x="545" y="717" on="0"/>
        <pt x="522" y="701" on="0"/>
        <pt x="471" y="639" on="0"/>
        <pt x="441" y="588" on="1"/>
        <pt x="181" y="135" on="1"/>
        <pt x="106" y="6" on="0"/>
        <pt x="106" y="-32" on="1"/>
        <pt x="106" y="-41" on="1"/>
        <pt x="106" y="-76" on="0"/>
        <pt x="98" y="-76" on="1"/>
        <pt x="83" y="-76" on="0"/>
        <pt x="49" y="1" on="0"/>
        <pt x="49" y="41" on="1"/>
        <pt x="49" y="60" on="0"/>
        <pt x="66" y="95" on="0"/>
        <pt x="76" y="116" on="0"/>
        <pt x="96" y="148" on="0"/>
        <pt x="102" y="157" on="1"/>
        <pt x="125" y="196" on="0"/>
        <pt x="174" y="271" on="0"/>
        <pt x="256" y="417" on="0"/>
        <pt x="350" y="590" on="0"/>
        <pt x="380" y="644" on="0"/>
        <pt x="389" y="659" on="0"/>
        <pt x="424" y="698" on="0"/>
        <pt x="465" y="728" on="0"/>
        <pt x="535" y="753" on="0"/>
      </contour>
    </TTGlyph>
    <TTGlyph name="bracketright" xMin="-62" yMin="-76" xMax="474" yMax="753">
      <contour>
        <pt x="-52" y="-76" on="1"/>
        <pt x="-62" y="-73" on="0"/>
        <pt x="-62" y="-60" on="0"/>
        <pt x="-22" y="-40" on="0"/>
        <pt x="1" y="-24" on="0"/>
        <pt x="52" y="38" on="0"/>
        <pt x="82" y="89" on="1"/>
        <pt x="342" y="542" on="1"/>
        <pt x="417" y="671" on="0"/>
        <pt x="417" y="709" on="1"/>
        <pt x="417" y="718" on="1"/>
        <pt x="417" y="753" on="0"/>
        <pt x="425" y="753" on="1"/>
        <pt x="440" y="753" on="0"/>
        <pt x="474" y="676" on="0"/>
        <pt x="474" y="636" on="1"/>
        <pt x="474" y="617" on="0"/>
        <pt x="457" y="582" on="0"/>
        <pt x="447" y="561" on="0"/>
        <pt x="427" y="529" on="0"/>
        <pt x="422" y="520" on="1"/>
        <pt x="398" y="481" on="0"/>
        <pt x="349" y="406" on="0"/>
        <pt x="267" y="260" on="0"/>
        <pt x="173" y="87" on="0"/>
        <pt x="143" y="33" on="0"/>
        <pt x="134" y="18" on="0"/>
        <pt x="99" y="-21" on="0"/>
        <pt x="58" y="-51" on="0"/>
        <pt x="-12" y="-76" on="0"/>
      </contour>
    </TTGlyph>
    <TTGlyph name="breve" xMin="333" yMin="436" xMax="518" yMax="547">
      <contour>
        <pt x="397" y="500" on="1"/>
        <pt x="410" y="500" on="0"/>
        <pt x="461" y="531" on="0"/>
        <pt x="479" y="540" on="0"/>
        <pt x="518" y="540" on="0"/>
        <pt x="518" y="532" on="1"/>
        <pt x="518" y="515" on="0"/>
        <pt x="415" y="436" on="0"/>
        <pt x="378" y="436" on="1"/>
        <pt x="333" y="436" on="0"/>
        <pt x="333" y="516" on="1"/>
        <pt x="333" y="547" on="0"/>
        <pt x="344" y="547" on="1"/>
        <pt x="361" y="547" on="0"/>
        <pt x="366" y="533" on="1"/>
        <pt x="378" y="500" on="0"/>
      </contour>
    </TTGlyph>
    <TTGlyph name="brokenbar" xMin="30" yMin="-55" xMax="553" yMax="729">
      <contour>
        <pt x="127" y="-30" on="1"/>
        <pt x="114" y="-55" on="0"/>
        <pt x="30" y="-55" on="0"/>
        <pt x="30" y="-40" on="1"/>
        <pt x="30" y="-36" on="0"/>
        <pt x="33" y="-30" on="1"/>
        <pt x="55" y="2" on="1"/>
        <pt x="173" y="203" on="0"/>
        <pt x="211" y="274" on="1"/>
        <pt x="225" y="300" on="0"/>
        <pt x="276" y="300" on="1"/>
        <pt x="278" y="300" on="1"/>
        <pt x="308" y="300" on="0"/>
        <pt x="308" y="285" on="1"/>
        <pt x="308" y="281" on="0"/>
        <pt x="305" y="275" on="1"/>
        <pt x="284" y="242" on="1"/>
        <pt x="162" y="39" on="0"/>
      </contour>
      <contour>
        <pt x="372" y="399" on="1"/>
        <pt x="359" y="374" on="0"/>
        <pt x="275" y="374" on="0"/>
        <pt x="275" y="389" on="1"/>
        <pt x="275" y="393" on="0"/>
        <pt x="278" y="399" on="1"/>
        <pt x="300" y="431" on="1"/>
        <pt x="418" y="632" on="0"/>
        <pt x="456" y="703" on="1"/>
        <pt x="470" y="729" on="0"/>
        <pt x="521" y="729" on="1"/>
        <pt x="523" y="729" on="1"/>
        <pt x="553" y="729" on="0"/>
        <pt x="553" y="714" on="1"/>
        <pt x="553" y="710" on="0"/>
        <pt x="550" y="704" on="1"/>
        <pt x="529" y="671" on="1"/>
        <pt x="407" y="468" on="0"/>
      </contour>
    </TTGlyph>
    <TTGlyph name="bullet" xMin="76" yMin="119" xMax="239" yMax="246">
      <contour>
        <pt x="76" y="191" on="0"/>
        <pt x="139" y="246" on="0"/>
        <pt x="206" y="246" on="0"/>
        <pt x="239" y="223" on="0"/>
        <pt x="239" y="204" on="1"/>
        <pt x="239" y="172" on="0"/>
        <pt x="177" y="119" on="0"/>
        <pt x="132" y="119" on="1"/>
        <pt x="108" y="119" on="0"/>
        <pt x="76" y="143" on="0"/>
      </contour>
    </TTGlyph>
    <TTGlyph name="c" xMin="30" yMin="-43" xMax="470" yMax="403">
      <contour>
        <pt x="316" y="365" on="1"/>
        <pt x="333" y="364" on="1"/>
        <pt x="350" y="364" on="0"/>
        <pt x="360" y="381" on="1"/>
        <pt x="368" y="403" on="0"/>
        <pt x="470" y="402" on="0"/>
        <pt x="470" y="381" on="1"/>
        <pt x="470" y="378" on="0"/>
        <pt x="424" y="332" on="0"/>
        <pt x="358" y="247" on="0"/>
        <pt x="340" y="204" on="1"/>
        <pt x="338" y="198" on="0"/>
        <pt x="311" y="198" on="0"/>
        <pt x="295" y="223" on="0"/>
        <pt x="295" y="252" on="0"/>
        <pt x="302" y="274" on="0"/>
        <pt x="302" y="279" on="1"/>
        <pt x="302" y="298" on="0"/>
        <pt x="281" y="298" on="1"/>
        <pt x="223" y="298" on="0"/>
        <pt x="133" y="165" on="0"/>
        <pt x="133" y="110" on="1"/>
        <pt x="133" y="37" on="0"/>
        <pt x="204" y="37" on="1"/>
        <pt x="247" y="37" on="0"/>
        <pt x="279" y="57" on="1"/>
        <pt x="286" y="63" on="0"/>
        <pt x="293" y="63" on="1"/>
        <pt x="304" y="63" on="0"/>
        <pt x="304" y="52" on="1"/>
        <pt x="304" y="26" on="0"/>
        <pt x="210" y="-43" on="0"/>
        <pt x="79" y="-43" on="0"/>
        <pt x="30" y="22" on="0"/>
        <pt x="30" y="101" on="0"/>
        <pt x="73" y="201" on="0"/>
        <pt x="144" y="298" on="0"/>
        <pt x="256" y="365" on="0"/>
      </contour>
    </TTGlyph>
    <TTGlyph name="caron" xMin="312" yMin="433" xMax="518" yMax="547">
      <contour>
        <pt x="404" y="504" on="1"/>
        <pt x="458" y="540" on="0"/>
        <pt x="518" y="540" on="0"/>
        <pt x="518" y="532" on="1"/>
        <pt x="518" y="529" on="0"/>
        <pt x="508" y="518" on="1"/>
        <pt x="459" y="470" on="0"/>
        <pt x="449" y="456" on="1"/>
        <pt x="434" y="435" on="0"/>
        <pt x="405" y="435" on="0"/>
        <pt x="385" y="452" on="0"/>
        <pt x="374" y="452" on="0"/>
        <pt x="370" y="449" on="1"/>
        <pt x="347" y="433" on="0"/>
        <pt x="323" y="433" on="1"/>
        <pt x="312" y="435" on="0"/>
        <pt x="312" y="445" on="1"/>
        <pt x="312" y="450" on="0"/>
        <pt x="331" y="504" on="0"/>
        <pt x="335" y="535" on="1"/>
        <pt x="335" y="547" on="0"/>
        <pt x="353" y="547" on="0"/>
        <pt x="377" y="522" on="0"/>
        <pt x="385" y="506" on="1"/>
        <pt x="388" y="502" on="0"/>
        <pt x="393" y="502" on="1"/>
      </contour>
    </TTGlyph>
    <TTGlyph name="ccedilla" xMin="30" yMin="-156" xMax="470" yMax="403">
      <contour>
        <pt x="316" y="365" on="1"/>
        <pt x="333" y="364" on="1"/>
        <pt x="350" y="364" on="0"/>
        <pt x="360" y="381" on="1"/>
        <pt x="368" y="403" on="0"/>
        <pt x="470" y="402" on="0"/>
        <pt x="470" y="381" on="1"/>
        <pt x="470" y="378" on="0"/>
        <pt x="424" y="332" on="0"/>
        <pt x="358" y="247" on="0"/>
        <pt x="340" y="204" on="1"/>
        <pt x="338" y="198" on="0"/>
        <pt x="311" y="198" on="0"/>
        <pt x="295" y="223" on="0"/>
        <pt x="295" y="252" on="0"/>
        <pt x="302" y="274" on="0"/>
        <pt x="302" y="279" on="1"/>
        <pt x="302" y="298" on="0"/>
        <pt x="281" y="298" on="1"/>
        <pt x="223" y="298" on="0"/>
        <pt x="133" y="165" on="0"/>
        <pt x="133" y="110" on="1"/>
        <pt x="133" y="37" on="0"/>
        <pt x="204" y="37" on="1"/>
        <pt x="247" y="37" on="0"/>
        <pt x="279" y="57" on="1"/>
        <pt x="286" y="63" on="0"/>
        <pt x="293" y="63" on="1"/>
        <pt x="304" y="63" on="0"/>
        <pt x="304" y="52" on="1"/>
        <pt x="304" y="28" on="0"/>
        <pt x="217" y="-39" on="0"/>
        <pt x="152" y="-42" on="1"/>
        <pt x="143" y="-45" on="0"/>
        <pt x="129" y="-63" on="0"/>
        <pt x="129" y="-80" on="0"/>
        <pt x="150" y="-99" on="0"/>
        <pt x="150" y="-128" on="0"/>
        <pt x="117" y="-156" on="0"/>
        <pt x="66" y="-156" on="0"/>
        <pt x="42" y="-136" on="0"/>
        <pt x="42" y="-120" on="0"/>
        <pt x="48" y="-120" on="1"/>
        <pt x="50" y="-120" on="0"/>
        <pt x="64" y="-129" on="0"/>
        <pt x="91" y="-129" on="0"/>
        <pt x="112" y="-116" on="0"/>
        <pt x="112" y="-95" on="0"/>
        <pt x="94" y="-79" on="0"/>
        <pt x="94" y="-75" on="1"/>
        <pt x="94" y="-74" on="1"/>
        <pt x="95" y="-60" on="0"/>
        <pt x="120" y="-48" on="1"/>
        <pt x="123" y="-46" on="0"/>
        <pt x="123" y="-44" on="0"/>
        <pt x="121" y="-42" on="1"/>
        <pt x="30" y="-32" on="0"/>
        <pt x="30" y="65" on="1"/>
        <pt x="30" y="101" on="0"/>
        <pt x="73" y="201" on="0"/>
        <pt x="144" y="298" on="0"/>
        <pt x="256" y="365" on="0"/>
      </contour>
    </TTGlyph>
    <TTGlyph name="cedilla" xMin="42" yMin="-156" xMax="157" yMax="-38">
      <contour>
        <pt x="129" y="-62" on="0"/>
        <pt x="129" y="-80" on="0"/>
        <pt x="150" y="-99" on="0"/>
        <pt x="150" y="-128" on="0"/>
        <pt x="117" y="-156" on="0"/>
        <pt x="66" y="-156" on="0"/>
        <pt x="42" y="-136" on="0"/>
        <pt x="42" y="-120" on="0"/>
        <pt x="48" y="-120" on="1"/>
        <pt x="50" y="-120" on="0"/>
        <pt x="64" y="-129" on="0"/>
        <pt x="91" y="-129" on="0"/>
        <pt x="112" y="-116" on="0"/>
        <pt x="112" y="-95" on="0"/>
        <pt x="94" y="-79" on="0"/>
        <pt x="94" y="-75" on="1"/>
        <pt x="94" y="-74" on="1"/>
        <pt x="95" y="-60" on="0"/>
        <pt x="120" y="-48" on="1"/>
        <pt x="123" y="-46" on="0"/>
        <pt x="123" y="-45" on="1"/>
        <pt x="119" y="-41" on="1"/>
        <pt x="119" y="-38" on="0"/>
        <pt x="128" y="-38" on="1"/>
        <pt x="157" y="-42" on="1"/>
        <pt x="147" y="-43" on="0"/>
      </contour>
    </TTGlyph>
    <TTGlyph name="cent" xMin="43" yMin="-62" xMax="446" yMax="448">
      <contour>
        <pt x="215" y="70" on="1"/>
        <pt x="258" y="70" on="0"/>
        <pt x="287" y="88" on="1"/>
        <pt x="300" y="96" on="0"/>
        <pt x="305" y="96" on="1"/>
        <pt x="313" y="96" on="0"/>
        <pt x="315" y="85" on="1"/>
        <pt x="315" y="59" on="0"/>
        <pt x="221" y="-10" on="0"/>
        <pt x="151" y="-10" on="1"/>
        <pt x="150" y="-10" on="1"/>
        <pt x="132" y="-41" on="1"/>
        <pt x="120" y="-62" on="0"/>
        <pt x="71" y="-62" on="0"/>
        <pt x="71" y="-55" on="1"/>
        <pt x="76" y="-45" on="1"/>
        <pt x="78" y="-42" on="0"/>
        <pt x="88" y="-26" on="0"/>
        <pt x="98" y="-10" on="0"/>
        <pt x="102" y="-2" on="1"/>
        <pt x="43" y="21" on="0"/>
        <pt x="43" y="101" on="1"/>
        <pt x="43" y="140" on="0"/>
        <pt x="81" y="236" on="0"/>
        <pt x="150" y="328" on="0"/>
        <pt x="265" y="395" on="0"/>
        <pt x="332" y="400" on="1"/>
        <pt x="340" y="412" on="1"/>
        <pt x="346" y="421" on="0"/>
        <pt x="348" y="426" on="1"/>
        <pt x="361" y="448" on="0"/>
        <pt x="409" y="448" on="0"/>
        <pt x="409" y="441" on="1"/>
        <pt x="404" y="431" on="1"/>
        <pt x="402" y="428" on="0"/>
        <pt x="384" y="399" on="1"/>
        <pt x="446" y="392" on="0"/>
        <pt x="446" y="374" on="1"/>
        <pt x="446" y="371" on="0"/>
        <pt x="436" y="360" on="1"/>
        <pt x="397" y="320" on="0"/>
        <pt x="377" y="278" on="1"/>
        <pt x="375" y="272" on="0"/>
        <pt x="356" y="272" on="0"/>
        <pt x="347" y="284" on="0"/>
        <pt x="339" y="308" on="0"/>
        <pt x="334" y="314" on="1"/>
        <pt x="196" y="71" on="1"/>
        <pt x="202" y="70" on="0"/>
      </contour>
      <contour>
        <pt x="292" y="331" on="1"/>
        <pt x="235" y="331" on="0"/>
        <pt x="143" y="196" on="0"/>
        <pt x="143" y="141" on="1"/>
        <pt x="143" y="106" on="0"/>
        <pt x="156" y="90" on="1"/>
        <pt x="293" y="331" on="1"/>
      </contour>
    </TTGlyph>
    <TTGlyph name="circumflex" xMin="292" yMin="433" xMax="498" yMax="547">
      <contour>
        <pt x="498" y="536" on="1"/>
        <pt x="475" y="446" on="1"/>
        <pt x="475" y="433" on="0"/>
        <pt x="466" y="433" on="1"/>
        <pt x="446" y="433" on="0"/>
        <pt x="425" y="474" on="1"/>
        <pt x="422" y="480" on="0"/>
        <pt x="412" y="480" on="0"/>
        <pt x="406" y="476" on="1"/>
        <pt x="352" y="440" on="0"/>
        <pt x="292" y="440" on="0"/>
        <pt x="292" y="448" on="1"/>
        <pt x="292" y="451" on="0"/>
        <pt x="302" y="462" on="1"/>
        <pt x="348" y="508" on="0"/>
        <pt x="371" y="539" on="0"/>
        <pt x="381" y="546" on="0"/>
        <pt x="406" y="546" on="0"/>
        <pt x="420" y="532" on="1"/>
        <pt x="425" y="528" on="0"/>
        <pt x="436" y="528" on="0"/>
        <pt x="466" y="547" on="0"/>
        <pt x="488" y="547" on="1"/>
        <pt x="498" y="546" on="0"/>
      </contour>
    </TTGlyph>
    <TTGlyph name="colon" xMin="19" yMin="-3" xMax="303" yMax="363">
      <contour>
        <pt x="19" y="57" on="0"/>
        <pt x="71" y="102" on="0"/>
        <pt x="99" y="102" on="1"/>
        <pt x="154" y="102" on="0"/>
        <pt x="154" y="67" on="1"/>
        <pt x="154" y="41" on="0"/>
        <pt x="102" y="-3" on="0"/>
        <pt x="74" y="-3" on="1"/>
        <pt x="19" y="-3" on="0"/>
        <pt x="19" y="33" on="1"/>
      </contour>
      <contour>
        <pt x="169" y="318" on="0"/>
        <pt x="221" y="363" on="0"/>
        <pt x="248" y="363" on="1"/>
        <pt x="303" y="363" on="0"/>
        <pt x="303" y="328" on="1"/>
        <pt x="303" y="302" on="0"/>
        <pt x="251" y="258" on="0"/>
        <pt x="195" y="258" on="0"/>
        <pt x="169" y="278" on="0"/>
      </contour>
    </TTGlyph>
    <TTGlyph name="comma" xMin="19" yMin="-71" xMax="163" yMax="102">
      <contour>
        <pt x="163" y="65" on="1"/>
        <pt x="163" y="11" on="0"/>
        <pt x="74" y="-71" on="0"/>
        <pt x="35" y="-71" on="1"/>
        <pt x="19" y="-71" on="0"/>
        <pt x="19" y="-64" on="1"/>
        <pt x="21" y="-59" on="1"/>
        <pt x="65" y="-34" on="0"/>
        <pt x="65" y="-11" on="1"/>
        <pt x="65" y="-2" on="0"/>
        <pt x="59" y="-2" on="1"/>
        <pt x="29" y="5" on="0"/>
        <pt x="29" y="56" on="0"/>
        <pt x="81" y="102" on="0"/>
        <pt x="115" y="102" on="1"/>
        <pt x="163" y="102" on="0"/>
      </contour>
    </TTGlyph>
</ttFont>
